<svg xmlns="http://www.w3.org/2000/svg" viewBox="0 0 4588.42 3207.11"><defs><style>.a{fill:#efe7f0;}.b{fill:#df6985;}.c{fill:#41c2c6;}.d{fill:#42c1c7;}.e{fill:#df6887;}.f{fill:#e06987;}.g{fill:#d96d8c;}.h{fill:#42c2c6;}.i{fill:#43c2c4;}.j{fill:#41c2c7;}.k{fill:#df6b86;}.l{fill:#fcbb61;}.m{fill:#f1bf47;}.n{fill:none;}.o{fill:#f1bf43;}.p{fill:#f1bf44;}.q{fill:#ba2636;}.r{fill:#005550;}.s{fill:#005551;}.t{fill:#bb2439;}.u{fill:#f37043;}</style></defs><path class="a" d="M1582,2204.94c37.25,10.46,61.79,16,91.69,40.52-.37,1-1.82-.62-1-1.28s2-.14,2.85.4c3.68,2.25,7.2,4.76,10.67,7.33,33.71,25,62.7,56,97.56,79.34,54.16,36.24,117.35-2.29,161.22-38.06,23.89-19.48,51.33-35.4,66.83-62.05,26.85-46.14,50.81-94.68,62.51-146.77s10.4-108.35-11.8-156.9c-1.7-3.72-3.57-7.67-3-11.72,1.18-8.23,10.93-11.55,18.75-14.4,21.34-7.8,39.5-25.27,45.78-47.12,14.42-50.13-51.07-101.38-86.94-126.71-45.48-32.13-98.18-52.84-151-69.58-13.24-4.2-26.52-8.36-39.4-13.57-23-9.29-44.47-21.82-65.88-34.31-47.58-27.76-97.88-58.39-121.38-108.21-18.61-39.46-17.42-85-15.78-128.6,1.57-41.49,3.68-84.75,23.9-121,5.91-10.59,13.38-20.48,23-27.85,11.69-9,26-13.8,40.27-17.37,85.31-21.35,174.76-.33,242.51,55.75l3.47-5.13c7,10.51-1.47,25.41-12.91,30.82s-24.68,4.81-37.14,7c-32.09,5.6-59.37,31.32-68.36,62.64s0,66.76,21.55,91.16,57,35.19,89.5,33.81c17.46,3.87,36.33-16.86,51.39-7.22,4.12,2.63,6.69,7,9.07,11.31,13.2,23.74,26,49.39,48.78,64.15,29.36,19,67.41,15.14,102.09,10.56,7.58-1,16-2.45,20.66-8.49,3-3.91,3.9-9.09,3.94-14,.2-21.74-13.37-41.17-28.42-56.87s-32.42-29.71-43.23-48.58c-16.53-28.88-15.13-64.15-20.9-96.92-11.07-62.85-53.42-118.71-107.74-152.19-45.24-27.87-98.11-48.42-150.72-41-12.55,1.78-24.88,5.12-37.52,6s-23.1-4.32-34.69-9.46c-11.06-4.92-23.64.67-35,5-29.84,11.26-33.84-4.72-46.55-25.62-11-18.09-27.45-31.65-35.27-51.86-7.7-19.89-11.41-41.06-15.08-62.08-6.21-35.52-14.88-97.45,24.06-119.17,23.51-13.12,52.22-.17,77.28,9.62,52.92,20.68,111.45,26.14,167.42,16.87,28.19-4.68,55-13.38,81.11-24.9,21.64-9.55,44.58-26.87,69.28-24.49,34.51,3.34,51,39.86,84.31,47.47,25.11,5.74,50.91-4.21,74.41-14.75,4.83-2.17,9.8-4.41,15.09-4.55,16.65-.44,26,18.08,36,31.42,24.1,32.23,74,41.34,108,19.71,22.35-14.26,36.1-37.82,56.87-53.83,25.13-19.39,44.53-13.52,74.09-10.23a93.6,93.6,0,0,0,76.08-27.14c15.19-15.52,29.35-38.47,50.94-36.25,9.09.93,16.92,6.48,24.57,11.48,38.16,24.92,85.48,29.87,129.43,41.93,91,25,193.66,24.95,287.25,12.59L3319,850.82c56-7.4,114.17-12.73,170-.54,28.54,6.24,54.74,20.12,80.53,33.84,19.64,10.45,35.51,36.46,60.53,33.37,10.24-1.27,19-7.78,27.06-14.19,24.13-19.12,47.54-39.56,66.18-64.06s31.14-53.87,33.84-84.54c16.89-22.91-8.49-55.68-.93-83.11,2.35-8.52,7.75-15.83,13.45-22.58,38.71-45.84,94.85-74.25,152.84-89.66s118.38-18.87,178.28-22.26c11.21-.63,22.8,4.75,32.36,10.67,10.13,6.27,21.33,14.14,22.66,26,1.29,11.43-7.18,21.32-14.24,30.41-34.84,44.82-45.45,107.4-27.33,161.2s64.43,97.2,119.28,111.82c25.12,6.69,51.84,16.79,77.57,20.53A298.76,298.76,0,0,0,4633,709.23c44.15-114.85,45.93-247.51-21.66-350.33-11-16.68-18.8-32.59-31.6-47.9-73.07-87.46-178.57-145.08-290-169s-233.25-13.64-343.17,16.46a147.27,147.27,0,0,0-201.18-67.92c-6,3.11-12.64,6.75-19.08,4.74-3.34-1-6-3.47-8.7-5.72a124.08,124.08,0,0,0-99.9-26.92c-35.07,6.16-75,24.37-92.8,55.21-37.12-41.53-106.87-48.44-151.41-15-13.75,10.33-26.48,24.42-43.6,26.1-11.74,1.15-23.08-3.94-34-8.47-58.7-24.45-122.72-35.81-186-30.14-65.66,5.88-120.9,52.4-161.12,104.64-10.42,13.55-20.34,28-25,44.39-4.62,16.21-3.9,33.43-2.33,50.21,4.37,46.72,10.75,92.15,27.26,136.08-9.42,7.65-22.09,9.7-34.15,11-59.52,6.68-122,2.62-175.53-24.16s-93-78.78-105.76-137.29a486.88,486.88,0,0,0-62-152.68c-11.58-18.64-24.93-37-43.58-48.56-41.35-25.68-83.47,2.66-119.53,23.36-77.65,44.58-172.64,43.75-261.86,36.24-107.06-9-213.68-36.66-319.83-53.29-76.79-12-156.05,7.78-225.24,43.19s-129.54,85.77-187.09,138c-11.9,10.81-19.88,13.26-30.47,25.35-47.54,54.25-78.7,121.39-97.9,190.92-11,39.89-18.24,80.72-23.33,121.76-2.46,19.79-4.39,39.65-6,59.53-.94,11.53,1.44,37.36-6.72,47.08-3.27,3.89-9.08,4.09-14.16,4.09-53.9,0-108.24,13.46-154.07,41.84s-82.68,72.07-99.56,123.27c-7.12-35.54-11.38-72.35-4.64-108a146.85,146.85,0,0,1,39.1-75.6c14.58-15.19,44.74-34.26,44.06-57.5-.54-18.5-19.93-37.44-9.33-52.6,4.1-5.86,11.43-8.33,18.2-10.62,30.31-10.25,63.35-28.77,68.22-60.39,3.83-24.86-11.6-49.45-8.86-74.45.68-6.23,2.74-12.7,7.57-16.69,7.22-6,17.71-4.51,27.07-4.28,38.25,1,74-25.38,90.56-59.87s16-75.38,5.14-112.08-31.12-69.85-53-101.25c-3.56-5.11-7.89-10.64-14.08-11.4-4.8-.59-9.39,1.92-13.46,4.52-38.84,24.79-67.83,66.61-112.24,78.91-42.47,11.76-86.79-6.89-126.91-25.13L782,117.45c-18-8.19-37.32-15.52-55.27-7.21-27-4.64-54.8-7.25-81.62-1.76a203.49,203.49,0,0,0-34.68,10.93c-32,12.79-60.17,26.68-81.4,53.59-16.66,21.11-38.74,48.24-68.32,47.74-10.52-.18-20.59-4-30.9-6.16C376.4,203.45,323.81,238.93,289,281c-8.61,10.41-17.44,21.93-30.36,25.91-8.6,2.65-17.84,1.53-26.8.68-43.58-4.14-104.51-9-121.37,31.42-11.5,27.59-8.25,59.5,2,87.59s26.89,53.29,42.55,78.76c3.55,5.77,7.18,12,7.1,18.76-.08,7-4.06,13.25-8,19-19.06,27.29-42.15,53-51.21,85.09-14.4,51,9.75,103.65,26.29,154,3.92,11.93,7.46,24.17,7.72,36.72.33,16.54-5,32.64-11.3,47.95-14.83,36.25-35.07,70.53-44.67,108.5s-6.48,82.3,20.61,110.59c33.79,35.27,63.74,79.43,112,87.12s99.91-12,130.78-49.85c3.45-4.22,7.16-9,12.53-9.93,4.59-.82,9.12,1.4,13.25,3.57,38.22,20.09,80.52,41.88,122.5,31.76,4.41-1.06,8.94-2.6,12-5.91,3.39-3.63,4.51-8.77,5.53-13.64,7.91-37.7,18.78-76.41,44.26-105.3,42.85-48.57,116.3-57.05,180.1-45.86,8.6,1.51,18.94,5.06,20.27,13.7.89,5.72-2.79,11-6,15.86-24.76,37.72-28.16,85.06-31.38,130.07-1.07,15-2.29,30.22-8.28,44-11.2,25.64-37,41.7-52.52,65-17.33,26-20.88,59.31-38.5,85.08-16.69,24.42-45.86,39.81-75.45,39.78-70.58,3.93-139.82,30.08-197,71.39-55.91,40.41-90.07,108.18-118.2,169.47-49,106.81-90.54,226.08-65.45,343.77,23,108,86.84,207.71,178.13,270.47,164,112.73,376.6,163.51,568.35,100C1118,2256.91,1357.15,2141.78,1582,2204.94Z" transform="translate(-75.94 -60.87)"/><path class="b" d="M451.65,268.81c1.31,11.52-5.2,25.34-7.62,35.29a289.88,289.88,0,0,0-8.45,63.82c-.3,17.95,1.1,35.9.92,53.85-.54,54.07-19.65,100-42.78,148.9A262.78,262.78,0,0,1,298,679.18c-22.74,14.5-47.62,25.4-70.5,39.67s-44.34,32.73-55.42,57.33A166.44,166.44,0,0,1,213.93,541c-44.61-37.93-74.52-87.89-83.4-145.76-.88-5.74-1.51-11.84.87-17.13,2.65-5.89,8.48-9.6,14.16-12.66,35-18.84,76.28-25.22,115.39-18.65,15.9,2.66,29.39,11.38,41.94-.48,13.61-12.86,21.34-44.71,32.59-61.14,7.63-11.13,16.23-22,27.59-29.25,19.2-12.29,72.75-19.67,86.32,5.45A20.31,20.31,0,0,1,451.65,268.81Z" transform="translate(-75.94 -60.87)"/><path class="c" d="M208.47,1124.22a107.3,107.3,0,0,0,132.41-97.88c-10.93.11-18.87,9.82-27.42,16.63-20.1,16-48.68,17.29-73.54,10.78-28.37-7.43-111.26-70.88-123.76-19.4C104.5,1082.37,172.14,1115.4,208.47,1124.22Z" transform="translate(-75.94 -60.87)"/><path class="d" d="M840.64,929.29l70.82-32.36c7.51-3.43,15.37-7.14,20.18-13.86,5.31-7.43,5.9-17.13,6.3-26.26q1.59-36.16,3.19-72.33c.44-10,.87-20-.74-29.86-1.31-8-4-15.78-6.59-23.49L915,676.28c-6.53-19.08-13.19-38.41-24.36-55.21S863.1,590,843.38,585.72c-26.77-5.8-55,8.27-72.12,29.69S746,669.08,742.53,696.25c-41.7-29.54-67.13-76.34-91.12-121.46-14.5-27.27-29.09-54.75-38.11-84.29-6.36-20.85-9.93-43-8.28-64.79.45-6,13.9-51.92,13.11-53.19,17.4,28,31.11,58.55,52.84,83.29s54.47,43.31,86.78,37c43.07-8.45,67.13-57.61,65.91-101.49C865.46,419,928.59,402,954.29,358.89s13.25-103.54-24.67-136.38c-9.49-8.22-20.22-14.86-31.07-21.17-32.94-19.17-67.66-35.8-104.53-45.5-101-26.58-224.5.69-288.59,83.17-67.65,87.07-49.63,201.64-12.16,297.44,24.1,61.62,52.59,120.14,103.32,163.36,4.91,4.19,9.94,8.53,12.88,14.27s3.29,13.3-.87,18.23c-7.17,8.46-20.76,4-30.73-.87-36.15-17.6-74.26-31.87-114-37.84s-81.34-3.34-118.57,11.81c-16.89,6.88-27.39,27.09-32.38,44.63-5.75,20.18.48,42.27,12,59.84s27.71,31.4,43.87,44.77q43.57,36,88.7,70.17c5.47,4.14,11,8.3,17.34,11,6.53,2.8,13.63,3.95,20.69,4.71,66.31,7.2,132.81-17,199.29-11.62,26.68,2.17,53.2,9.09,79.86,6.65C795.55,933.64,819.81,926.32,840.64,929.29Z" transform="translate(-75.94 -60.87)"/><path class="e" d="M771.89,1160c-1-11.58-5.78-22.45-8.86-33.65-9.86-36-1.62-76.49,21.54-105.76,3.23-4.08,7.34-8.25,12.54-8.39,3.06-.08,5.95,1.29,8.69,2.66a367.16,367.16,0,0,1,90.31,63.76c8.16,7.86,16.33,16.79,18.3,27.95,2.13,12-3.34,23.91-8.77,34.82q-19.87,39.94-41.7,78.89c-15.31,27.32-31.8,54.83-55.91,74.83-26,21.56-59.29,33.06-84.61,55.4-14.26,12.58-25.85,28.48-42.26,38.09-3.31,1.94-7,3.65-10.84,3.27-7.45-.73-11.79-8.66-14.2-15.75a133.81,133.81,0,0,1,6.34-100.46c13-26.6,36-50.89,64.1-61.06C752.49,1205.22,775,1194.31,771.89,1160Z" transform="translate(-75.94 -60.87)"/><path class="f" d="M1000.27,922.5c.45-39.76,27.44-76.66,58-103.56,29-25.43,149.34-115.94,183.81-57.76,4.9,8.27,5.38,18.33,5.74,27.93l4,108.89c.27,7.21.42,14.89-3.3,21.08-3.35,5.56-9.27,9-14.82,12.33a250.4,250.4,0,0,0-53.38,43.65c-14.78,16-28.33,34.49-48.38,42.91-48.56,20.39-104.22-13.11-124.09-58.46A88.83,88.83,0,0,1,1000.27,922.5Z" transform="translate(-75.94 -60.87)"/><path class="g" d="M1030.85,1512.31c1.33,2.56-4.81,2.19-4.25-.65s4.13-3.72,7-4c84.58-9.56,171.79-45.27,217.12-117.31,6.27-10,11.71-20.65,14.2-32.16,4.15-19.17-.13-39-3.64-58.31-20.49-112.73-14.41-228.38-8.26-342.78-77.57,97.34-120.61,221.64-119.87,346.1,1.94-1.21-4.75-2.14-3.6-.16-132.61-16-267.09,17.16-380.28,88-9.1,5.69-19,17.54-11.73,25.41,3.67,4,9.78,4,15.17,3.89a316.63,316.63,0,0,1,146.86,33C944,1475.45,981.27,1514,1030.85,1512.31Z" transform="translate(-75.94 -60.87)"/><path class="h" d="M1881.19,1654.44l-96.57-100.63c-13.78-14.36-27.67-28.87-38.09-45.83a141.11,141.11,0,0,1-18.18-99.2c2.52-13.2,7-26.16,7.15-39.6.74-52.09-60.88-93.41-50.51-144.47,4.74-23.28,24.14-41.15,45.46-51.64s44.94-15.12,67.57-22.36c7-2.23,15.51-7.9,12.82-14.73-1.34-3.41-5-5.14-8.37-6.67-40.08-18.38-71.3-52.46-93.74-90.42s-36.94-80-51.29-121.65a1076.38,1076.38,0,0,0-38.89,167.08c-25,166.63-11.32,338.93-4.87,507.3.91,23.89,3.23,52.71,3.15,76.62,0,4.52,0,9.24,2.06,13.28,3.65,7.19,12.82,10,20.82,9s15.22-5.11,22.49-8.61a179,179,0,0,1,78.11-17.68c42.63.18,87.54-11.43,130-7.2,1.42.14,3.19.6,3.4,2S1880.34,1655.59,1881.19,1654.44Z" transform="translate(-75.94 -60.87)"/><path class="h" d="M1988.45,1309.31c-26-3.51-53.51,9-67.9,31s-15,52.17-1.38,74.63c6.42,10.61,15.95,19.62,27.6,23.88,12.83,4.71,27,3.39,40.62,3.07,22.06-.53,45.69,2.3,62.6,16.48,15.42,12.93,22.64,33.05,35.23,48.76,22.56,28.13,63.72,39.63,97.6,27.27a131.7,131.7,0,0,0-39-49c-8-6.17-16.82-11.51-23.4-19.19-13.77-16.1-15.13-39.06-15.83-60.24-.67-20.35-7.39-38.59-14.18-57.79-4.19-11.85-8.43-23.74-14.32-34.85-44.65-84.18-164.55-141.9-257.17-134.58-23.94,1.89-48.2,7.61-68,21.28s-34.32,36.32-33.76,60.33c-.39-16.78,64.52-35.43,76.6-38.24,28.51-6.64,61.9-7.56,90,1.19,43.4,13.52,77.55,52.81,102,89" transform="translate(-75.94 -60.87)"/><path class="i" d="M2631,274.64l172.54,107.49c43,26.77,93.1,54.62,141.51,39.81,14.94,4,19.53,24.73,12.49,38.51-21.71,42.49-103.35,58.21-145.19,63.93-48.71,6.65-91.7-8.09-134.74-30.3-19.55-10.09-37.83-22.42-56.06-34.72-19.65-13.25-44.56-25.9-60.86-42.36,24.86-9.42,43.84-35.12,55.4-58.26C2620.94,349.05,2645.46,281.86,2631,274.64Z" transform="translate(-75.94 -60.87)"/><path class="j" d="M3737,685.56c9,25.5,11.41,52.77,13.75,79.7,102-108.62,237.84-185,383.64-215.88-44.36-36.06-105-47.44-161.86-41.53s-110.87,27.5-162.74,51.54c-39.76,18.43-85.92,36.11-121.62,61.33C3701.71,644,3726.6,656.16,3737,685.56Z" transform="translate(-75.94 -60.87)"/><path class="g" d="M2194.48,716a185.62,185.62,0,0,1-67,77.55c-4.45,2.9-9.15,5.72-12.27,10-5.62,7.75-4.76,18.6-1.19,27.49,10.51,26.18,39.67,39.67,67.3,45.38,11.48,2.37,30.87,6.76,42.35,3.3,12.66-3.83,17.33-17.75,29.86-22,10.64-3.59,22.09,3.51,29.12,12.26s11.63,19.42,19.64,27.28c13.4,13.14,34.64,16,52.58,10.55s32.89-18.23,44.81-32.72c12.88-15.65,24.27-34.75,43.52-41.09,19-6.26,39.33,2,59.21,4.15,36,3.83,73.48-14.91,92-46a1051.12,1051.12,0,0,1-158.59-89.41c-19-12.92-38.4-26.79-61-30.84-20.31-3.64-41.11,1-61,6.33C2274.86,688.52,2231.87,701,2194.48,716Z" transform="translate(-75.94 -60.87)"/><path class="k" d="M3505.41,145.59c14.87,13.38,25.21,31.16,39.87,44.76,13-22.94,26.37-46.24,45.55-64.35s45.44-30.59,71.59-27.06c9.35,1.27,18.95,4.94,24.46,12.6,10.5,14.61,2.36,37.48,13.9,51.28,35-9.38,61.78-38.82,96.49-49.32a97.43,97.43,0,0,1,86.6,16.15c13.82,10.78,25,30.39,15.66,45.24-4.88,7.77-13.94,11.68-22.51,15-44.7,17.22-91.32,30.42-132.85,54.28-28.22,16.22-53.6,37.1-82.18,52.68s-62.08,25.75-93.7,18c-14.88-3.64-28.53-11-42-18.36l-48.1-26.15c-11-6-22.08-12-31-20.77-9.9-9.7-16.54-22.16-24.36-33.62-12.17-17.84-28.92-28.91-42.78-44.54-16.43-18.5-1.93-29,18.55-38.76C3432.58,116.43,3476.94,119.94,3505.41,145.59Z" transform="translate(-75.94 -60.87)"/><path class="l" d="M1951.25,1998.17c-41.91,38.34-65,92.62-85.12,145.74-18.91,49.94-36.54,102.42-31.51,155.57,12.92,9.83,31.27,9.87,46.44,4.11s27.87-16.49,40-27.2c44.62-39.23,88-82.49,111.65-137,17.63-40.69,23.24-85.62,24.11-130,.48-24.37-.56-49.46-10.26-71.82-9.59-22.11-39.35-57.7-51.86-21.19-5.11,14.91-3,31.09-10.16,45.64C1977.2,1977.11,1963.32,1987.12,1951.25,1998.17Z" transform="translate(-75.94 -60.87)"/><path class="l" d="M518.34,1557.26c-23.33,42.82-25.07,98,.14,139.76s78.34,66.21,125.41,53.48c18-4.87,34.43-14.57,49.09-26.12,21.56-17,39.93-38.49,50.95-63.62,17.06-38.89,15.23-84.86-1.68-123.8-44.09-101.5-175.06-144.16-277.55-122.9-78.05,16.19-139.53,63.68-174.07,133.66-77.26,156.56-141.26,330.61-45.17,494.25,40.75,69.4,100,126.24,163.44,175.74,88.22,68.82,198.08,96.44,309.8,90.32,158.52-8.69,306.77-45.92,453.75-105.92,59.87-24.44,123.59-36.3,187.62-43.29,62-6.77,131.27-13,193.39-5.07,45,5.75,87.31,23.23,126.44,45.58,20.52,11.73,40.21,24.86,59.47,38.55,15.17,10.78,45.43,49.21,56.05,22.88,4-9.86-.33-31.38,1.71-43.09,2.78-16,7.68-31.7,12.14-47.34,9.78-34.24,17.26-73-.4-103.88-48.91-85.68-69.61-183.26-82.11-281.13-1.65-12.9-19.08-18.15-30.74-23.9l-46.73-23c-12.79-6.3-27.23-2.66-40.13,3.4-68.91,32.41-130.85,78-199,112-10.23,5.11-24,9.4-31.84,1.05-2.86-3.06-4.16-7.24-4.91-11.36a56.73,56.73,0,0,1,8.24-40.78c50-76.42,53.07-184.27,53.43-272.79.46-115.24-11.22-228.89-19.45-343.51q-13-181.44-17.27-363.36c-4.45-188,74-427.34,256.23-512.87,47.18-22.15,100-33.68,152.19-31.5,54.74,2.3,113.35,20.41,155.16,57,39.81,34.81,60.38,90.35,52.87,142.68-2.7,18.83-11.13,35.84-25.19,48.65-31.37,28.58-81.22,45.41-118.19,66.16-11,6.16-22,12.4-31.15,21.06s-16.17,20.14-17,32.69c-1.7,26.35,21.3,43.56,42.23,59.68,52.28,40.27,127.3,58.86,185,26.8,36-20,60.25-56.8,73.54-95.77s16.82-80.49,20.26-121.52l8.16-97.44c.7-8.28,13.68-12,21.74-10.05s14.46,7.92,20.47,13.65l43.51,41.56c-.65,0,2.88-.85,2.24-.85,2.06-.49-1.7-4.25-2.92-2.51s.17,4.07,1.52,5.71c52.59,64.05,116.57,117.63,180.14,170.79,80.35,67.2,164.71,136.46,266.67,160.46,108.09,25.45,219,39.39,330.07,40.36,113.05,1,223.78-2.12,335.05-27.61,43.55-10,89.38-22.8,132-9.26,2.92-14.44,8.8-26.21,11.72-40.65,2.6-12.84,5.29-25.94,12-37.22,7.75-13.15,20.25-22.75,29.76-34.69a92.46,92.46,0,0,0,19.3-46c2.65-21.49-45.83-17.25-52.66-37.8-4.45-13.38,7.75-26,18.73-34.91,74.66-60.31,148.79-122.29,231.76-171.1,87.48-51.48,187.57-80.09,287.83-95.91,77-12.15,158.68-11.73,233.78,10.93,72.93,22,153.87,74,179.7,148.89,10.68,31,14.28,63.85,17.52,96.44,1.31,13.19,2.55,26.74-1.05,39.5s-13.15,24.72-26.16,27.21c-13.28,2.54-27.74-6.58-31.18-19.65,1-2,4.75-.23,3.9,1.8-44.67-38.07-115.3-51-171.68-34.69S4144,642.1,4142,700.76c-2.7,81,68,144.39,142.55,158.22,137.2,25.46,260.12-46.25,317.47-171.21a336.9,336.9,0,0,0,22.17-213.31c-18.35-80.86-69.69-147.51-135.82-195.88-32.08-23.48-67.71-41.56-104.65-56.06-34.83-13.68-66-18-101.69-24.43C4220.9,187,4159.36,172,4096.75,174.34c-54.05,2-111.55,13.81-163.73,27.78-106.58,28.54-206.77,81.07-290.35,153.16-72.78,62.76-144.9,124.38-218.58,186.09,11.42-60.06,23.51-117.32,18.4-178.24s-28.95-122.88-76.75-161c-35-27.89-73.44-53.12-115.4-68.64-35.88-13.28-75.56-26.61-111.44-13.32-45.41,16.83-94.08,33.1-130.28,66.69-37.75,35-45.66,89.3-46.44,138.54-.48,30.36,2.09,64.43,24.76,84.62,18,16.07,30.17,33.64,51.22,45.51,29.86,16.85,68.5,16.87,98.42.13s50.13-49.62,51.6-83.88c.65-15.16-2.1-30.35-1-45.49s6.94-31.23,20.08-38.83c21.21-12.26,47.86,3.53,64,22,35.67,40.75,48.79,97.35,50.7,151.47,3.38,95.51-67.78,171.21-148.44,211.62-101.83,51-206,38.46-315.41,28.62-18-1.61-36-3.23-53.66-6.67-27.36-5.32-53.73-14.94-79.25-26.16-59-25.94-117-47.33-171.33-82.25q-53-34-104.84-69.69c-27.45-18.87-67.62-39.34-73.72-75.65a60.88,60.88,0,0,1,12.92-48.21,16.52,16.52,0,0,1,4.82-4.31c1.41-7.15-3.92-10.77-2.51-17.93,4.93-25,9.88-50.29,8.86-75.76s-8.61-51.52-25.89-70.27c-4.84-5.25-10.81-12.49-7-18.54C2306,198.5,2243.21,189.82,2182.37,190c-76.29-11.12-157.68-27.12-232.12-47.2-77.39-20.87-164.83-33-242.51-11.14-76.27,21.46-145.85,56.9-203.53,112-30.53,29.18-74.27,45.94-98.94,80.09-28.44,39.37-51.15,83.69-69,128.76-53.63,135.54-59.56,288.49-48.13,432.3,8.63,108.71,5.94,216.33,7.69,325.37,1.63,101.5,15.4,208.23,12.44,309.7-2,68.12-6,132.46-19.32,199.3-9.68,48.54-21.37,86.08-42,131.09l-46.77,102.26c-8.15,17.83-26.3,32.92-39.82,47.13s-31.17,26.19-50.77,26.42c-20.73,26.1-64.21,32.59-92.86,49.62-12.36,7.34-23.45,16.82-36.36,23.15s-28.7,9.18-41.49,2.61a90.83,90.83,0,0,1,21.76-44.15c6.25-6.92,13.56-12.86,19.37-20.16,4.88-6.12,8.6-13.07,12-20.1a310.32,310.32,0,0,0,30.06-109.25,9.12,9.12,0,0,1-7.16,5c3.57-25.3-1.86-49.71-15.39-71.39a111,111,0,0,0-59.16-46.29c-8.94-2.91-18.73-4.65-27.69-1.81a29.2,29.2,0,0,0-19.25,20.78c-2.33,9.95,3.56,19.93,10.16,27.74s14.57,14.39,20.89,22.42c30,38,26.31,103.67.73,141.55-29,42.92-72.65,76-122.2,91.37-85.05,26.34-185.44-.9-259.16-47.64-19.29-12.23-36.26-27.39-52.14-43.81-58.92-60.92-108.73-141-119.6-226.39-9.61-75.55,27.05-173.23,91-217.55C481.88,1548.85,498.16,1546.72,518.34,1557.26Z" transform="translate(-75.94 -60.87)"/><path class="m" d="M713.53,2081.85c45.25-7.65,81.82-50.68,82.08-96.57,0-4.61-.34-9.43-2.79-13.33-4.13-6.56-12.66-8.46-20.3-9.78-100-17.25-161.82-62.5-193.44-161.11-2-6.16-3.88-12.52-7.78-17.68-4.51-6-11.29-9.77-18.07-12.91a157.93,157.93,0,0,0-84.82-13.38c-17,2.07-34.51,7.43-46.29,19.87-12.92,13.63-16.91,34-14.19,52.53s11.42,35.74,21.16,51.79a383.5,383.5,0,0,0,64.85,80.13C555.18,2019.07,631.27,2064.28,713.53,2081.85Z" transform="translate(-75.94 -60.87)"/><path class="m" d="M1438.37,817.56l-3.88,169.9c-1.41,61.92-2.82,124.08,4.59,185.56,4.57,37.89,12.46,75.32,17.19,113.19,10.66,85.4,5.14,171.89,6.79,257.94.13,6.9.42,14.19,4.11,20,5.75,9.12,17.69,11.74,28.4,13a323.25,323.25,0,0,0,69.67.69c51.51-5.1,19.21-101,17.56-130.12-5.24-92.82,1.28-190.31,9.09-283.17,6.36-75.67,13.31-150.65,24.72-225.73,3.56-23.45,6.88-48.66-3.74-69.87-9.3-18.56-27.74-30.7-46.3-40C1529.54,810.41,1477.81,804.9,1438.37,817.56Z" transform="translate(-75.94 -60.87)"/><path class="n" d="M2964.1,669.89a1086.31,1086.31,0,0,0,153.73-11.18c20-2.91,41.39-7.05,55.71-21.37,21.42-21.43,18.91-56.23,14.9-86.27-1.65-12.33-4-25.92-13.71-33.69-5.88-4.7-13.55-6.41-20.91-8l-95.47-20.45c-17.35-3.72-35.35-7.44-52.68-3.61-23.92,5.3-42.24,23.85-62.84,37.11-52.85,34-120.92,32.71-182.74,21.41a663.62,663.62,0,0,1-133.18-39.13c-13.14,9-17.58,32.95-10.69,47.34S2636.56,576.47,2650,585C2741.79,643,2856.23,657.83,2964.1,669.89Z" transform="translate(-75.94 -60.87)"/><path class="m" d="M1784.36,308.93c19.78-4.22,40-8.06,60.1-6.28,31.28,2.76,59.64,18.7,86.9,34.28,22.48,12.86,46.45,27.32,56.49,51.2,7.21,17.13,6,36.62,2.6,54.89-6.23,33.3-23.61,69.12-56.24,78.25-35.07,9.81-74.72-23.48-71.12-59.71,1.41-14.24,8.22-28.36,5-42.3-4.35-18.93-26.31-29.38-45.64-27.61s-36.52,12.55-52.88,23c-15.22,9.73-31.84,19.81-49.85,18.61-17.19-1.16-31.77-12.31-47.19-20-11.92-5.93-47.48-7.53-52.25-19.61-6.9-17.45,23.22-32.32,34.29-39.05C1694,330.66,1739.63,318.47,1784.36,308.93Z" transform="translate(-75.94 -60.87)"/><path class="o" d="M2959,680a510.23,510.23,0,0,0,200.08-37.12c11.1-4.49,22.26-9.53,31-17.72,28.26-26.56,20.08-73.25,4.69-108.84-2.49-5.78-5.41-11.83-10.76-15.15-9-5.62-20.62-1.27-31,1.2-48,11.41-96.26-22-145.41-18.3-42.17,3.17-77,32.6-115.23,50.62a223,223,0,0,1-86,21c-63,2.47-123.69-21.72-182.12-45.49-13.5,10.51-14.09,40.16-5.29,54.84,28.2,47.08,101.74,64.45,150.48,77.32,64.38,17,130.64,25.49,196.57,33.92L2953.9,678" transform="translate(-75.94 -60.87)"/><path class="p" d="M4139,333.43c21.81.93,44.29,3.17,63.45,13.64s34.28,31.09,32.11,52.81c-1.26,12.54-7.9,23.81-14.45,34.57-12.09,19.85-24.77,39.94-42.8,54.61s-42.63,23.24-64.92,16.65c-35.84-10.6-50.55-34-91.4-33.8l-69.77.27c-24.39.1-48.92.21-72.93,4.47-44.72,7.93-85.57,29.84-125.27,51.91-10.4,5.78-21.52,11.77-33.4,11.06-51.63-3.08-24.49-56.77-1.68-73.52,40.83-30,84.35-56.22,130.69-76.79C3939.47,349,4039.59,329.21,4139,333.43Z" transform="translate(-75.94 -60.87)"/><path class="q" d="M445.22,669.39c22.14,1.63,44,5.29,66.18,5.69,3.79.07,7.86-.22,10.82-2.58,6.7-5.32,3.06-16-1.36-23.34-24.19-40.1-57.05-76-70.94-120.69-5.22-16.83-7.56-34.4-9.64-51.9-4-34.17-7.15-68.64-4.61-103-24,28.68-25,69.46-24.88,106.82a377,377,0,0,1-41-155.23c-16.73,19.05-19.25,46.56-18.39,71.9a376.19,376.19,0,0,0,17.88,102.41c-4.39,4-10.62,1.3-15.61-1.91a433.08,433.08,0,0,0-101-47.89l61.47,77.83c8.85,11.21,17.8,22.58,23.49,35.68,1.11,2.55,2.11,5.38,1.39,8.07-1.12,4.26-5.87,6.3-10,7.71-26.23,8.82-53,16.28-78,28.29s-48.26,29.14-62.32,53a476.52,476.52,0,0,1,135.18-27.83c-12.91.74-37.53,24.11-47.59,32.08-11.19,8.87-35.54,26.74-37.14,41.51,33.74-7,65.74-23.25,100.39-29.61a474.36,474.36,0,0,1,87.07-7.79C432.84,668.64,439,668.94,445.22,669.39Z" transform="translate(-75.94 -60.87)"/><path class="r" d="M554.67,381.88a141.8,141.8,0,0,1,32.82-77c5-5.89,10.84-11.58,18.25-13.77s16.7.26,20.06,7.23c2,4.15,1.61,9,1.58,13.59-.17,26.28,13.78,52.34,36,66.37s52,15.33,75.16,2.86,38.5-38.38,37.85-64.66c-.27-11.18-2.76-23.9,4.58-32.34,5.12-5.88,13.56-7.58,21.36-7.67,17.56-.2,36.54,7.51,44,23.42-15.16-45.6-55.66-81.83-102.66-91.82-43-9.14-92.29-20.35-129.49,3-18.12,11.38-33,27.1-47.73,42.65-12.44,13.15-25,26.47-34,42.18-9.78,17.06-15,36.33-18.93,55.61-10.61,52.24-11.85,108.19,9.11,157.21,20.85,48.77,52.62,90.22,85.75,131.64,12.17,15.21,25.32,30.31,42.47,39.56-6.52-30-24.89-55.85-41.05-82C567.68,529.87,546.57,461.54,554.67,381.88Z" transform="translate(-75.94 -60.87)"/><path class="s" d="M725.61,851.82c-66.21-57.68-162.8-96.93-251.3-78.29-25.82,5.44-50.83,17.74-67.86,37.9,14.77-1.25,30.93-4.16,45.73-5,32.42-1.83,65.06-3.94,97.47-.8s62.51,14.4,93.15,24.44c1.55-1.07,4.25.72,6.07,1.21a323.17,323.17,0,0,1,52.51,19.2C708.9,854,717.57,853.87,725.61,851.82Z" transform="translate(-75.94 -60.87)"/><path class="r" d="M738.72,683.29c-1.19-27.13-6.43-67.67,8.32-92.14,33-54.7,83.27-71.63,144-70.25,59.13,1.35,110.87,51.94,131,105.9,2.54,6.8,4.68,14.14,3.21,21.25-3,14.69-19.08,21.86-31.66,30-30.43,19.82-34.87,49.6-49.81,79.8a7,7,0,0,1-2.3,3,6.29,6.29,0,0,1-4.37.42c-18.3-3.13-26.85-20.18-33.82-35-8.24-17.57-21.1-33.86-34.75-47.52l.1,2.19c-.53-11.51-35.51-28-44.26-32.75-17.24-9.31-35.66-13.38-54.32-4.66A55.82,55.82,0,0,0,738.61,691" transform="translate(-75.94 -60.87)"/><path class="r" d="M114,982.43c-1.52-22.86,7.13-45.11,16.94-65.82A542.43,542.43,0,0,1,239.05,763.88C267.23,736,300.93,714,339.38,704.26a85,85,0,0,0-7.15,51.12c6.09,35.12,35.83,71.84,62.21,94.68,17.19,14.88,36.66,26.86,56.82,37.26,10.11,5.21,20.44,10,30.81,14.63,9.12,4.09,15.08,11.1,24.24,14.66a447.28,447.28,0,0,0,92,24.83,153.62,153.62,0,0,0-30.57,19.34c-40.65,33.05-55.88,88.63-89,129.2-16.79,20.55-60,51.78-83.55,21.7-20.22-25.76-29.17-67.57-24.18-99.39,2.89-18.41,10.61-35,22-49.69s28-24.88,39.17-39.47c.85-1.1,1.7-2.42,1.39-3.78-.34-1.55-2-2.38-3.51-2.93-18.51-6.76-39.6-3.6-57.35,5C344.67,935,327,956.76,312.13,983c-3.09,5.47-7.15,10.3-11.19,15.11-7.2,8.56-14.57,17.28-24.08,23.17s-21.72,8.58-32,4.24c-15.6-6.57-29.94-14.58-44.52-23.19-8.66-5.13-17.46-10.31-27.17-13-6.68-1.84-13.63-2.44-20.54-3C139.41,985.19,127.14,983.57,114,982.43Z" transform="translate(-75.94 -60.87)"/><path class="r" d="M1080.21,1216.43c-8.12-32.82-16.3-65.81-29.7-96.85-6.34-14.68-13.81-28.84-21.27-43Q1008,1036.28,986.71,996c-22-41.66-32.08-84.46-46.92-129.17a9.61,9.61,0,0,0-2.53-4.56c-1.79-1.49-4.36-1.48-6.69-1.39l-52.91,1.91c-11.1.4-23.45-.6-34.56-.39-25.88.49-36.79,18.29-54.58,35.47-6.27,6.06-12.64,12.19-20.31,16.34-8.26,4.48-17.63,6.44-26.91,7.95a332.69,332.69,0,0,1-53.48,4.33c-.63,0-1.43-.12-1.61-.73s1.18-.77.9-.19c-.75,1.56-2.84,3.47-3.73,5,8.18,11,31.22,10,43.18,12,34.16,5.63,66.7,18.45,96.65,35.62a419.72,419.72,0,0,1,44.21,29.46c40.82,30.89,82,57,115.92,95.87,33.35,38.25,62,80.56,98.1,116.4" transform="translate(-75.94 -60.87)"/><path class="q" d="M1035.39,999.54c-1.75-3.65-3.49-8.12-1.28-11.51a12.85,12.85,0,0,1,4.39-3.56,77.67,77.67,0,0,0,35.48-51c5.39-27.84,34.8-49.71,60.75-61.13a104.83,104.83,0,0,1,27-7.3c11.94-1.77,25-2,35.16,4.43,16.32,10.33,18.8,32.71,19.6,52,.24,5.93.47,12-1,17.71-3.35,13.48-14.87,24.15-22.69,35.25-35.65,50.6-65.93,99.59-83.85,159.76-1.67,5.59-3.62,11.73-8.61,14.76-16.92,10.26-27.1-53.07-30.31-62.89A728.31,728.31,0,0,0,1035.39,999.54Z" transform="translate(-75.94 -60.87)"/><path class="q" d="M1077.48,1258.08c-4-7-9.58-13-15.11-18.88q-43.12-45.87-86.25-91.72c-23.5-25-50.56-51.22-81.33-67a13.34,13.34,0,0,0-5-1.76c-4.68-.35-8.31,3.8-11.12,7.56-12.95,17.34-26,34.8-35.64,54.15-7.39,14.78-12.85,30.84-14.27,47.37-1.14,13.36,1,28.11-8.32,39.34-4.2,5.08-10.29,8.17-16.17,11.15-26.7,13.55-53.47,28.32-73.92,50.18s-33.9,52.21-28.82,81.71c10.71,2.23,21.41-5.62,30-12.43a423.43,423.43,0,0,1,207.24-87.93C985,1263.72,1031,1254.57,1077.48,1258.08Z" transform="translate(-75.94 -60.87)"/><path class="q" d="M1200.67,1403.11c24.32-21.72,43.16-48.93,66.82-71.37a131.29,131.29,0,0,1,8.21,45.15c.25,74.92,5.14,149.83,2.61,224.77-2.55,75.47-17,145.67-43.25,216.49-6.93,18.65-13.44,36-22.17,53.87-10.29,21.09-23.38,43-45,52-1,.43-2.3,1.22-2,2.31s2.23-.52,1.11-.58c2.23-31.28,3.56-63.57,2.07-94.9-2.88-60.82-13-122.19-39.41-177.53-24.32-51-67.15-106.37-116.74-134.81-22-12.64-47.38-20.32-65.81-37.78,47.07-6.07,92.38-7.12,138.62-19.67C1127.4,1449.78,1168.14,1432.17,1200.67,1403.11Z" transform="translate(-75.94 -60.87)"/><path class="t" d="M398.65,1737.84a253.09,253.09,0,0,1,62.45-121.56c-.77,21.88.73,44.49,10.22,64.23,17.23,35.84,56.19,54.55,88.62,77.56,15.89,11.26,32.27,28.37,27.9,47.35-23.67-10.19-48.27-18.8-73.84-22s-52.3-.69-75.53,10.46a214.69,214.69,0,0,0-19.84,11.3c-17.34,10.71-20.1-2.28-22.52-19.27C393.83,1770,395.47,1753.57,398.65,1737.84Z" transform="translate(-75.94 -60.87)"/><path class="t" d="M737.21,2061.07c4.78-6.83,11.4-12.25,15.85-19.31,9-14.21,7.63-32.34,6-49.06l-3-30.36c30.45-2,59.28-13.87,87.47-25.55,21-8.68,42.69-17.88,57.88-34.76a159.25,159.25,0,0,1-15.36,88.41,181.91,181.91,0,0,1-26.21,38.73c-18.52,21.21-42.15,38.66-68.74,48.29C775.05,2083.28,712,2097,737.21,2061.07Z" transform="translate(-75.94 -60.87)"/><path class="t" d="M1445,676.89c9-42.42,19.38-85.21,40.31-123.19,7.78-14.11,17.35-27.82,31-36.37q-1.89,43.89,0,87.83c.81,19.27,2.24,38.89,9.46,56.77,6.23,15.39,16.47,28.77,26.58,41.94l41,53.43c21.19,27.58,43,56.46,49.85,90.55,4.16,20.65,2.51,42.17-2.39,62.66-4.82,20.15-15,41.76-34.69,48.25-9.5,3.14-19.8,2.19-29.75,1.12-26.77-2.88-54.92-7-76.08-23.67-9.3-7.32-16.76-16.74-23.38-26.56-18.72-27.72-37.92-65.76-43.85-99.18C1425.3,766.91,1435.93,719.42,1445,676.89Z" transform="translate(-75.94 -60.87)"/><path class="r" d="M935.7,495.86c0-.52-.93-.45-1,.07s.33,1,.72,1.33q16.41,15,34.28,28.39c17.52,13.1,36.74,25.93,58.49,23.49a68.09,68.09,0,0,0,52.19-9.31c10-6.57,20.18-11,24.87-21.93,8.45-19.76,8.55-42.44,3-63.2s-16.46-39.75-29.32-57c41.72-8.25,82.86-12.69,117.3-40.16,7-5.55,13.54-11.83,18-19.55,4.25-7.4,6.37-15.85,7.71-24.28a150.26,150.26,0,0,0-4.84-67c-6.25-20.57-20.56-36.17-28.38-54.94-21.05,19.43-45.26,36.64-71.84,47.6-26.78,11.05-56.94,15.39-85,8.36-8.08-2-16.85-.36-24.22-4.24a386,386,0,0,0-98-35.68c12.32,6.43,19.74,20,21.75,33.74s-.72,27.75-4.45,41.13c-13,46.64-39.09,90.21-76.93,120.42C869.71,441.21,903.33,467.72,935.7,495.86Z" transform="translate(-75.94 -60.87)"/><path class="t" d="M1419.36,1826.65a183.42,183.42,0,0,1,52.15-51.44c19.18-12.49,40.51-21.25,60.43-32.51s40.71-24.69,46.57-46.81c10.68-40.29,11.24-82.31,10.67-124,0-3.32-2.18-6.21-4.37-8.7a80.94,80.94,0,0,0-110.09-10.78c-6.36,4.88-12.36,11.57-12.45,19.58-.2,19.19.26,39.11-3.61,57.9l-14.62,71c-3.77,18.27-7.56,36.67-14.6,53.94-7.89,19.4-19.91,37.59-22.56,58.37-.56,4.33-.54,9.18,2.28,12.51S1416.93,1830.28,1419.36,1826.65Z" transform="translate(-75.94 -60.87)"/><path class="u" d="M4513.89,370.69c27.55,33.58,52.74,71,64.52,112.9,12.08,43,11.1,89.1,1.32,132.46-8.79,39-24.51,76-43.67,111-17.29,31.54-43.92,53-74.85,71.51-40.31,24.15-89.62,41.07-137,32.15-24.69-4.65-53.28-26.33-69.37-45.07-36.35-42.32-48.21-111.24-3.36-152.24,22.65-20.7,52.87-28.56,82.94-22.46-.5-1.26-2.86-.67-2.71.68a61,61,0,0,1,48.87,16.27c16.14,15.46,18.45,35.73,22.32,57.74,1.38,7.81,2.75,15.71,2.33,23.62s-2.82,16-8.14,21.87a4.22,4.22,0,0,0-1.31,2.16c-.13,1.18.81,2.18,1.73,2.93,5.71,4.59,13.42,6.1,20.74,5.63s14.38-2.72,21.36-4.95c46.53-14.92,75.54-61.13,88.72-105.83,11.51-39.06,13.13-81.76.71-120.81-10.3-32.42-22.46-58.55-42.74-86.14a485.78,485.78,0,0,0-61.93-68.71c-35.69-33-77.06-52.84-122.22-69.93-59.59-22.57-116.77-30.12-180.39-29.72-65.47.41-131.49-3.71-195.25,15.89-52.69,16.19-102.31,40.75-151.1,66.07-73.2,38-136.36,101-197.19,156-25.42,23-50.93,46-73.62,71.76-10.45,11.84-19.44,24.67-30.88,35.24-12.66,11.71-25.13,23.65-37.48,35.69-7.68,7.5-33.62,25.15-34.92,36.13-1.09,9.23,10.59,14.19,19.85,15.06a135.47,135.47,0,0,0,81.42-18.4c5.08-3,10.23-6.73,12.42-12.22,4.51-11.34-5.26-22.72-12.41-32.61-1.69-2.33-3.33-4.95-3.3-7.84.06-6.6,8.05-9.77,14.57-10.82,30.1-4.82,56.68,3.39,86,11.6,15,4.2,26.78,16.77,32.59,31.23s6.22,30.63,4,46.06c-1.15,8-3.07,16.16-7.7,22.8-4.46,6.4-11.07,10.9-17,16-31.36,26.63-45.39,68.18-38.73,107.76.48,2.85,1.48,5.66,4.36,5.45a1.78,1.78,0,0,1-1.66-.33c-11.38-9.59-25-16.22-38.85-21.58a430,430,0,0,0-42.14-13.3c-23.93-6.51-48.53-12.31-73.27-10.68-13.91.92-27.54,4.17-41.09,7.4l-76,18.14c-21.43,5.12-42.91,4.68-65,6.37l-156,11.92c-8.51.65-18.23.88-24.18-5.24l72.24-8.93c81.1-10,162.81-20.17,240.43-45.7,14.86-4.89,30.48-11,39.43-23.86,2.85-4.08,4.78-9.94,1.61-13.79-2.94-3.57-8.43-3.22-13-2.36-25.92,4.87-50.33,15.72-75.91,22.18-25.92,6.55-52.76,8.51-79.43,10.45-26,1.89-50,2.31-75.78,6.53a1021.15,1021.15,0,0,1-209.06,12.49,1022.61,1022.61,0,0,1-104.39-9.86c-30.64-4.49-59.81-13.85-90.1-20.67a522.74,522.74,0,0,1-92.58-30.09c-110.39-47.69-211.25-122.15-304.72-196.68-65.46-52.2-127.73-108.31-188.48-165.89-10.77-10.21-21.49-20.53-33.33-29.47-2.77-2.09-6.15-4.21-9.48-3.22-5.4,1.59-5.49,9.22-3.91,14.62,4.16,14.25,13.45,25.56,19.34,38.8,7.22,16.22,11.8,32.79,15.15,50.2C2180.89,514.15,2187,585,2171,655.36c-10.07,44.29-29.56,80.82-59.18,115.33a384.84,384.84,0,0,1-63.55,59c-46.48,34.27-101.11,58.07-158.56,65.53-78.29,10.16-144.64-18.47-203.75-67.66-54.26-45.16-101.94-102-120.35-171.48-18.21-68.71-32.56-145,13.67-206.28,3.34-4.43,7.11-8.82,12.18-11.09,9.83-4.39,27.09,2.16,37.88,1.71,14-.59,28.57-3.94,42.19,1.21,12.24,4.63,21.07,15.47,27.62,26.81,11.3,19.52,17.43,41.43,21.84,63.41,1.8,9,3.59,46.24,23.15,37.26,7.57-3.47,5.77-14.5,3.57-22.54-7-25.42-4.82-53.85,8.83-76.4a77.43,77.43,0,0,1,35.22-30.76c10.08-4.34,32.31-10.75,42.52-4.31,6.59,4.16,7.15,13.36,7.27,21.15.41,25.67,4.42,52.34,18.92,73.53s41.6,35.12,66.25,27.92a67.27,67.27,0,0,0,16.16,107.41c49.19,25.71,100.13-11.6,121.31-54.85,21.77-44.44,28-96.4,26.67-145.39-3.68-135.76-137-243.82-267-251.67-54.18-3.28-100.61,13.22-149.82,33.95a450.8,450.8,0,0,0-92,52.6c-56.74,41.8-104,95.89-140.23,156.2-42,69.92-59.43,148-77.56,226.71-20.8,90.26-16,184.31-16.56,276.46-1,164,21.75,325.3,32,488.63,4.95,78.55-2.54,157.49-5.67,236-1.72,43.42-12.85,85.8-27.69,126.45-7.65,21-16.32,41.52-25.32,61.92-6.26,14.21-19.66,34.71-18.12,50.94a8.21,8.21,0,0,0,1.77,4.77c2.63,3,7.4,2.17,11.15.86,11.3-4,20.32-11.43,31-16.31,12-5.46,24.73-9.68,37.11-14.14,25-9,50.32-17.11,75.86-24.47a700.29,700.29,0,0,1,159.14-26.43c9.17-.45,19-.93,26.35-6.38s10.89-18,2.84-22.37a99.06,99.06,0,0,0-54.59-11.72c-5.59.42-13.34-.29-13.88-5.87a10,10,0,0,1,1.15-4.82A141.55,141.55,0,0,1,1625,1740c40.39-30.58,91-33,141.13-40.31,71.34-10.36,147.54-14.43,212.17,17.51,32.65,16.14,63.76,40.55,83.74,71.32,8.52,13.12,15.35,27.93,15.81,43.57a58,58,0,0,1-16.61,42,16.61,16.61,0,0,1-5.84,4.18c-6.09,2.24-12.48-1.92-17.75-5.71A312.89,312.89,0,0,0,1929.14,1823c-16.59-4-103.14-23.43-110.39.27-2.15,7,7.75,11.06,15.06,12a224.48,224.48,0,0,1,47.07,11.1c9.48,3.35,18.79,7.36,27.22,12.85,36.19,23.61,49.94,76,30,114.36-7.72,14.84-19.45,27.13-31,39.19-13.12,13.68-25.4,28-39,41.14a171,171,0,0,0-47.17,83.14c-13.8-23.51-38-33.65-61.93-46.75a338.75,338.75,0,0,0-76.49-30.48c-31-8.16-46.48-35.2-27.85-64.63,5-7.89,12.49-15.17,12.61-24.51.09-6.89-4-13.11-8.5-18.34a94.84,94.84,0,0,0-90.85-30.59c-39.69,8.5-79.22,17.75-118.46,28.16-76.75,20.37-152.4,45.28-225.16,77.21L979.05,2134.66c-61.06,26.79-129.86,38.21-196.83,36.25-68.85-2-143.25-14.08-209.24-33.56-107.69-31.78-186.24-108.69-241.25-204.55-12.57-21.91-24.87-43.12-27.22-68.28-2.8-29.91-11-58.71-12.15-89-2.81-71.27,12-145.5,51.13-206,14.5-22.43,32.88-45.66,52.9-63.46,16.84-15,40.94-24.94,62.39-31.89,45.59-14.78,95.89-15.11,140.94,1.87,34.3,12.94,77.09,36,101,64.25,16.94,20.06,26,48.4,17.52,73.25-7.59,22.36-29,39-52.39,42.23s-47.84-6.25-64-23.45-24.16-41.42-23-65a97.7,97.7,0,0,1,19.18-53.2c-13.9-14.83-36.28-22.8-56.6-22.06-64.5,2.35-129.68,34.56-169.71,85.36-86.85,110.19-52,272.78,12.2,384.45,24.8,43.13,61.74,78.64,103.73,104.92,49.46,31,105.82,49.65,163.1,60.74,120.47,23.34,264.28-5.79,330.18-119.08,13.14-22.58,19.18-47.91,21.85-73.85,5.41-52.39-13.49-120.76-73-132.28-2.92-.57-6-.94-8.76.25-3.87,1.7-5.84,6.21-5.93,10.44s1.28,8.33,2.32,12.42a80.38,80.38,0,0,1,2.33,24.62c-.67,10.92-5.25,16.33-13.24,23.8A162,162,0,0,1,847.36,1909c-21.24,7.07-38.16,6.71-58.68-1.3-52.86-20.64-71.57-89.35-67.93-140.86,3.41-48.45,36.07-88.59,85.52-95.28,18.22-2.46,39.11-.72,52.32-13.52a7.37,7.37,0,0,0,2.48-4c.31-2.28-1.3-4.34-2.9-6-27.15-28.5-63.12-42.28-65.46-87.41-2.42-46.8,31.1-72.55,75.28-70.78,93.36,3.73,173.73,87.4,219.89,162,34.07,55,48,113.48,46.45,178.15-1.37,55.16-12.17,109.54-4.28,164.26,1.31,9.09,3.76,19.72,12.25,23.22,3.51,1.45,7.46,1.34,11.2.75,31.36-4.87,53.83-37.38,74-59a447,447,0,0,0,59.58-80.29c81.79-140.56,71.07-303.87,62.37-459.77-8.49-152.17-18-304.61-29.89-456.56-3.49-44.35-2.72-88.92-.35-133.31,2.24-41.82,1.87-83.44,6.54-125.1,17.25-153.64,79-311.86,196.08-416.37a504.83,504.83,0,0,1,60.07-46c63.37-41.38,137.79-63.44,213-68.47a538,538,0,0,1,113.42,4.62,563.68,563.68,0,0,1,55.68,11c13.16,3.29,25.5,9.2,37.49,15.43,12.91,6.71,26.18,10.79,40.34,15.16,28.32,8.78,57.74,16,85.5,26.37,25.37,9.5,52,10.18,79.18,12.85,33,3.25,69.48,5.61,96.09-14.2,9.8-7.29,17.91-20.74,11.7-31.25-2.24-3.8-6-6.45-9.82-8.67-11.64-6.78-23.82-8.82-36.57-11.71,23.61-13.34,52.59-5.51,78.2-7,28.88-1.67,50.83-10.64,74.67-27-5.49,3.76,1.44,28.47,3.11,33.35,3.35,9.75,9.81,16.38,15.24,24.93,13.84,21.76,27.23,43.28,43.53,63.37,7.79,9.59,16,19,21.34,30.19,16.28,34.3-1.08,70-29.79,90.8-15.89,11.49-34.37,18.88-53.06,24.83s-38.59,10.56-57.72,6.34c-1.27.81-.78.88-1.83-.19-4.88-14.51-.77-30.57-3.7-45.59-6.48-33.12-37.21-48.38-67.8-53.47-15.71-2.61-31.77-2.92-47.64-2-7.12.39-22.8-.1-27.66,6.44-7.6,10.23,8.88,21.7,15,28.77,54.4,63.12,119.32,116,185.13,166.71,31.58,24.31,60.58,49,94.77,70.22,45.23,28.08,93.44,49.33,140.57,73.35,71.08,36.21,148.54,60.8,227.94,69.47,20.43,2.23,41.21,3.25,61.54,6.14,18.16,2.58,36.73.52,55.29.93,60.88,1.32,131.52-4.29,186.75-31.25,75.54-36.86,139.77-91.27,172-170.68,19.9-49,21.1-94.72,4.23-144.4-18.83-55.47-54-112.78-105.25-143.61-18.56-11.17-39.67-18.58-61.35-20.16-13-.94-43.27-2.06-46.33,15.47-1.94,11.09,7.37,18.2,12.21,26.74,6.1,10.78,9.28,24,10.79,36.22,3,24.37-1.63,49.82-14.08,71.08-4.68,8-10.59,15.63-18.67,20.19-44.68,25.16-117.18-10.05-130.67-56.59C2993.5,318,3003.28,269,3032,240.14c9.16-9.19,20.6-15.73,32.14-21.67,40.55-20.86,87-35.77,131.5-25.79,1.23.27,2.59.68,3.16,1.79s-.62,2.86-1.7,2.23c10.33,6,28.28,6.53,40,10.46a217.45,217.45,0,0,1,40.3,18.08c25.52,14.9,46.34,37.95,65.83,59.8,19,21.3,36.56,40.06,47,67.46,28.11,74.1,32.24,177.41-18.27,243.47-5.88,7.68-12.52,14.86-17.17,23.34-2.25,4.11-4,9.24-1.71,13.34,13.42,24.26,64.4-32.48,73-41,58.68-58.24,120.25-113,182.78-166.94q40.62-35.06,83.47-67.39c26.25-19.79,52.75-42.5,81.32-58.33A689.9,689.9,0,0,1,3969,226.7c77.89-16,158.5-23.94,237.75-14.2,79.67,9.8,154.76,41.69,224.46,79.93C4462.8,309.74,4491.36,343.23,4513.89,370.69Z" transform="translate(-75.94 -60.87)"/><path class="u" d="M3635,757.59c-5.88,5.23-12.4,9.93-16.9,16.38-5.63,8.07-7.55,18.09-9.11,27.81q-3.3,20.69-5.2,41.56c-.37,4.12-.69,8.39.65,12.3,2,5.79,7.28,9.86,12.88,12.3,14,6.14,30.76,3.84,44.33-3.28s24.38-18.59,33.59-30.84c10-13.31,18.51-27.91,23.72-43.73,14.59-44.27-1.32-113.39-46.51-135.72-2.4,5.85.05,14.54-.07,21.2a114.42,114.42,0,0,1-37.38,82Z" transform="translate(-75.94 -60.87)"/><path class="q" d="M2489.73,747.22a133.35,133.35,0,0,0-83.79-32.71c-9.09-.22-18.47.56-26.64,4.55-15.05,7.34-23.11,23.86-28.61,39.68a274.52,274.52,0,0,0-8.58,30c-4.07-20.43-9.76-41.8-24.68-56.34-16.79-16.35-44.24-20.51-65.12-9.86-18.15,9.26-29.82,27.36-45.11,40.83q3-13,5-26.31c1.07-7.16,1.73-15.09-2.39-21s-14.93-7.12-17.82-.49c15.28-35,20.41-77.8,22.25-115.61,2-41.24-6-79.32-10.33-119.76,21.89-11.18,42.46,20.15,54.24,33.8,14.24,16.5,26.69,35,41.37,51,11.64,12.71,26.14,22.54,38.15,35.39,30.52,32.65,62.5,64.06,98,91.35C2452.66,704.83,2486.71,723.63,2489.73,747.22Z" transform="translate(-75.94 -60.87)"/><path class="u" d="M2478.49,233l36.92,55.08c8.72,13,17.64,26.49,20.51,41.89,2.62,14.05,0,28.49.34,42.77.06,2.18.28,4.56,1.82,6.1,2.48,2.47,6.67,1.29,9.81-.26,18.55-9.15,32.77-25.77,41.55-44.5s12.45-39.51,13.53-60.17a168.47,168.47,0,0,0-.85-30.38c-5-38.6-29.75-73.5-63.19-92.92-24.7-14.34-83.51-34-88,9.81C2448.17,187.44,2464.15,211.6,2478.49,233Z" transform="translate(-75.94 -60.87)"/><path class="q" d="M3495.08,451.61A1384.65,1384.65,0,0,1,3647.76,325c14.53-10.39,31.62-21.2,41.66-36.39,8.94-13.53,9.76-32.05,16.66-47,23.87-51.82,96.59-63.06,127.06-111.29a173.59,173.59,0,0,0-70.66,27.46c-33.41,22.46-59.1,56.58-96.13,72.36-11.6,4.94-25.92,7.59-36.13.19-8.29-6-11.35-16.92-12.17-27.12a94.12,94.12,0,0,1,11.51-53c-31.61,19.76-54.11,50.84-76.71,80.49-4.18,5.48-8.75,11.2-15.24,13.53-7.3,2.61-15.71.2-21.8-4.6s-10.2-11.66-13.48-18.69c-9.5-20.38-14.17-44.75-32-58.38-7,15.33-23,24.1-38.27,31.21-5.94,2.76-12.75,6.53-13.46,13.05,9.51,13.52,20,26,29,39.94,20,30.93,25.42,68.73,30.41,105.22,5.21,38.14,3.26,73.62.85,112C3485.73,458.71,3488.78,457.64,3495.08,451.61Z" transform="translate(-75.94 -60.87)"/><path class="t" d="M3661,585c8.18-2.09,15-7.51,21.64-12.78l32-25.57c2.22-1.78,4.52-3.66,5.66-6.26,1.23-2.82.91-6,.57-9.09q-1.7-15.06-3.38-30.13c-1.24-11-4-24.16-14.39-28.08-7.58-2.86-15.94.66-23.15,4.36-31.41,16.1-75.42,40.36-93.64,72-8.45,14.65-4.48,25.93,12.55,29.76,10.69,2.41,22.16,1.64,33,3.73C3641.5,584.72,3651.17,587.47,3661,585Z" transform="translate(-75.94 -60.87)"/><path class="t" d="M4425.63,573c-16.71-26.82-46.67-43.42-77.64-49.67s-63.08-3.18-94.2,2.29c-14.66,2.57-30,6.06-41,16.16-6.46,6-13.87,14.78-22,11.42-2.81-1.16-4.83-3.62-6.75-6-13.62-16.69-28.24-32.66-49.77-33.13-6.87-14-4.71-30.63-1.33-45.85a338,338,0,0,1,38.29-97.54c22.19-37.87,72.21-25.08,106-13.92,46.55,15.39,91.78,45.6,121.45,84.92,28.87,38.24,43.19,89.18,30.52,135.39" transform="translate(-75.94 -60.87)"/><path class="t" d="M3965.62,415.89c2.56,8.63,11,16.11,19.86,14.75,7.69-1.18,13.06-8.13,16.93-14.88,2-3.47,3.85-7.19,4-11.19C4007.21,371.61,3955.16,380.66,3965.62,415.89Z" transform="translate(-75.94 -60.87)"/><path class="t" d="M4068.61,383.31c-6.47,1.69-10.53,8.27-12.1,14.78-2.42,10,.65,22.32,10,26.73,10,4.76,23.21-3.13,25.17-14.07s-6.11-22.21-16.72-25.49c-3.2-1-6.74-1.34-9.84-.07s-5.54,4.48-5.11,7.8" transform="translate(-75.94 -60.87)"/><path class="t" d="M3834.78,413.31a21.41,21.41,0,0,0-14.11,15.33,25.44,25.44,0,0,0,4.39,20.65,20.42,20.42,0,0,0,4.7,4.76c8.1,5.7,20.63,2.07,25.61-6.49s2.7-20.22-4.13-27.39c-3-3.14-6.9-5.6-11.22-6.06s-9,1.38-11.21,5.11" transform="translate(-75.94 -60.87)"/><path class="t" d="M3773,454.86c-8-.19-14,7.59-16,15.3-1.59,6-1.56,12.7,1.33,18.22s9,9.54,15.22,8.79a18.63,18.63,0,0,0,8.17-3.42c6.56-4.54,11.4-11.93,11.65-19.9s-4.78-16.17-12.41-18.46-17,2.62-18.43,10.46" transform="translate(-75.94 -60.87)"/><path class="r" d="M3779.08,840.83c4.88,5.27,13.16,8,19.47,4.59,3.75-2,6.2-5.75,8.5-9.33,2.49-3.88,5-7.89,5.87-12.42,1.65-8.81-4.09-18.12-12.36-21.59C3771.75,790,3761.74,822.05,3779.08,840.83Z" transform="translate(-75.94 -60.87)"/><path class="r" d="M3869.38,765.55c-7.46,2.44-12.49,10.32-12.44,18.17s4.69,15.3,11.23,19.64a20.74,20.74,0,0,0,10,3.63c11,.74,20.23-11,18.69-21.9s-11.8-19.25-22.7-20.67c-3.57-.46-7.6-.15-10.15,2.39-3.18,3.16-2.83,8.32-2.24,12.76" transform="translate(-75.94 -60.87)"/><path class="r" d="M3929.34,717.87a22.9,22.9,0,0,0-2.84,36.22c6.08,5.47,15.85,7.15,22.62,2.56a19.82,19.82,0,0,0,6.56-8c2.78-5.87,3.33-13,.68-18.89s-8.71-10.42-15.21-10.44-12.88,4.94-13.78,11.38" transform="translate(-75.94 -60.87)"/><path class="r" d="M4003.44,724.4a18.7,18.7,0,0,0,4.44-2.18c5-3.35,8.49-9,10.66-14.77a26.83,26.83,0,0,0,2.05-11.93c-1.85-18.82-25.89-12.43-35.18-3.75C3970.94,705.29,3982.71,731.21,4003.44,724.4Z" transform="translate(-75.94 -60.87)"/><path class="r" d="M4046.05,631c-1.56-1.62-4.31-.43-6,1.08A22.27,22.27,0,1,0,4076.6,654a16.39,16.39,0,0,0,.23-7.53,17.88,17.88,0,0,0-3.65-7.08c-4.59-5.76-11.8-9.69-19.16-9.24s-14.45,5.88-15.76,13.14" transform="translate(-75.94 -60.87)"/><path class="r" d="M4112.94,578.83c-12.68,5.12-19.93,20.84-15.59,33.81.72,2.15,1.81,4.33,3.75,5.52a9.53,9.53,0,0,0,5.45,1.08,22.87,22.87,0,0,0,17.19-36.67c-1.39-1.83-3.27-3.55-5.57-3.68-1.83-.1-3.54.83-5.13,1.73-6.27,3.56-13.46,9.1-12.05,16.17" transform="translate(-75.94 -60.87)"/><path class="t" d="M2897.34,649.85c4.62.55,9.3-.57,13.62-2.29a40.63,40.63,0,0,0,18.61-14.24c4.33-6.3,6.39-13.88,7.75-21.41,1-5.73,1.7-11.63.56-17.34-4.29-21.27-43.59-25.11-55.07-8.06S2870.62,646.63,2897.34,649.85Z" transform="translate(-75.94 -60.87)"/><path class="t" d="M2994.65,641.16c6.35-1.08,11.92-5.35,15.35-10.81,10.41-16.57-6.84-43.93-26.29-32.27C2967.05,608.06,2971.47,645.08,2994.65,641.16Z" transform="translate(-75.94 -60.87)"/><path class="t" d="M3049.45,621.59a15.36,15.36,0,0,0,5.65,5.16c4.57,2.18,9.54.66,13.87-2.3a33.46,33.46,0,0,0,6.54-6c11.34-13.45,10.82-38.22-11.87-34.77C3044.72,586.56,3039,607,3049.45,621.59Z" transform="translate(-75.94 -60.87)"/><path class="t" d="M2813.62,635.44c7.47,3.73,16.18-2.54,20.77-9.51,9.37-14.24-.25-38.54-19.92-30.48C2800.74,601.08,2800.59,628.93,2813.62,635.44Z" transform="translate(-75.94 -60.87)"/><path class="t" d="M2758.06,570.64c-9.35,2.18-13.45,13.59-12.6,23.14.44,5,1.84,9.94,4.9,13.85s8,6.56,12.92,6c4.1-.44,7.73-3,10.48-6,5.33-5.94,7.94-14.6,5.53-22.21S2768.93,572,2761,573.12c-4.7.67-9.4,4.58-8.9,9.3" transform="translate(-75.94 -60.87)"/><path class="r" d="M2648.53,206c1.74,6.62,4.67,13.42,10.42,17.15a18,18,0,0,0,13.44,2.26,19.65,19.65,0,0,0,8.71-4.16c6.07-5.12,8.79-13.62,7.72-21.49C2685,171.74,2640.6,175.8,2648.53,206Z" transform="translate(-75.94 -60.87)"/><path class="r" d="M2699.19,255.53l-1.67,2.17c-2.8-11.54,5.48-24.56,17.11-26.93,7.23-1.47,14.33,8.31,17.42,15a25.43,25.43,0,0,1-.2,21.39c-3,6.21-9.48,11.31-16.32,10.43-3.61-.46-6.84-2.48-9.7-4.74-4.3-3.39-8.37-8.25-7.67-13.67C2698.54,260.16,2698.8,254.54,2699.19,255.53Z" transform="translate(-75.94 -60.87)"/><path class="r" d="M2746.25,281c-3.14,3.79-4.95,8.5-6.33,13.22-1.64,5.61-2.76,11.56-1.67,17.3s4.75,11.29,10.25,13.26c15.55,5.58,29.28-16.24,30.33-29.24.94-11.72-9.43-23.11-21.19-23.28C2754,272.23,2748.46,278.35,2746.25,281Z" transform="translate(-75.94 -60.87)"/><path class="r" d="M2804.07,353.13c16.95,4.9,23.52-21,21.09-32.53-1-4.81-3-10-7.41-12.13-3.47-1.68-7.67-1-11.17.58-11.25,5.19-16.06,20.12-13.31,31.69C2794.6,346.33,2798.55,351.54,2804.07,353.13Z" transform="translate(-75.94 -60.87)"/><path class="r" d="M2852.65,374.77c8.08,2.11,22.17-3.61,22.72-13.21a46.28,46.28,0,0,0-3.06-19.38c-1.22-3.14-2.9-6.27-5.67-8.17-5-3.45-12.28-1.67-16.82,2.42-5,4.51-10.74,14-10.7,20.94A18.6,18.6,0,0,0,2852.65,374.77Z" transform="translate(-75.94 -60.87)"/><path class="t" d="M3177.06,618.19c3.15,3.47,7.05,7,11.73,6.89,3.08-.06,5.88-1.71,8.52-3.31,24.17-14.65,48.73-30.57,64.3-54.16,8.55-13,14-27.72,18.55-42.57,5.37-17.48,9.62-35.38,11.08-53.61,4-50.11-14.34-101.59-49.13-137.86,5,18.91,1.26,38.91-2.53,58.11-6,30.71-13.68,64.11-38.28,83.47-13.25,10.42-30.63,14.39-43.69,24.82-10.52,8.41-11,20.5-11.36,33.69C3145.46,564.33,3156.36,595.42,3177.06,618.19Z" transform="translate(-75.94 -60.87)"/><path class="t" d="M2598.81,572.65c12.74,7.33,29.06,14.29,41.29,6.13,6.11-4.07,9.53-11.07,12.11-17.94,4.25-11.34,6.95-24,3.06-35.47-4.29-12.65-15.81-21.49-27.76-27.47s-24.91-9.93-36.22-17c-12.94-8.13-23.18-20.09-36.31-27.9-17.45-10.38-39.26-12.57-58.85-7.23-9,2.44-44,15.91-42.36,28.68,1.13,9,25.43,14.49,32.07,19C2524.07,519.59,2558.32,549.35,2598.81,572.65Z" transform="translate(-75.94 -60.87)"/><path class="r" d="M1747.47,953.17c-15.27,14.93-1.76,30.67,15.28,32.32a34.91,34.91,0,0,0,12.57-.56,21.74,21.74,0,0,0,15.59-19.84C1791.52,941.16,1760.3,940.62,1747.47,953.17Z" transform="translate(-75.94 -60.87)"/><path class="r" d="M1806.43,1039.87c27.77,9.83,40.51-26.53,15.7-39.58a22.71,22.71,0,0,0-24.69,2.77C1783.7,1014.82,1790.72,1034.31,1806.43,1039.87Z" transform="translate(-75.94 -60.87)"/><path class="r" d="M1882.27,1092.08c14.67-5,12.92-24.42,2.1-32.26-7.15-5.18-17.75-5.11-24.66.37-16.33,12.94-3.75,27.56,11.34,31.33C1874.74,1092.44,1878.67,1093.31,1882.27,1092.08Z" transform="translate(-75.94 -60.87)"/><path class="r" d="M1934.18,1135.44c10.69-12.26-3.33-28.9-16.89-30.15a16.83,16.83,0,0,0-16.79,10.46C1892.73,1136.14,1920.18,1151.5,1934.18,1135.44Z" transform="translate(-75.94 -60.87)"/><path class="r" d="M1808.43,1423.59c19.14-15.22-1.94-42.07-22.46-36a25.73,25.73,0,0,0-17.63,19.94c-1.71,10.12,4.75,17.09,14.19,19.22C1791.31,1428.78,1801.38,1429.19,1808.43,1423.59Z" transform="translate(-75.94 -60.87)"/><path class="r" d="M1853.2,1498.29c24-19.87-16.59-44.81-33.21-26.64-11.89,13-.63,28.56,13.72,31.25C1840.49,1504.17,1847.89,1502.68,1853.2,1498.29Z" transform="translate(-75.94 -60.87)"/><path class="r" d="M1904.57,1550.68c-1.7-13.76-21.06-25.38-34-19.36-30.74,14.35-2.61,57.5,25.77,38A20.08,20.08,0,0,0,1904.57,1550.68Z" transform="translate(-75.94 -60.87)"/><path class="r" d="M1942.73,1607.3c-3.25-18.15-30.46-19.58-36.46-2.68a20.25,20.25,0,0,0,4.36,20.32C1925.43,1640.38,1946.31,1627.26,1942.73,1607.3Z" transform="translate(-75.94 -60.87)"/><path class="t" d="M1538.49,1267.45c9.29-3.63,16-11.3,15.16-24.35a14,14,0,0,0-1.17-5.11,16,16,0,0,0-3.71-4.71c-12.44-11.6-41-15.13-52.42,0-10.84,14.37,4.78,34.1,19.72,36.26C1523.63,1270.61,1531.74,1270.09,1538.49,1267.45Z" transform="translate(-75.94 -60.87)"/><path class="t" d="M1507.8,1151.09c.89,14.34,21.39,19.42,28.54,7.08,6.8-11.74-2.49-24.25-15.3-21.31C1511.21,1139.11,1507.44,1145.15,1507.8,1151.09Z" transform="translate(-75.94 -60.87)"/><path class="t" d="M1507.78,1083.43c1.73,14.38,27.22,16.18,27.13-1.08C1534.8,1061.4,1505.26,1062.49,1507.78,1083.43Z" transform="translate(-75.94 -60.87)"/><path class="t" d="M1538.35,1018.65c7.22-6.7,1.86-15.71-3-21.72-3.06-3.8-8.06-6.45-12.81-5.35a12.61,12.61,0,0,0-7.73,6.17c-4.81,8.27-.81,21.51,8.65,24.59C1528.46,1024,1534.61,1022.13,1538.35,1018.65Z" transform="translate(-75.94 -60.87)"/><path class="t" d="M1523.76,1345.53c15.62,2.06,37.94-14.14,18.38-28.08-7.06-5-17-4.44-24.73-.55-4.5,2.26-8.64,5.76-10.34,10.49C1503,1338.79,1514.67,1344.33,1523.76,1345.53Z" transform="translate(-75.94 -60.87)"/><path class="t" d="M1509.56,1399.06c-18.84,23.24,28.52,42.35,34.41,17.68,1.62-6.8,2.55-14.73-1.89-20.13-3-3.65-7.88-5.27-12.59-5.57C1522.06,1390.58,1514.24,1393.28,1509.56,1399.06Z" transform="translate(-75.94 -60.87)"/><path class="t" d="M1533.67,1491.37c23.55-5.12,7.32-31.95-9.48-31.61a15.52,15.52,0,0,0-14.38,11.72C1506.54,1485.78,1521.7,1494,1533.67,1491.37Z" transform="translate(-75.94 -60.87)"/><path class="t" d="M559.53,1970.16c8.79,7.84,22.21,7.34,33.58,4.3,8.08-2.17,16.06-5.5,22.13-11.25,23.65-22.41-7.63-53.72-33.53-49.27C559.88,1917.7,540.45,1953.14,559.53,1970.16Z" transform="translate(-75.94 -60.87)"/><path class="t" d="M536.23,1857.13a28.6,28.6,0,0,0-22.14,15c-1.79,3.47-2.81,7.76-1,11.2a12.24,12.24,0,0,0,5.86,4.9c11.47,5.4,26.42,2,34.47-7.77a18,18,0,0,0,4.06-8.11c1.09-6.1-2.63-12.53-8.19-15.26s-12.5-1.94-17.74,1.36" transform="translate(-75.94 -60.87)"/><path class="t" d="M495.23,1813.57c-9.76-1.69-19.1,6.47-22,15.92-1.45,4.67-1.66,10,.84,14.2,3.36,5.65,11,7.74,17.35,6.22s11.73-6,16.09-10.9c3.74-4.22,7.12-9.75,5.65-15.19-2.05-7.59-11.68-9.76-19.54-10a8.17,8.17,0,0,0-4.5.76c-1.32.79-2.11,2.68-1.21,3.93" transform="translate(-75.94 -60.87)"/><path class="t" d="M630.43,1987.68a22.8,22.8,0,0,0,.35,9.52c2.34,8.5,11.25,14.34,20.07,14.21s17.08-5.58,21.77-13.05c6-9.64,6-23.39-1.76-31.69C656.25,1951.08,633,1971.63,630.43,1987.68Z" transform="translate(-75.94 -60.87)"/><path class="t" d="M715.8,1994.27a28.06,28.06,0,0,0-23.07,21.92c-.93,4.83-.38,10.25,2.85,14a14.9,14.9,0,0,0,7.23,4.33c9.3,2.65,19.43-1.66,26.42-8.34,2.84-2.71,5.37-6,6.27-9.76,1.7-7.28-3-14.67-8.88-19.27-2.41-1.88-5.22-3.53-8.28-3.57s-6.32,2-6.68,5.07" transform="translate(-75.94 -60.87)"/><path class="u" d="M1873.12,2118.75c9.56-22.44,19.29-45.17,34.25-64.43,26.63-34.27,70.3-59.09,78-101.8,2.43-13.42-3.68-36.75,2.79-48.51,7.52-13.65,20-.31,29.75,8.13,45.16,39.32,44,88,37.26,142.78-6.11,50.06-18.74,103.33-48.65,144.66-17.39,24-39.27,44.26-62.92,62-19.84,14.88-40.69,35.26-63.38,45.07-7.57,3.28-16,5.63-24,3.9-10.67-2.28-18.86-11.51-22.54-21.78s-3.56-21.5-2.65-32.38C1835,2208.44,1854.45,2162.55,1873.12,2118.75Z" transform="translate(-75.94 -60.87)"/><polygon class="a" points="2306.66 3051.18 2306.66 1243.11 2679.87 1232.73 3273.55 2141.95 3047.37 2363.79 3339.78 3051.18 3014.06 3051.18 2735.09 2264.77 2875.99 2085.78 2603.41 1695.1 2601.8 3041.66 2306.66 3051.18"/><polygon class="a" points="2613.11 962.08 2987.59 958.83 3342.62 1501.54 3698.66 963.21 4079.41 963.21 4079.41 3207.11 3716.22 2632.71 3684.2 1513.43 3346.26 2058.31 2613.11 962.08"/></svg>