<svg xmlns="http://www.w3.org/2000/svg" viewBox="0 0 2624.62 2079.83"><defs><style>.a{fill:#efe7f0;}.b{fill:#df6985;}.c{fill:#41c2c6;}.d{fill:#42c1c7;}.e{fill:#df6887;}.f{fill:#e06987;}.g{fill:#d96d8c;}.h{fill:#42c2c6;}.i{fill:#43c2c4;}.j{fill:#41c2c7;}.k{fill:#df6b86;}.l{fill:#fcbb61;}.m{fill:#f1bf47;}.n{fill:none;}.o{fill:#f1bf43;}.p{fill:#f1bf44;}.q{fill:#ba2636;}.r{fill:#005550;}.s{fill:#005551;}.t{fill:#bb2439;}.u{fill:#f37043;}.v{fill:#832b29;}.w{fill:#832b28;}</style></defs><path class="a" d="M850.56,1158.61c19.56,5.5,32.45,8.39,48.16,21.28-.2.51-1-.32-.54-.67s1-.07,1.5.21c1.93,1.18,3.78,2.5,5.6,3.85,17.7,13.11,32.93,29.42,51.24,41.67,28.44,19,61.62-1.21,84.66-20,12.55-10.23,27-18.59,35.1-32.59,14.1-24.23,26.68-49.72,32.83-77.08s5.46-56.9-6.2-82.4c-.89-1.95-1.87-4-1.57-6.15.63-4.33,5.75-6.07,9.85-7.57,11.21-4.09,20.75-13.27,24-24.74,7.57-26.33-26.82-53.24-45.66-66.55-23.89-16.87-51.56-27.75-79.28-36.54-6.95-2.2-13.92-4.39-20.69-7.12-12.07-4.88-23.36-11.46-34.6-18-25-14.58-51.4-30.67-63.74-56.83-9.78-20.72-9.15-44.64-8.29-67.54.82-21.79,1.93-44.51,12.55-63.55a46.78,46.78,0,0,1,12.09-14.63c6.14-4.7,13.64-7.25,21.14-9.13,44.81-11.21,91.78-.17,127.36,29.28l1.83-2.69c3.7,5.52-.77,13.35-6.78,16.18s-13,2.53-19.51,3.67c-16.85,2.94-31.18,16.45-35.9,32.9s0,35.06,11.32,47.87,29.91,18.48,47,17.76c9.17,2,19.08-8.86,27-3.79,2.16,1.38,3.51,3.7,4.76,5.94,6.94,12.46,13.65,25.93,25.62,33.69,15.42,10,35.4,7.95,53.61,5.54,4-.52,8.39-1.28,10.85-4.46A12.08,12.08,0,0,0,1178,809c.1-11.42-7-21.62-14.93-29.86s-17-15.61-22.7-25.52c-8.69-15.16-7.95-33.69-11-50.9-5.81-33-28.05-62.34-56.58-79.92-23.76-14.64-51.53-25.43-79.16-21.52-6.59.94-13.06,2.7-19.7,3.17s-12.13-2.27-18.22-5c-5.81-2.58-12.41.36-18.36,2.6-15.68,5.92-17.78-2.48-24.45-13.45-5.78-9.5-14.42-16.62-18.52-27.23-4-10.45-6-21.57-7.93-32.61-3.26-18.66-7.81-51.18,12.64-62.59,12.35-6.88,27.42-.08,40.59,5.06a167.58,167.58,0,0,0,87.92,8.85,176.4,176.4,0,0,0,42.6-13.07c11.36-5,23.41-14.11,36.38-12.86,18.13,1.75,26.79,20.93,44.28,24.93,13.19,3,26.74-2.21,39.08-7.75,2.53-1.14,5.15-2.31,7.92-2.38,8.75-.24,13.66,9.49,18.9,16.5,12.66,16.92,38.89,21.71,56.71,10.35,11.74-7.49,19-19.87,29.87-28.28,13.19-10.18,23.38-7.1,38.91-5.37a49.15,49.15,0,0,0,40-14.25c8-8.15,15.41-20.21,26.75-19,4.77.49,8.88,3.41,12.9,6,20,13.09,44.89,15.69,68,22,47.81,13.13,101.71,13.1,150.86,6.61l122.09-16.12c29.41-3.89,60-6.69,89.27-.29,15,3.28,28.74,10.57,42.29,17.77,10.31,5.49,18.64,19.15,31.79,17.53,5.37-.67,10-4.09,14.2-7.45,12.68-10,25-20.78,34.76-33.65s16.35-28.29,17.77-44.39c8.87-12-4.46-29.24-.49-43.65,1.24-4.47,4.08-8.32,7.07-11.86,20.33-24.07,49.81-39,80.26-47.09s62.17-9.91,93.63-11.69c5.89-.33,12,2.5,17,5.61,5.32,3.29,11.2,7.42,11.9,13.65.67,6-3.77,11.19-7.48,16-18.3,23.54-23.87,56.4-14.35,84.65s33.83,51.05,62.64,58.73c13.19,3.51,27.23,8.82,40.74,10.78a156.91,156.91,0,0,0,169-99c23.18-60.32,24.12-130-11.38-184-5.76-8.76-9.88-17.11-16.6-25.15-38.37-45.93-93.78-76.2-152.29-88.76s-122.5-7.17-180.23,8.64a77.34,77.34,0,0,0-105.65-35.67c-3.14,1.64-6.64,3.55-10,2.49a13.73,13.73,0,0,1-4.57-3,65.18,65.18,0,0,0-52.47-14.14c-18.42,3.23-39.39,12.8-48.73,29-19.5-21.81-56.13-25.43-79.52-7.87-7.22,5.43-13.91,12.83-22.9,13.71-6.17.6-12.12-2.07-17.84-4.45-30.83-12.84-64.45-18.81-97.71-15.83-34.49,3.09-63.49,27.52-84.61,55-5.48,7.11-10.69,14.68-13.15,23.31s-2.05,17.55-1.23,26.37c2.3,24.53,5.65,48.39,14.32,71.46-5,4-11.6,5.1-17.93,5.81-31.26,3.51-64,1.37-92.19-12.69s-48.82-41.38-55.54-72.1A255.92,255.92,0,0,0,1370.05,65c-6.09-9.8-13.1-19.43-22.89-25.51-21.72-13.49-43.84,1.4-62.78,12.27-40.78,23.41-90.66,23-137.52,19-56.22-4.73-112.22-19.25-168-28C938.57,36.51,897,46.91,860.61,65.51s-68,45-98.26,72.48c-6.25,5.67-10.44,7-16,13.31-25,28.49-41.33,63.75-51.41,100.26a446.8,446.8,0,0,0-12.26,63.95c-1.29,10.4-2.3,20.83-3.16,31.27-.49,6.05.76,19.62-3.53,24.72-1.72,2-4.76,2.15-7.43,2.15-28.31,0-56.85,7.06-80.92,22s-43.42,37.85-52.28,64.74c-3.74-18.67-6-38-2.44-56.7A77.1,77.1,0,0,1,553.45,364c7.66-8,23.5-18,23.14-30.2-.28-9.71-10.46-19.66-4.89-27.62,2.15-3.08,6-4.37,9.55-5.58,15.92-5.38,33.27-15.1,35.83-31.71,2-13.06-6.1-26-4.66-39.1.36-3.27,1.45-6.67,4-8.77,3.79-3.13,9.3-2.36,14.22-2.24,20.08.5,38.86-13.33,47.56-31.44s8.38-39.59,2.7-58.87-16.35-36.68-27.83-53.17c-1.87-2.69-4.14-5.59-7.39-6-2.52-.31-4.93,1-7.07,2.38-20.4,13-35.62,35-58.94,41.44-22.31,6.18-45.59-3.62-66.65-13.2L430.43,62.32c-9.46-4.3-19.6-8.15-29-3.79-14.17-2.43-28.78-3.8-42.87-.92a107.2,107.2,0,0,0-18.21,5.74c-16.79,6.72-31.6,14-42.75,28.14-8.75,11.09-20.35,25.34-35.88,25.07-5.53-.09-10.81-2.11-16.23-3.23-28.07-5.84-55.68,12.79-74,34.88-4.52,5.47-9.16,11.52-15.95,13.61-4.51,1.39-9.37.8-14.07.36-22.89-2.18-54.89-4.72-63.74,16.5-6,14.49-4.33,31.24,1,46s14.13,28,22.35,41.36c1.86,3,3.77,6.29,3.73,9.85s-2.13,7-4.23,10c-10,14.34-22.14,27.87-26.89,44.69-7.57,26.76,5.12,54.44,13.8,80.85,2.06,6.27,3.92,12.69,4,19.29.18,8.68-2.64,17.14-5.93,25.18-7.79,19-18.42,37-23.46,57S58.8,556.06,73,570.92c17.74,18.52,33.47,41.71,58.8,45.75s52.47-6.3,68.68-26.18c1.81-2.22,3.76-4.71,6.58-5.21,2.42-.43,4.79.73,7,1.87,20.07,10.55,42.29,22,64.33,16.68,2.32-.56,4.7-1.36,6.33-3.1,1.78-1.91,2.37-4.61,2.9-7.17,4.15-19.79,9.87-40.13,23.25-55.3,22.5-25.51,61.07-30,94.58-24.08,4.52.79,9.94,2.66,10.65,7.19.46,3-1.47,5.79-3.14,8.33-13,19.81-14.78,44.67-16.48,68.31-.56,7.85-1.2,15.87-4.35,23.09-5.87,13.46-19.42,21.9-27.58,34.12-9.1,13.63-11,31.14-20.21,44.68a48.78,48.78,0,0,1-39.63,20.89c-37.07,2.07-73.43,15.8-103.44,37.49-29.36,21.23-47.3,56.82-62.08,89-25.74,56.1-47.55,118.74-34.37,180.54,12.09,56.71,45.61,109.09,93.55,142,86.11,59.2,197.78,85.87,298.48,52.49C606.85,1185.9,732.47,1125.44,850.56,1158.61Z" transform="translate(-59.61 -32.6)"/><path class="b" d="M256.92,141.81c.69,6.05-2.73,13.31-4,18.53a152.2,152.2,0,0,0-4.44,33.52c-.16,9.43.58,18.85.49,28.28-.29,28.4-10.32,52.53-22.47,78.2a138.08,138.08,0,0,1-50.26,57c-12,7.61-25,13.33-37,20.83s-23.29,17.19-29.1,30.11a87.4,87.4,0,0,1,22-123.51c-23.43-19.92-39.14-46.16-43.8-76.55-.46-3-.8-6.22.45-9,1.39-3.09,4.46-5,7.44-6.65a95.47,95.47,0,0,1,60.6-9.79c8.35,1.4,15.44,6,22-.25,7.14-6.76,11.21-23.48,17.11-32.11,4-5.85,8.52-11.54,14.49-15.36,10.08-6.46,38.21-10.33,45.34,2.86A10.78,10.78,0,0,1,256.92,141.81Z" transform="translate(-59.61 -32.6)"/><path class="c" d="M129.21,591.05a56.36,56.36,0,0,0,69.54-51.4c-5.74.05-9.91,5.15-14.4,8.73-10.56,8.4-25.57,9.08-38.62,5.66-14.91-3.9-58.43-37.23-65-10.19C74.61,569.07,110.13,586.42,129.21,591.05Z" transform="translate(-59.61 -32.6)"/><path class="d" d="M461.21,488.68l37.19-17c3.94-1.8,8.07-3.75,10.6-7.28,2.79-3.9,3.1-9,3.31-13.79l1.67-38c.23-5.23.46-10.51-.38-15.67a75.94,75.94,0,0,0-3.47-12.34l-9.86-28.81c-3.44-10-6.93-20.17-12.8-29S473,310.49,462.65,308.24c-14.06-3-28.91,4.34-37.88,15.59S411.51,352,409.69,366.29c-21.91-15.51-35.26-40.09-47.86-63.79-7.62-14.32-15.28-28.75-20-44.26-3.35-11-5.22-22.57-4.35-34,.23-3.17,7.3-27.27,6.88-27.93C353.49,211,360.69,227,372.1,240s28.61,22.74,45.58,19.41c22.62-4.44,35.25-30.25,34.61-53.29,21.95,14.56,55.11,5.61,68.6-17s7-54.38-12.95-71.63a105.71,105.71,0,0,0-16.32-11.11c-17.3-10.07-35.53-18.81-54.89-23.9-53.05-14-117.91.36-151.56,43.68-35.53,45.73-26.07,105.9-6.39,156.21,12.66,32.36,27.62,63.09,54.26,85.79,2.58,2.2,5.22,4.48,6.76,7.49s1.73,7-.46,9.58c-3.76,4.44-10.9,2.09-16.13-.46-19-9.24-39-16.74-59.88-19.87s-42.72-1.76-62.27,6.2c-8.87,3.61-14.39,14.23-17,23.44-3,10.6.26,22.2,6.28,31.42s14.55,16.49,23,23.52Q236.26,468.4,260,486.33a45.09,45.09,0,0,0,9.11,5.78,37.68,37.68,0,0,0,10.86,2.47c34.83,3.78,69.75-8.93,104.66-6.1,14,1.13,27.95,4.77,41.94,3.49C437.53,491,450.27,487.11,461.21,488.68Z" transform="translate(-59.61 -32.6)"/><path class="e" d="M425.1,609.84c-.55-6.08-3-11.78-4.65-17.67a63.83,63.83,0,0,1,11.31-55.54c1.7-2.14,3.86-4.33,6.58-4.4a9.82,9.82,0,0,1,4.57,1.39,192.52,192.52,0,0,1,47.43,33.49c4.29,4.12,8.57,8.81,9.61,14.67,1.12,6.3-1.75,12.56-4.6,18.29q-10.44,21-21.9,41.43c-8,14.35-16.71,28.8-29.37,39.3-13.65,11.32-31.14,17.36-44.43,29.1-7.49,6.6-13.58,15-22.19,20a9.79,9.79,0,0,1-5.7,1.72c-3.91-.39-6.19-4.55-7.46-8.27a70.29,70.29,0,0,1,3.33-52.76c6.82-14,18.91-26.73,33.67-32.07C414.91,633.59,426.74,627.86,425.1,609.84Z" transform="translate(-59.61 -32.6)"/><path class="f" d="M545,485.11c.24-20.88,14.41-40.26,30.49-54.38,15.2-13.36,78.43-60.9,96.53-30.34,2.57,4.34,2.83,9.62,3,14.67l2.11,57.18c.14,3.79.23,7.82-1.73,11.07-1.76,2.92-4.87,4.71-7.78,6.48a131.8,131.8,0,0,0-28,22.92c-7.76,8.38-14.87,18.12-25.4,22.54-25.5,10.71-54.74-6.89-65.17-30.7A46.67,46.67,0,0,1,545,485.11Z" transform="translate(-59.61 -32.6)"/><path class="g" d="M561.1,794.86c.7,1.35-2.53,1.15-2.23-.34s2.17-1.95,3.68-2.12c44.41-5,90.21-23.77,114-61.61,3.29-5.23,6.15-10.84,7.46-16.89,2.18-10.07-.07-20.49-1.91-30.62-10.76-59.2-7.57-119.94-4.34-180A291.52,291.52,0,0,0,614.83,685c1-.64-2.5-1.12-1.9-.08-69.64-8.38-140.26,9-199.71,46.24-4.78,3-10,9.21-6.16,13.35,1.93,2.07,5.14,2.09,8,2a166.36,166.36,0,0,1,77.12,17.33C515.48,775.5,535.06,795.76,561.1,794.86Z" transform="translate(-59.61 -32.6)"/><path class="h" d="M1007.68,869.51,957,816.66c-7.23-7.55-14.53-15.17-20-24.07a74.08,74.08,0,0,1-9.55-52.1c1.32-6.93,3.65-13.74,3.75-20.8.39-27.35-32-49.05-26.52-75.87,2.48-12.22,12.67-21.61,23.87-27.12S952.12,608.76,964,605c3.67-1.17,8.14-4.15,6.73-7.73-.7-1.79-2.65-2.7-4.4-3.51-21-9.65-37.44-27.55-49.22-47.48s-19.4-42-26.94-63.9a565.4,565.4,0,0,0-20.43,87.75c-13.12,87.51-5.94,178-2.55,266.43.48,12.54,1.69,27.68,1.65,40.23,0,2.38,0,4.86,1.08,7,1.92,3.77,6.74,5.27,10.94,4.72s8-2.68,11.81-4.52a94,94,0,0,1,41-9.28c22.39.09,46-6,68.25-3.78.74.07,1.67.31,1.79,1S1007.23,870.11,1007.68,869.51Z" transform="translate(-59.61 -32.6)"/><path class="h" d="M1064,688.25a36.77,36.77,0,0,0-36.39,55.46c3.37,5.58,8.38,10.31,14.5,12.55,6.74,2.47,14.15,1.78,21.33,1.61,11.59-.28,24,1.21,32.87,8.65,8.11,6.79,11.89,17.36,18.51,25.61,11.84,14.78,33.46,20.82,51.25,14.32a69.13,69.13,0,0,0-20.5-25.73c-4.2-3.24-8.83-6-12.29-10.08-7.23-8.45-7.94-20.51-8.31-31.63-.35-10.69-3.88-20.27-7.45-30.35a133.23,133.23,0,0,0-7.52-18.3c-23.45-44.21-86.42-74.53-135.06-70.68-12.57,1-25.31,4-35.68,11.18s-18,19.07-17.73,31.68c-.21-8.81,33.88-18.61,40.23-20.08,15-3.49,32.51-4,47.27.62,22.79,7.1,40.73,27.74,53.57,46.73" transform="translate(-59.61 -32.6)"/><path class="i" d="M1401.46,144.87l90.61,56.45c22.57,14.06,48.9,28.69,74.32,20.91,7.85,2.1,10.26,13,6.56,20.22-11.4,22.32-54.28,30.58-76.25,33.58-25.58,3.49-48.16-4.25-70.76-15.92-10.27-5.29-19.87-11.77-29.44-18.23-10.32-7-23.41-13.6-32-22.25,13-4.94,23-18.44,29.09-30.59C1396.17,184,1409.05,148.67,1401.46,144.87Z" transform="translate(-59.61 -32.6)"/><path class="j" d="M1982.28,360.68c4.72,13.39,6,27.71,7.22,41.85A388.86,388.86,0,0,1,2191,289.16c-23.3-18.94-55.14-24.91-85-21.81s-58.22,14.44-85.46,27.06c-20.88,9.68-45.12,19-63.87,32.22C1963.76,338.87,1976.83,345.24,1982.28,360.68Z" transform="translate(-59.61 -32.6)"/><path class="g" d="M1172.21,376.65A97.48,97.48,0,0,1,1137,417.37c-2.34,1.53-4.81,3-6.45,5.27-2.95,4.07-2.5,9.76-.62,14.43,5.52,13.75,20.83,20.84,35.34,23.84,6,1.24,16.22,3.55,22.24,1.73,6.65-2,9.11-9.33,15.69-11.55,5.58-1.89,11.6,1.84,15.29,6.44s6.11,10.2,10.31,14.33c7,6.9,18.19,8.42,27.62,5.53s17.27-9.57,23.53-17.18c6.76-8.22,12.74-18.25,22.85-21.58s20.66,1.07,31.1,2.18c18.92,2,38.59-7.83,48.32-24.18A552.1,552.1,0,0,1,1299,369.68c-10-6.79-20.16-14.07-32-16.2-10.66-1.91-21.59.55-32.06,3.33C1214.42,362.23,1191.84,368.76,1172.21,376.65Z" transform="translate(-59.61 -32.6)"/><path class="k" d="M1860.67,77.1c7.81,7,13.24,16.36,20.94,23.5,6.85-12,13.85-24.28,23.92-33.79s23.87-16.07,37.6-14.21c4.91.66,9.95,2.59,12.84,6.62,5.52,7.67,1.24,19.68,7.3,26.93,18.4-4.93,32.45-20.39,50.68-25.9a51.14,51.14,0,0,1,45.48,8.48c7.25,5.66,13.11,16,8.22,23.75-2.56,4.09-7.32,6.14-11.82,7.87-23.47,9-48,16-69.77,28.51-14.82,8.52-28.15,19.48-43.16,27.67s-32.6,13.52-49.2,9.46c-7.82-1.91-15-5.8-22.06-9.64l-25.26-13.73c-5.76-3.13-11.6-6.32-16.28-10.91-5.2-5.1-8.69-11.64-12.79-17.66-6.39-9.37-15.19-15.18-22.47-23.39-8.63-9.72-1-15.22,9.74-20.36C1822.42,61.78,1845.72,63.63,1860.67,77.1Z" transform="translate(-59.61 -32.6)"/><path class="l" d="M1044.47,1050c-22,20.14-34.14,48.65-44.7,76.54-9.93,26.23-19.2,53.79-16.55,81.7,6.78,5.16,16.42,5.19,24.39,2.16s14.63-8.66,21-14.29c23.43-20.6,46.24-43.32,58.64-72,9.25-21.37,12.2-45,12.66-68.25.25-12.8-.3-26-5.39-37.72s-20.66-30.3-27.24-11.12c-2.68,7.83-1.58,16.32-5.33,24C1058.1,1039,1050.81,1044.22,1044.47,1050Z" transform="translate(-59.61 -32.6)"/><path class="l" d="M291.94,818.47c-12.25,22.49-13.16,51.47.08,73.4s41.14,34.77,65.86,28.08c9.46-2.56,18.08-7.65,25.78-13.71,11.32-8.92,21-20.22,26.76-33.42,9-20.42,8-44.56-.89-65-23.15-53.31-91.93-75.71-145.76-64.55-41,8.51-73.27,33.45-91.41,70.2C131.78,895.68,98.17,987.08,148.63,1073c21.41,36.44,52.51,66.29,85.84,92.29,46.33,36.14,104,50.65,162.7,47.43,83.25-4.56,161.11-24.11,238.3-55.62,31.43-12.84,64.9-19.07,98.53-22.74,32.58-3.55,68.94-6.83,101.56-2.66,23.61,3,45.86,12.2,66.4,23.94,10.78,6.16,21.12,13,31.24,20.24,8,5.66,23.86,25.85,29.43,12,2.09-5.18-.17-16.48.9-22.63,1.46-8.43,4-16.65,6.38-24.86,5.13-18,9.06-38.32-.21-54.56-25.69-45-36.56-96.24-43.13-147.64-.86-6.77-10-9.53-16.14-12.55l-24.54-12.08c-6.72-3.31-14.3-1.41-21.08,1.78-36.18,17-68.71,41-104.5,58.83-5.37,2.68-12.62,4.93-16.72.55a11.64,11.64,0,0,1-2.58-6,29.82,29.82,0,0,1,4.33-21.42c26.25-40.14,27.87-96.78,28.06-143.26.25-60.52-5.89-120.21-10.21-180.41q-6.84-95.28-9.07-190.82C751.78,334.15,793,208.47,888.68,163.55c24.78-11.63,52.53-17.69,79.93-16.54,28.75,1.2,59.53,10.72,81.49,29.92,20.9,18.28,31.71,47.45,27.76,74.94a42.15,42.15,0,0,1-13.23,25.55c-16.47,15-42.65,23.84-62.07,34.74-5.75,3.23-11.57,6.51-16.36,11.06s-8.49,10.58-8.92,17.17c-.89,13.84,11.19,22.88,22.18,31.34,27.46,21.15,66.86,30.91,97.15,14.07,18.9-10.5,31.64-29.82,38.62-50.29s8.83-42.27,10.64-63.82l4.29-51.18c.36-4.34,7.18-6.3,11.41-5.27s7.6,4.16,10.75,7.17l22.85,21.82c-.34,0,1.52-.44,1.18-.44,1.08-.26-.89-2.23-1.53-1.32s.09,2.14.8,3c27.61,33.64,61.21,61.77,94.6,89.69,42.2,35.3,86.5,71.67,140,84.27a787.23,787.23,0,0,0,173.35,21.2c59.37.52,117.53-1.12,176-14.5,22.87-5.24,46.94-12,69.3-4.87,1.53-7.58,4.62-13.76,6.16-21.34,1.36-6.74,2.78-13.63,6.27-19.55,4.07-6.91,10.64-11.95,15.63-18.22A48.59,48.59,0,0,0,1887.07,338c1.39-11.29-24.07-9.06-27.66-19.85-2.34-7,4.07-13.68,9.84-18.33,39.21-31.68,78.14-64.23,121.71-89.87,45.94-27,98.51-42.06,151.16-50.36,40.45-6.38,83.33-6.16,122.78,5.74,38.3,11.55,80.8,38.84,94.37,78.19,5.61,16.26,7.5,33.53,9.2,50.65.69,6.92,1.34,14-.55,20.74s-6.9,13-13.74,14.29a14.68,14.68,0,0,1-16.37-10.32c.52-1,2.49-.12,2.05.95-23.47-20-60.56-26.78-90.17-18.22s-53.65,36.23-54.68,67c-1.42,42.57,35.74,75.83,74.86,83.09,72.06,13.37,136.61-24.29,166.73-89.91a177,177,0,0,0,11.65-112c-9.64-42.46-36.61-77.47-71.33-102.87-16.85-12.33-35.56-21.83-55-29.44-18.29-7.18-34.67-9.43-53.41-12.83-32.12-5.84-64.44-13.69-97.32-12.48-28.39,1.06-58.59,7.26-86,14.6a387.73,387.73,0,0,0-152.48,80.43c-38.23,33-76.1,65.32-114.79,97.73,6-31.54,12.34-61.61,9.66-93.61s-15.2-64.53-40.31-84.54c-18.37-14.65-38.57-27.9-60.6-36-18.85-7-39.69-14-58.53-7-23.84,8.83-49.41,17.38-68.42,35-19.82,18.4-24,46.9-24.39,72.77-.25,15.94,1.1,33.83,13,44.44,9.47,8.44,15.84,17.66,26.89,23.89a52.92,52.92,0,0,0,78.79-44c.34-8-1.1-15.93-.55-23.89s3.64-16.4,10.55-20.39c11.13-6.44,25.13,1.86,33.6,11.54,18.73,21.4,25.62,51.12,26.63,79.55,1.77,50.16-35.6,89.91-78,111.13-53.48,26.79-108.17,20.2-165.65,15a277.13,277.13,0,0,1-28.17-3.51c-14.37-2.79-28.22-7.85-41.62-13.74-31-13.62-61.43-24.85-90-43.19q-27.83-17.88-55.06-36.6c-14.42-9.91-35.51-20.66-38.72-39.73a32,32,0,0,1,6.79-25.32,8.56,8.56,0,0,1,2.53-2.27c.74-3.75-2.06-5.65-1.32-9.41,2.59-13.13,5.19-26.41,4.65-39.79s-4.52-27.06-13.59-36.9c-2.54-2.76-5.68-6.56-3.68-9.74-31.72-3.78-64.72-8.34-96.67-8.23C1125.78,94.6,1083,86.2,1044,75.66c-40.65-11-86.57-17.33-127.36-5.85C876.53,81.07,840,99.69,809.7,128.63c-16,15.32-39,24.12-52,42.06-14.94,20.67-26.87,43.95-36.23,67.62-28.17,71.18-31.29,151.51-25.28,227,4.53,57.09,3.12,113.61,4,170.88.85,53.3,8.08,109.35,6.53,162.64-1,35.78-3.14,69.57-10.14,104.67-5.09,25.49-11.23,45.21-22,68.84q-12.29,26.86-24.56,53.71c-4.29,9.36-13.82,17.29-20.92,24.75s-16.37,13.76-26.66,13.87c-10.89,13.71-33.72,17.12-48.77,26.06-6.49,3.86-12.31,8.84-19.09,12.16s-15.08,4.82-21.79,1.37a47.6,47.6,0,0,1,11.43-23.18c3.28-3.64,7.12-6.76,10.17-10.59a56,56,0,0,0,6.31-10.56,163,163,0,0,0,15.79-57.37,4.81,4.81,0,0,1-3.76,2.62,55.13,55.13,0,0,0-8.09-37.49,58.22,58.22,0,0,0-31.07-24.31c-4.69-1.53-9.83-2.44-14.54-.95A15.34,15.34,0,0,0,489,953.37c-1.22,5.22,1.87,10.47,5.34,14.57s7.65,7.56,11,11.77c15.73,19.95,13.82,54.45.38,74.34a121.87,121.87,0,0,1-64.17,48c-44.67,13.83-97.39-.48-136.11-25-10.13-6.43-19-14.39-27.38-23-30.94-32-57.1-74-62.81-118.89-5.05-39.68,14.2-91,47.79-114.26C272.8,814.05,281.35,812.93,291.94,818.47Z" transform="translate(-59.61 -32.6)"/><path class="m" d="M394.45,1094c23.76-4,43-26.62,43.11-50.72,0-2.42-.18-5-1.47-7-2.16-3.44-6.65-4.44-10.66-5.13-52.5-9.06-85-32.83-101.59-84.61-1-3.24-2-6.58-4.08-9.29-2.37-3.13-5.93-5.13-9.49-6.78a82.94,82.94,0,0,0-44.55-7c-8.93,1.09-18.12,3.9-24.31,10.44-6.78,7.16-8.88,17.83-7.45,27.59s6,18.77,11.11,27.2a201.47,201.47,0,0,0,34.06,42.08C311.29,1061,351.25,1084.74,394.45,1094Z" transform="translate(-59.61 -32.6)"/><path class="m" d="M775.12,430l-2,89.23c-.74,32.51-1.48,65.16,2.41,97.45,2.4,19.9,6.55,39.55,9,59.44,5.6,44.85,2.7,90.27,3.57,135.46.07,3.63.22,7.45,2.15,10.52,3,4.79,9.29,6.16,14.92,6.83a169.54,169.54,0,0,0,36.59.36c27-2.67,10.09-53,9.22-68.33-2.75-48.75.67-100,4.77-148.72,3.34-39.74,7-79.12,13-118.54,1.87-12.32,3.61-25.56-2-36.7-4.88-9.74-14.57-16.12-24.32-21C823,426.24,795.83,423.35,775.12,430Z" transform="translate(-59.61 -32.6)"/><path class="n" d="M1576.39,352.45a569.32,569.32,0,0,0,80.73-5.88c10.53-1.52,21.74-3.7,29.26-11.22,11.25-11.25,9.93-29.53,7.83-45.3-.87-6.48-2.09-13.62-7.2-17.7-3.09-2.47-7.12-3.37-11-4.2l-50.13-10.74c-9.11-2-18.57-3.9-27.67-1.89-12.56,2.78-22.18,12.53-33,19.49-27.75,17.86-63.51,17.18-96,11.24a348.43,348.43,0,0,1-69.94-20.55c-6.9,4.75-9.24,17.31-5.61,24.86s10.67,12.82,17.75,17.3C1459.64,338.32,1519.74,346.11,1576.39,352.45Z" transform="translate(-59.61 -32.6)"/><path class="m" d="M956.83,162.88c10.38-2.22,21-4.23,31.56-3.3,16.42,1.45,31.32,9.82,45.63,18,11.81,6.75,24.4,14.34,29.67,26.88,3.79,9,3.16,19.23,1.37,28.83-3.28,17.49-12.4,36.3-29.54,41.09-18.42,5.16-39.24-12.32-37.35-31.36.74-7.47,4.32-14.89,2.64-22.21-2.28-9.94-13.81-15.43-24-14.5s-19.18,6.59-27.77,12.08c-8,5.11-16.72,10.41-26.18,9.77-9-.6-16.68-6.46-24.78-10.49-6.26-3.12-24.93-4-27.44-10.3-3.63-9.16,12.19-17,18-20.51C909.38,174.29,933.34,167.89,956.83,162.88Z" transform="translate(-59.61 -32.6)"/><path class="o" d="M1573.72,357.74a268.11,268.11,0,0,0,105.07-19.49c5.83-2.36,11.7-5,16.28-9.31,14.83-13.95,10.54-38.47,2.46-57.16-1.31-3-2.84-6.21-5.65-8-4.75-2.95-10.83-.66-16.27.63-25.18,6-50.55-11.54-76.36-9.61-22.15,1.67-40.43,17.12-60.52,26.58a117.11,117.11,0,0,1-45.17,11c-33.1,1.3-65-11.4-95.65-23.89-7.09,5.52-7.4,21.09-2.78,28.8,14.81,24.73,53.44,33.85,79,40.61,33.81,8.92,68.61,13.39,103.23,17.81l-6.36.89" transform="translate(-59.61 -32.6)"/><path class="p" d="M2193.4,175.75c11.46.49,23.27,1.66,33.33,7.16s18,16.33,16.86,27.73c-.66,6.59-4.15,12.51-7.59,18.16-6.35,10.43-13,21-22.48,28.68s-22.38,12.21-34.09,8.74c-18.82-5.56-26.55-17.83-48-17.75l-36.64.15c-12.81,0-25.69.1-38.3,2.34-23.49,4.17-44.94,15.67-65.79,27.26-5.46,3-11.3,6.19-17.54,5.81-27.12-1.62-12.86-29.81-.88-38.61a370.13,370.13,0,0,1,68.63-40.33A341.87,341.87,0,0,1,2193.4,175.75Z" transform="translate(-59.61 -32.6)"/><path class="q" d="M253.54,352.18c11.63.86,23.1,2.78,34.76,3,2,0,4.13-.11,5.68-1.35,3.52-2.8,1.61-8.41-.71-12.26-12.71-21.06-30-39.89-37.26-63.38-2.74-8.84-4-18.07-5.06-27.26-2.12-17.95-3.75-36-2.42-54.07C236,211.91,235.4,233.33,235.46,253A198.11,198.11,0,0,1,214,171.42c-8.79,10-10.11,24.46-9.66,37.76A197.54,197.54,0,0,0,213.68,263c-2.3,2.1-5.57.68-8.2-1a227.65,227.65,0,0,0-53-25.15l32.28,40.88c4.65,5.88,9.35,11.86,12.34,18.74a6.65,6.65,0,0,1,.73,4.23c-.59,2.24-3.09,3.31-5.28,4-13.78,4.64-27.86,8.55-40.95,14.86s-25.35,15.31-32.73,27.82a249.61,249.61,0,0,1,71-14.61c-6.78.38-19.7,12.65-25,16.84-5.88,4.66-18.66,14-19.51,21.8,17.72-3.7,34.53-12.21,52.73-15.55a248.65,248.65,0,0,1,45.73-4.09C247,351.79,250.3,352,253.54,352.18Z" transform="translate(-59.61 -32.6)"/><path class="r" d="M311,201.19a74.5,74.5,0,0,1,17.24-40.43c2.63-3.09,5.69-6.08,9.59-7.23s8.77.14,10.53,3.8c1.05,2.18.85,4.72.83,7.13a41.59,41.59,0,0,0,18.9,34.86,40,40,0,0,0,39.48,1.5,38.45,38.45,0,0,0,19.88-33.95c-.15-5.87-1.45-12.55,2.4-17,2.69-3.09,7.12-4,11.22-4,9.22-.1,19.19,4,23.1,12.3-8-23.94-29.23-43-53.91-48.22-22.56-4.8-48.47-10.69-68,1.58-9.51,6-17.35,14.23-25.07,22.4-6.53,6.9-13.12,13.9-17.85,22.15-5.14,9-7.88,19.08-9.94,29.2-5.57,27.44-6.22,56.82,4.78,82.56s27.63,47.38,45,69.14c6.39,8,13.3,15.92,22.31,20.77C358.11,342,348.46,328.4,340,314.68,317.85,278.91,306.77,243,311,201.19Z" transform="translate(-59.61 -32.6)"/><path class="s" d="M400.8,448c-34.77-30.29-85.5-50.91-132-41.11-13.56,2.85-26.69,9.31-35.64,19.9,7.76-.66,16.25-2.19,24-2.63,17-1,34.17-2.06,51.19-.42s32.82,7.57,48.92,12.84c.81-.56,2.23.38,3.19.63a170.07,170.07,0,0,1,27.57,10.09C392,449.13,396.58,449.07,400.8,448Z" transform="translate(-59.61 -32.6)"/><path class="r" d="M407.68,359.49c-.62-14.26-3.38-35.54,4.37-48.4,17.31-28.72,43.73-37.61,75.65-36.89,31.05.71,58.22,27.28,68.79,55.62,1.33,3.57,2.45,7.42,1.68,11.16-1.58,7.71-10,11.48-16.62,15.77-16,10.41-18.32,26.05-26.16,41.91a3.81,3.81,0,0,1-1.21,1.6,3.35,3.35,0,0,1-2.3.22c-9.61-1.64-14.1-10.6-17.76-18.4-4.33-9.23-11.08-17.79-18.25-25l.05,1.15c-.28-6-18.64-14.72-23.24-17.2-9.06-4.89-18.73-7-28.53-2.45a29.33,29.33,0,0,0-16.53,24.92" transform="translate(-59.61 -32.6)"/><path class="r" d="M79.57,516.59c-.8-12,3.74-23.7,8.89-34.57a284.87,284.87,0,0,1,56.81-80.21c14.8-14.66,32.5-26.19,52.69-31.31a44.66,44.66,0,0,0-3.76,26.84c3.21,18.45,18.82,37.73,32.68,49.73a151,151,0,0,0,29.84,19.56c5.31,2.74,10.73,5.24,16.18,7.69,4.79,2.15,7.91,5.83,12.73,7.7a234.62,234.62,0,0,0,48.3,13,80.44,80.44,0,0,0-16.06,10.15c-21.35,17.36-29.34,46.55-46.75,67.85-8.82,10.8-31.49,27.2-43.88,11.4-10.62-13.53-15.32-35.48-12.7-52.2a56.3,56.3,0,0,1,11.57-26.09c6-7.74,14.72-13.06,20.58-20.73a2.55,2.55,0,0,0,.73-2c-.19-.82-1.06-1.25-1.85-1.54-9.72-3.55-20.8-1.89-30.12,2.62-14.71,7.12-24,18.56-31.8,32.35a53.36,53.36,0,0,1-5.88,7.93c-3.78,4.5-7.65,9.08-12.65,12.17s-11.4,4.51-16.82,2.23A193.52,193.52,0,0,1,124.92,527c-4.55-2.69-9.17-5.41-14.27-6.82a60.15,60.15,0,0,0-10.79-1.59C92.94,518,86.5,517.18,79.57,516.59Z" transform="translate(-59.61 -32.6)"/><path class="r" d="M587,639.47c-4.26-17.23-8.56-34.56-15.59-50.86-3.33-7.71-7.26-15.14-11.17-22.57L537.92,523.7c-11.54-21.88-16.85-44.36-24.64-67.84a3.81,3.81,0,0,0-4.84-3.12l-27.79,1c-5.83.21-12.32-.32-18.15-.21-13.59.26-19.32,9.61-28.66,18.64-3.3,3.18-6.64,6.4-10.67,8.58-4.34,2.35-9.26,3.38-14.13,4.17A175.05,175.05,0,0,1,381,487.19c-.33,0-.75-.06-.84-.38s.61-.4.47-.1c-.4.82-1.49,1.82-2,2.61,4.3,5.78,16.4,5.26,22.68,6.3,17.93,2.95,35,9.68,50.75,18.7a219.85,219.85,0,0,1,23.22,15.47c21.44,16.22,43.08,29.93,60.88,50.35,17.51,20.09,32.55,42.31,51.52,61.13" transform="translate(-59.61 -32.6)"/><path class="q" d="M563.48,525.57c-.91-1.92-1.83-4.26-.67-6a6.84,6.84,0,0,1,2.31-1.88,40.81,40.81,0,0,0,18.63-26.75c2.83-14.62,18.28-26.11,31.91-32.11A55.35,55.35,0,0,1,629.83,455c6.27-.93,13.11-1.06,18.47,2.33,8.57,5.42,9.87,17.18,10.29,27.31a33.24,33.24,0,0,1-.5,9.3c-1.77,7.08-7.82,12.68-11.92,18.51-18.73,26.58-34.63,52.31-44,83.9-.87,2.94-1.9,6.17-4.52,7.75-8.89,5.4-14.23-27.86-15.92-33A381.17,381.17,0,0,0,563.48,525.57Z" transform="translate(-59.61 -32.6)"/><path class="q" d="M585.59,661.35a52.88,52.88,0,0,0-7.94-9.92l-45.29-48.17c-12.34-13.12-26.55-26.9-42.71-35.2a7.3,7.3,0,0,0-2.64-.92c-2.46-.18-4.37,2-5.84,4-6.8,9.11-13.64,18.28-18.72,28.44A69.33,69.33,0,0,0,455,624.43c-.6,7,.5,14.76-4.37,20.66-2.21,2.67-5.4,4.29-8.49,5.86-14,7.11-28.08,14.86-38.82,26.35s-17.81,27.41-15.14,42.91c5.63,1.17,11.24-3,15.74-6.53A222.47,222.47,0,0,1,512.72,667.5C537,664.31,561.16,659.5,585.59,661.35Z" transform="translate(-59.61 -32.6)"/><path class="q" d="M650.29,737.51C663.06,726.1,673,711.82,685.38,700a69.06,69.06,0,0,1,4.31,23.71c.13,39.35,2.7,78.69,1.37,118-1.34,39.64-8.91,76.51-22.72,113.7a299,299,0,0,1-11.64,28.29c-5.4,11.08-12.27,22.58-23.64,27.33-.55.23-1.21.64-1.07,1.21s1.17-.27.58-.3a423,423,0,0,0,1.1-49.84c-1.52-31.94-6.83-64.17-20.7-93.23-12.78-26.76-35.27-55.87-61.31-70.8-11.57-6.64-24.88-10.67-34.56-19.84,24.71-3.19,48.51-3.74,72.8-10.33C611.81,762,633.2,752.77,650.29,737.51Z" transform="translate(-59.61 -32.6)"/><path class="t" d="M229.09,913.3a133,133,0,0,1,32.8-63.84c-.41,11.5.38,23.37,5.36,33.73,9.05,18.83,29.51,28.66,46.54,40.74,8.35,5.91,16.95,14.9,14.65,24.87-12.42-5.36-25.35-9.88-38.77-11.55s-27.47-.36-39.67,5.49a112.79,112.79,0,0,0-10.42,5.94c-9.11,5.63-10.56-1.2-11.83-10.12C226.56,930.17,227.42,921.56,229.09,913.3Z" transform="translate(-59.61 -32.6)"/><path class="t" d="M406.89,1083.06c2.51-3.59,6-6.44,8.32-10.14,4.7-7.47,4-17,3.15-25.77l-1.55-16c16-1.07,31.13-7.28,45.94-13.41,11-4.56,22.42-9.39,30.39-18.26a83.63,83.63,0,0,1-8.06,46.43,95.31,95.31,0,0,1-13.77,20.34c-9.72,11.14-22.14,20.31-36.1,25.36C426.76,1094.72,393.66,1101.93,406.89,1083.06Z" transform="translate(-59.61 -32.6)"/><path class="t" d="M778.59,356.12c4.73-22.28,10.17-44.75,21.17-64.69,4.08-7.41,9.11-14.61,16.28-19.11q-1,23.06,0,46.13c.42,10.12,1.17,20.43,5,29.81,3.27,8.09,8.64,15.12,14,22q10.77,14,21.56,28.06c11.12,14.48,22.57,29.65,26.17,47.55,2.19,10.85,1.32,22.15-1.25,32.91-2.53,10.58-7.88,21.93-18.22,25.34-5,1.65-10.4,1.15-15.62.59-14.06-1.51-28.85-3.68-40-12.43a60.44,60.44,0,0,1-12.28-13.95c-9.83-14.56-19.91-34.53-23-52.08C768.25,403.4,773.84,378.46,778.59,356.12Z" transform="translate(-59.61 -32.6)"/><path class="r" d="M511.13,261.05c0-.27-.49-.24-.54,0s.17.51.38.69q8.63,7.91,18,14.91c9.2,6.89,19.3,13.62,30.72,12.34a35.79,35.79,0,0,0,27.41-4.89c5.24-3.45,10.6-5.75,13.06-11.52,4.44-10.37,4.49-22.29,1.57-33.19s-8.64-20.87-15.39-29.91c21.91-4.33,43.51-6.66,61.6-21.09a37.53,37.53,0,0,0,9.44-10.27,37.31,37.31,0,0,0,4-12.75,78.9,78.9,0,0,0-2.54-35.18c-3.29-10.8-10.8-19-14.9-28.85-11.06,10.2-23.77,19.24-37.73,25s-29.91,8.08-44.67,4.39c-4.25-1.07-8.85-.19-12.72-2.23a202.76,202.76,0,0,0-51.48-18.74c6.47,3.38,10.37,10.5,11.42,17.72s-.38,14.57-2.33,21.6c-6.83,24.49-20.53,47.38-40.4,63.24C476.48,232.35,494.13,246.27,511.13,261.05Z" transform="translate(-59.61 -32.6)"/><path class="t" d="M765.14,960a96.26,96.26,0,0,1,27.38-27c10.07-6.56,21.28-11.16,31.74-17.07s21.38-13,24.46-24.59c5.61-21.16,5.9-43.22,5.6-65.11,0-1.74-1.14-3.26-2.3-4.57a42.49,42.49,0,0,0-57.81-5.66c-3.34,2.56-6.49,6.07-6.54,10.28-.1,10.08.14,20.54-1.89,30.41l-7.69,37.3c-2,9.6-4,19.26-7.66,28.33C766.28,932.44,760,942,758.58,952.9c-.29,2.28-.28,4.82,1.2,6.57S763.86,961.85,765.14,960Z" transform="translate(-59.61 -32.6)"/><path class="u" d="M2390.3,195.32c14.46,17.63,27.7,37.26,33.88,59.29,6.35,22.59,5.83,46.79.7,69.56-4.62,20.46-12.88,39.93-22.94,58.27-9.08,16.57-23.06,27.83-39.31,37.56-21.17,12.68-47.06,21.57-71.94,16.88-13-2.44-28-13.82-36.43-23.66-19.09-22.23-25.32-58.43-1.77-80a49.21,49.21,0,0,1,43.56-11.79c-.26-.66-1.5-.35-1.42.35a32,32,0,0,1,25.66,8.55c8.48,8.12,9.69,18.76,11.73,30.32a55.24,55.24,0,0,1,1.22,12.41,18.45,18.45,0,0,1-4.28,11.48,2.18,2.18,0,0,0-.68,1.14c-.08.61.42,1.14.9,1.53,3,2.42,7.05,3.21,10.89,3a46.3,46.3,0,0,0,11.22-2.6c24.44-7.83,39.67-32.1,46.6-55.58,6-20.51,6.89-42.94.37-63.45-5.41-17-11.8-30.74-22.44-45.23a256,256,0,0,0-32.53-36.09c-18.75-17.35-40.47-27.74-64.18-36.72-31.3-11.86-61.33-15.82-94.74-15.61-34.39.22-69.06-2-102.54,8.34-27.67,8.51-53.74,21.41-79.36,34.7-38.44,20-71.61,53-103.56,81.91-13.35,12.07-26.74,24.17-38.66,37.68-5.49,6.23-10.21,13-16.21,18.51-6.66,6.15-13.2,12.42-19.69,18.75-4,3.93-17.66,13.21-18.34,19-.57,4.85,5.56,7.45,10.43,7.91a71.11,71.11,0,0,0,42.75-9.66c2.67-1.6,5.38-3.54,6.53-6.42,2.37-5.95-2.76-11.93-6.52-17.12a7.2,7.2,0,0,1-1.73-4.12c0-3.47,4.22-5.14,7.65-5.69,15.81-2.53,29.77,1.78,45.18,6.09,7.89,2.21,14.07,8.81,17.12,16.41s3.27,16.08,2.11,24.19c-.6,4.2-1.61,8.48-4,12s-5.81,5.73-8.94,8.38a61.09,61.09,0,0,0-20.34,56.59c.25,1.5.78,3,2.29,2.86a.91.91,0,0,1-.87-.17c-6-5-13.11-8.52-20.4-11.33a224.75,224.75,0,0,0-22.14-7c-12.56-3.42-25.48-6.46-38.48-5.61-7.3.48-14.46,2.19-21.57,3.89l-39.91,9.52c-11.26,2.69-22.54,2.46-34.12,3.35l-81.91,6.26c-4.47.34-9.58.46-12.7-2.75l37.94-4.69c42.59-5.26,85.5-10.59,126.26-24,7.81-2.56,16-5.79,20.71-12.52,1.5-2.15,2.51-5.23.85-7.24s-4.43-1.7-6.82-1.25c-13.61,2.56-26.43,8.26-39.86,11.65-13.62,3.44-27.71,4.47-41.72,5.49-13.65,1-26.28,1.22-39.79,3.43a536.72,536.72,0,0,1-109.8,6.56,535.77,535.77,0,0,1-54.82-5.18c-16.09-2.36-31.41-7.27-47.32-10.85a273.83,273.83,0,0,1-48.61-15.81c-58-25-111-64.14-160-103.29-34.39-27.41-67.09-56.88-99-87.12a208.64,208.64,0,0,0-17.51-15.47c-1.45-1.1-3.23-2.21-5-1.7-2.84.84-2.89,4.84-2.06,7.68,2.19,7.49,7.06,13.43,10.16,20.38a119.45,119.45,0,0,1,8,26.36c7.1,36.89,10.3,74.11,1.9,111-5.28,23.27-15.52,42.45-31.07,60.57a201.86,201.86,0,0,1-33.38,31c-24.41,18-53.1,30.5-83.27,34.41-41.12,5.34-76-9.7-107-35.53-28.5-23.72-53.54-53.58-63.21-90.06-9.56-36.08-17.1-76.14,7.18-108.33,1.76-2.32,3.74-4.63,6.4-5.82,5.16-2.31,14.23,1.13,19.89.9,7.37-.31,15-2.07,22.16.63,6.43,2.43,11.06,8.13,14.51,14.08,5.93,10.25,9.15,21.76,11.46,33.3,1,4.71,1.89,24.29,12.16,19.57,4-1.82,3-7.62,1.88-11.84-3.66-13.35-2.54-28.28,4.63-40.12a40.81,40.81,0,0,1,18.5-16.16c5.29-2.28,17-5.64,22.33-2.26,3.46,2.18,3.75,7,3.82,11.11.21,13.48,2.32,27.48,9.93,38.61s21.85,18.45,34.8,14.67a35.32,35.32,0,0,0,8.49,56.41c25.83,13.5,52.58-6.09,63.7-28.81,11.43-23.34,14.7-50.63,14-76.35-1.93-71.3-71.94-128-140.24-132.18-28.45-1.71-52.84,6.95-78.68,17.84a236.2,236.2,0,0,0-48.34,27.62c-29.8,21.95-54.62,50.36-73.64,82-22.06,36.72-31.22,77.74-40.74,119.06-10.92,47.41-8.41,96.8-8.7,145.19C726.94,590.5,738.88,675.2,744.28,761c2.6,41.25-1.33,82.71-3,123.92-.91,22.8-6.76,45.06-14.55,66.41-4,11-8.57,21.81-13.29,32.52-3.29,7.46-10.33,18.23-9.52,26.75a4.33,4.33,0,0,0,.92,2.51c1.39,1.55,3.9,1.14,5.86.45,5.94-2.09,10.67-6,16.3-8.57,6.29-2.86,13-5.08,19.49-7.42q19.69-7.09,39.84-12.85a367.11,367.11,0,0,1,83.57-13.88c4.82-.24,10-.49,13.84-3.35s5.72-9.44,1.49-11.75a52,52,0,0,0-28.67-6.16c-2.93.22-7-.15-7.29-3.08a5.28,5.28,0,0,1,.61-2.53,74.32,74.32,0,0,1,23.21-29.53c21.21-16.06,47.78-17.34,74.11-21.17,37.47-5.45,77.49-7.58,111.43,9.19,17.15,8.48,33.49,21.3,44,37.46,4.47,6.89,8.06,14.67,8.3,22.88a30.47,30.47,0,0,1-8.72,22.08,8.86,8.86,0,0,1-3.07,2.2c-3.2,1.17-6.55-1-9.32-3a164.63,164.63,0,0,0-57-26c-8.71-2.11-54.17-12.3-58,.15-1.13,3.7,4.08,5.8,7.91,6.28a117.77,117.77,0,0,1,24.72,5.83,66.56,66.56,0,0,1,14.3,6.75c19,12.4,26.23,39.93,15.76,60.06-4,7.79-10.22,14.24-16.29,20.58-6.89,7.18-13.34,14.68-20.49,21.6A89.83,89.83,0,0,0,976,1122.92c-7.25-12.35-20-17.67-32.53-24.55a177.25,177.25,0,0,0-40.16-16c-16.3-4.29-24.42-18.49-14.63-33.95,2.62-4.14,6.56-8,6.62-12.86,0-3.62-2.1-6.89-4.46-9.64a49.8,49.8,0,0,0-47.71-16.06c-20.85,4.46-41.61,9.32-62.22,14.79-40.31,10.69-80,23.78-118.25,40.54L533.89,1121.7c-32.06,14.07-68.19,20.07-103.36,19a446.56,446.56,0,0,1-109.89-17.62c-56.56-16.69-97.81-57.08-126.7-107.43-6.6-11.51-13.06-22.65-14.29-35.86-1.47-15.71-5.76-30.83-6.39-46.77-1.47-37.42,6.32-76.4,26.86-108.16,7.61-11.78,17.27-24,27.78-33.33,8.85-7.87,21.5-13.09,32.76-16.74,23.95-7.76,50.36-7.94,74,1,18,6.79,40.49,18.88,53,33.74,8.9,10.54,13.64,25.42,9.2,38.47-4,11.74-15.23,20.46-27.51,22.18s-25.13-3.29-33.62-12.32-12.69-21.75-12.07-34.13a51.27,51.27,0,0,1,10.08-27.94c-7.31-7.79-19.06-12-29.73-11.59-33.87,1.23-68.1,18.15-89.13,44.83-45.61,57.87-27.32,143.26,6.41,201.9,13,22.65,32.42,41.3,54.48,55.11,26,16.25,55.57,26.07,85.65,31.9,63.27,12.25,138.79-3,173.4-62.54,6.9-11.86,10.08-25.16,11.48-38.79,2.84-27.51-7.09-63.42-38.32-69.47a7.82,7.82,0,0,0-4.6.13c-2,.9-3.06,3.27-3.11,5.49a24.06,24.06,0,0,0,1.22,6.52,42.32,42.32,0,0,1,1.22,12.93c-.35,5.73-2.76,8.57-7,12.5a85,85,0,0,1-31.08,18.48c-11.15,3.71-20,3.52-30.81-.69-27.76-10.84-37.58-46.92-35.68-74,1.8-25.44,18.95-46.52,44.92-50,9.57-1.29,20.54-.38,27.47-7.1a3.82,3.82,0,0,0,1.31-2.12c.16-1.2-.69-2.29-1.52-3.16-14.27-15-33.15-22.21-34.38-45.91-1.28-24.58,16.33-38.1,39.53-37.17,49,2,91.24,45.9,115.48,85.07,17.89,28.9,25.23,59.6,24.39,93.56-.71,29-6.39,57.53-2.24,86.26.69,4.78,2,10.36,6.43,12.2a11,11,0,0,0,5.89.39c16.46-2.56,28.26-19.63,38.88-31a234.54,234.54,0,0,0,31.29-42.16C738.64,913.56,733,827.8,728.44,745.92,724,666,719,586,712.74,506.15c-1.83-23.3-1.42-46.7-.18-70,1.17-22,1-43.82,3.44-65.7,9-80.69,41.46-163.78,103-218.67a264.22,264.22,0,0,1,31.55-24.18c33.28-21.73,72.36-33.32,111.87-36A282.59,282.59,0,0,1,1022,94.05a296.88,296.88,0,0,1,29.24,5.79c6.91,1.73,13.39,4.83,19.69,8.1,6.78,3.53,13.75,5.67,21.19,8,14.87,4.61,30.32,8.39,44.9,13.85,13.32,5,27.33,5.35,41.58,6.75,17.34,1.71,36.49,2.95,50.47-7.46,5.14-3.82,9.4-10.89,6.14-16.41a13.6,13.6,0,0,0-5.16-4.55c-6.11-3.56-12.51-4.63-19.21-6.15,12.41-7,27.63-2.9,41.08-3.68,15.16-.88,26.69-5.59,39.21-14.15-2.88,2,.76,15,1.64,17.51,1.75,5.12,5.14,8.61,8,13.09,7.27,11.43,14.29,22.73,22.86,33.28,4.09,5,8.42,10,11.21,15.86,8.55,18-.57,36.78-15.65,47.69-8.34,6-18.05,9.91-27.86,13s-20.27,5.55-30.32,3.33c-.66.43-.41.47-1-.1-2.56-7.62-.4-16-2-23.94-3.4-17.39-19.53-25.41-35.6-28.08a114.44,114.44,0,0,0-25-1.07c-3.74.21-12,0-14.53,3.39-4,5.37,4.67,11.39,7.86,15.1,28.57,33.15,62.67,60.95,97.23,87.55,16.58,12.77,31.81,25.74,49.77,36.88,23.75,14.75,49.07,25.91,73.82,38.52,37.33,19,78,31.93,119.71,36.49,10.73,1.17,21.64,1.7,32.32,3.22,9.54,1.36,19.29.28,29,.49,32,.69,69.07-2.25,98.08-16.41,39.67-19.36,73.4-47.94,90.33-89.64,10.45-25.75,11.08-49.74,2.22-75.83-9.89-29.13-28.37-59.23-55.28-75.42a73.34,73.34,0,0,0-32.22-10.59c-6.84-.5-22.72-1.08-24.33,8.12-1,5.83,3.87,9.56,6.41,14.05,3.21,5.66,4.88,12.62,5.67,19a59.84,59.84,0,0,1-7.39,37.33c-2.46,4.2-5.57,8.21-9.81,10.6-23.46,13.21-61.54-5.28-68.62-29.72-5.87-20.22-.73-45.95,14.36-61.1,4.81-4.82,10.82-8.26,16.88-11.38,21.3-11,45.69-18.78,69.06-13.54a2.27,2.27,0,0,1,1.66.94c.3.59-.33,1.5-.89,1.17,5.42,3.17,14.85,3.43,21,5.5a113.85,113.85,0,0,1,21.17,9.49c13.4,7.82,24.33,19.93,34.57,31.4,10,11.19,19.2,21,24.66,35.43,14.76,38.92,16.93,93.17-9.59,127.86-3.09,4-6.58,7.81-9,12.26-1.18,2.16-2.09,4.86-.9,7,7,12.74,33.82-17.06,38.33-21.53,30.82-30.59,63.15-59.33,96-87.67q21.33-18.41,43.84-35.39c13.78-10.4,27.7-22.32,42.7-30.63a361.83,361.83,0,0,1,102.65-38c40.9-8.39,83.24-12.58,124.86-7.46,41.84,5.15,81.27,21.89,117.88,42C2363.47,163.31,2378.47,180.89,2390.3,195.32Z" transform="translate(-59.61 -32.6)"/><path class="u" d="M1928.73,398.5c-3.09,2.75-6.51,5.22-8.88,8.61-2.95,4.24-4,9.5-4.78,14.6q-1.74,10.86-2.73,21.83a15.43,15.43,0,0,0,.34,6.46c1,3,3.82,5.17,6.76,6.46,7.38,3.22,16.16,2,23.28-1.73s12.81-9.76,17.64-16.19a80.56,80.56,0,0,0,12.46-23c7.67-23.25-.69-59.55-24.43-71.27-1.26,3.07,0,7.63,0,11.13a60.14,60.14,0,0,1-19.63,43.07Z" transform="translate(-59.61 -32.6)"/><path class="q" d="M1327.26,393.06a70,70,0,0,0-44-17.18c-4.78-.12-9.7.29-14,2.39-7.9,3.86-12.14,12.53-15,20.84a144,144,0,0,0-4.5,15.78c-2.14-10.73-5.13-21.95-13-29.59a30.5,30.5,0,0,0-34.2-5.18c-9.53,4.86-15.66,14.37-23.69,21.45q1.59-6.85,2.63-13.82c.56-3.76.91-7.93-1.26-11.05s-7.84-3.74-9.36-.26c8-18.4,10.72-40.86,11.69-60.72,1.05-21.65-3.17-41.65-5.42-62.89,11.49-5.87,22.3,10.58,28.48,17.75,7.48,8.67,14,18.36,21.73,26.78,6.11,6.67,13.72,11.84,20,18.59,16,17.14,32.82,33.64,51.45,48C1307.8,370.8,1325.68,380.67,1327.26,393.06Z" transform="translate(-59.61 -32.6)"/><path class="u" d="M1321.36,123l19.39,28.93c4.58,6.83,9.27,13.91,10.77,22,1.38,7.38,0,15,.18,22.46a4.6,4.6,0,0,0,1,3.2c1.31,1.3,3.51.68,5.16-.13,9.74-4.81,17.21-13.54,21.82-23.37s6.54-20.75,7.11-31.6a89.58,89.58,0,0,0-.45-16c-2.62-20.27-15.62-38.6-33.19-48.8-13-7.53-43.86-17.87-46.21,5.16C1305.44,99.08,1313.83,111.76,1321.36,123Z" transform="translate(-59.61 -32.6)"/><path class="q" d="M1855.25,237.81a727.35,727.35,0,0,1,80.18-66.48c7.63-5.45,16.61-11.13,21.88-19.11,4.69-7.1,5.12-16.83,8.75-24.7,12.53-27.22,50.72-33.12,66.73-58.45a91.13,91.13,0,0,0-37.11,14.43c-17.55,11.79-31,29.71-50.49,38-6.09,2.59-13.61,4-19,.1-4.35-3.16-6-8.89-6.39-14.25a49.41,49.41,0,0,1,6-27.85c-16.6,10.38-28.41,26.7-40.28,42.27-2.2,2.88-4.6,5.89-8,7.11-3.83,1.37-8.25.11-11.45-2.41s-5.35-6.13-7.08-9.82c-5-10.7-7.44-23.5-16.83-30.66-3.64,8.05-12.08,12.66-20.09,16.39-3.12,1.45-6.7,3.43-7.07,6.85,5,7.1,10.5,13.68,15.21,21,10.49,16.24,13.36,36.1,16,55.26,2.74,20,1.72,38.66.45,58.84C1850.34,241.54,1851.94,241,1855.25,237.81Z" transform="translate(-59.61 -32.6)"/><path class="t" d="M1942.38,307.84c4.29-1.1,7.9-3.94,11.36-6.71l16.79-13.43a7,7,0,0,0,3.27-8.06L1972,263.81c-.65-5.79-2.11-12.68-7.56-14.74-4-1.5-8.37.34-12.15,2.28-16.5,8.46-39.61,21.2-49.19,37.81-4.43,7.69-2.35,13.61,6.6,15.63,5.61,1.26,11.64.86,17.35,2C1932.14,307.72,1937.22,309.16,1942.38,307.84Z" transform="translate(-59.61 -32.6)"/><path class="t" d="M2344,301.58c-8.78-14.09-24.52-22.81-40.78-26.09s-33.13-1.67-49.47,1.2c-7.7,1.36-15.76,3.19-21.51,8.49-3.39,3.14-7.28,7.76-11.56,6a9.82,9.82,0,0,1-3.54-3.13c-7.15-8.77-14.83-17.16-26.14-17.41-3.61-7.35-2.47-16.08-.7-24.07a177.34,177.34,0,0,1,20.12-51.23c11.64-19.89,37.92-13.17,55.64-7.31,24.45,8.08,48.2,23.95,63.79,44.6,15.16,20.08,22.67,46.83,16,71.1" transform="translate(-59.61 -32.6)"/><path class="t" d="M2102.36,219.05c1.35,4.53,5.76,8.46,10.43,7.75,4-.62,6.86-4.27,8.89-7.82a12.78,12.78,0,0,0,2.08-5.87C2124.21,195.8,2096.87,200.55,2102.36,219.05Z" transform="translate(-59.61 -32.6)"/><path class="t" d="M2156.45,201.94c-3.4.89-5.53,4.35-6.36,7.76-1.27,5.26.35,11.73,5.23,14,5.28,2.5,12.19-1.64,13.22-7.39s-3.2-11.66-8.78-13.38a7.68,7.68,0,0,0-5.16,0,4.13,4.13,0,0,0-2.69,4.1" transform="translate(-59.61 -32.6)"/><path class="t" d="M2033.65,217.7a11.22,11.22,0,0,0-7.41,8.05,13.35,13.35,0,0,0,2.3,10.84,10.66,10.66,0,0,0,2.47,2.5c4.26,3,10.84,1.09,13.45-3.41s1.42-10.61-2.17-14.38a9.79,9.79,0,0,0-5.89-3.18,6.13,6.13,0,0,0-5.89,2.68" transform="translate(-59.61 -32.6)"/><path class="t" d="M2001.19,239.52c-4.19-.1-7.35,4-8.42,8a13.35,13.35,0,0,0,.7,9.56c1.52,2.9,4.74,5,8,4.62a9.76,9.76,0,0,0,4.29-1.8,13.67,13.67,0,0,0,6.12-10.45c.13-4.18-2.51-8.49-6.52-9.7s-8.93,1.38-9.68,5.5" transform="translate(-59.61 -32.6)"/><path class="r" d="M2004.4,442.22c2.56,2.77,6.9,4.2,10.22,2.41,2-1.06,3.26-3,4.46-4.9a18.8,18.8,0,0,0,3.09-6.52c.86-4.63-2.15-9.52-6.49-11.34C2000.55,415.53,1995.29,432.36,2004.4,442.22Z" transform="translate(-59.61 -32.6)"/><path class="r" d="M2051.82,402.68a10.07,10.07,0,0,0-6.53,9.55,12.86,12.86,0,0,0,5.89,10.31,11,11,0,0,0,5.23,1.91c5.76.38,10.63-5.79,9.82-11.51s-6.2-10.11-11.92-10.85c-1.88-.24-4-.08-5.33,1.26-1.67,1.66-1.49,4.36-1.18,6.7" transform="translate(-59.61 -32.6)"/><path class="r" d="M2083.31,377.65a12,12,0,0,0-1.49,19c3.19,2.87,8.32,3.75,11.88,1.34a10.43,10.43,0,0,0,3.44-4.22,12.06,12.06,0,0,0,.36-9.92,9.12,9.12,0,0,0-8-5.48,7.37,7.37,0,0,0-7.23,6" transform="translate(-59.61 -32.6)"/><path class="r" d="M2122.22,381.07a9.17,9.17,0,0,0,2.33-1.14,16,16,0,0,0,5.6-7.76,14,14,0,0,0,1.08-6.27c-1-9.88-13.59-6.52-18.47-2C2105.16,371,2111.34,384.65,2122.22,381.07Z" transform="translate(-59.61 -32.6)"/><path class="r" d="M2144.6,332c-.82-.86-2.26-.23-3.14.56a11.7,11.7,0,1,0,19.18,11.51,8.7,8.7,0,0,0,.13-4,9.39,9.39,0,0,0-1.92-3.72,12.33,12.33,0,0,0-10.06-4.85c-3.87.24-7.59,3.09-8.28,6.9" transform="translate(-59.61 -32.6)"/><path class="r" d="M2179.73,304.63a14.78,14.78,0,0,0-8.19,17.75,5.17,5.17,0,0,0,2,2.9,4.94,4.94,0,0,0,2.86.56,12,12,0,0,0,9-19.25,4.23,4.23,0,0,0-2.92-1.93,5.09,5.09,0,0,0-2.7.9c-3.29,1.87-7.06,4.78-6.32,8.5" transform="translate(-59.61 -32.6)"/><path class="t" d="M1541.33,341.92a14.82,14.82,0,0,0,7.15-1.2,21.27,21.27,0,0,0,9.77-7.48c2.28-3.31,3.36-7.29,4.07-11.24a24.32,24.32,0,0,0,.3-9.11c-2.25-11.17-22.89-13.19-28.92-4.23S1527.3,340.23,1541.33,341.92Z" transform="translate(-59.61 -32.6)"/><path class="t" d="M1592.43,337.36a12.23,12.23,0,0,0,8.06-5.68c5.48-8.7-3.59-23.07-13.8-16.95C1577.94,320,1580.26,339.42,1592.43,337.36Z" transform="translate(-59.61 -32.6)"/><path class="t" d="M1621.21,327.08a8.12,8.12,0,0,0,3,2.71c2.4,1.15,5,.35,7.29-1.21a17.77,17.77,0,0,0,3.43-3.15c5.95-7.06,5.69-20.07-6.23-18.26C1618.73,308.68,1615.73,319.44,1621.21,327.08Z" transform="translate(-59.61 -32.6)"/><path class="t" d="M1497.36,334.35c3.92,2,8.5-1.33,10.91-5,4.92-7.48-.13-20.24-10.46-16C1490.6,316.31,1490.52,330.93,1497.36,334.35Z" transform="translate(-59.61 -32.6)"/><path class="t" d="M1468.18,300.32c-4.9,1.15-7.06,7.14-6.61,12.16a13.66,13.66,0,0,0,2.57,7.27,7.87,7.87,0,0,0,6.78,3.17,9,9,0,0,0,5.51-3.17c2.8-3.12,4.17-7.67,2.9-11.66s-5.44-7.06-9.59-6.47c-2.46.36-4.93,2.41-4.67,4.89" transform="translate(-59.61 -32.6)"/><path class="r" d="M1410.66,108.84c.91,3.48,2.45,7,5.47,9a9.48,9.48,0,0,0,7.06,1.19,10.32,10.32,0,0,0,4.58-2.19,12.68,12.68,0,0,0,4-11.28C1429.82,90.83,1406.5,93,1410.66,108.84Z" transform="translate(-59.61 -32.6)"/><path class="r" d="M1437.27,134.84l-.88,1.14a12.11,12.11,0,0,1,9-14.15c3.79-.77,7.52,4.36,9.14,7.88a13.36,13.36,0,0,1-.1,11.23c-1.58,3.27-5,5.94-8.57,5.48a10.67,10.67,0,0,1-5.1-2.49c-2.25-1.78-4.39-4.33-4-7.18C1436.93,137.27,1437.06,134.32,1437.27,134.84Z" transform="translate(-59.61 -32.6)"/><path class="r" d="M1462,148.22a19,19,0,0,0-3.32,6.94,19.57,19.57,0,0,0-.88,9.09c.57,3,2.49,5.93,5.39,7,8.16,2.92,15.37-8.53,15.92-15.36A11.8,11.8,0,0,0,1468,143.63C1466.06,143.6,1463.14,146.82,1462,148.22Z" transform="translate(-59.61 -32.6)"/><path class="r" d="M1492.35,186.09c8.9,2.58,12.35-11,11.07-17.08-.53-2.53-1.57-5.25-3.89-6.37a7,7,0,0,0-5.87.3c-5.9,2.73-8.43,10.57-7,16.65A8.71,8.71,0,0,0,1492.35,186.09Z" transform="translate(-59.61 -32.6)"/><path class="r" d="M1517.86,197.46c4.25,1.1,11.64-1.9,11.93-6.94a24.23,24.23,0,0,0-1.61-10.18,9,9,0,0,0-3-4.29c-2.65-1.81-6.45-.88-8.83,1.27-2.64,2.37-5.64,7.33-5.63,11A9.77,9.77,0,0,0,1517.86,197.46Z" transform="translate(-59.61 -32.6)"/><path class="t" d="M1688.23,325.3c1.66,1.81,3.7,3.66,6.16,3.61a9.32,9.32,0,0,0,4.48-1.73c12.69-7.7,25.59-16.06,33.76-28.45,4.49-6.81,7.35-14.56,9.75-22.35a132.47,132.47,0,0,0,5.81-28.16,95,95,0,0,0-25.8-72.4c2.64,9.93.66,20.43-1.32,30.52-3.18,16.13-7.19,33.67-20.11,43.83-7,5.48-16.08,7.56-22.94,13-5.53,4.42-5.79,10.76-6,17.69A64.14,64.14,0,0,0,1688.23,325.3Z" transform="translate(-59.61 -32.6)"/><path class="t" d="M1384.55,301.38c6.69,3.85,15.26,7.5,21.69,3.22,3.2-2.14,5-5.82,6.35-9.43,2.24-5.95,3.65-12.6,1.61-18.62-2.25-6.65-8.3-11.29-14.57-14.43s-13.09-5.22-19-9c-6.79-4.27-12.17-10.55-19.07-14.66-9.16-5.45-20.61-6.6-30.9-3.79-4.72,1.28-23.09,8.35-22.25,15.06.59,4.73,13.35,7.61,16.84,10C1345.3,273.51,1363.28,289.14,1384.55,301.38Z" transform="translate(-59.61 -32.6)"/><path class="r" d="M937.45,501.22c-8,7.84-.92,16.1,8,17a18.57,18.57,0,0,0,6.61-.29,11.42,11.42,0,0,0,8.18-10.42C960.58,494.91,944.19,494.63,937.45,501.22Z" transform="translate(-59.61 -32.6)"/><path class="r" d="M968.42,546.75c14.58,5.16,21.27-13.93,8.24-20.79a11.93,11.93,0,0,0-13,1.46C956.48,533.59,960.17,543.83,968.42,546.75Z" transform="translate(-59.61 -32.6)"/><path class="r" d="M1008.24,574.17c7.71-2.64,6.79-12.82,1.1-16.94a11,11,0,0,0-13,.19c-8.57,6.8-2,14.47,6,16.45C1004.29,574.36,1006.35,574.81,1008.24,574.17Z" transform="translate(-59.61 -32.6)"/><path class="r" d="M1035.5,596.94c5.62-6.44-1.74-15.17-8.87-15.83a8.81,8.81,0,0,0-8.81,5.49C1013.74,597.31,1028.15,605.37,1035.5,596.94Z" transform="translate(-59.61 -32.6)"/><path class="r" d="M969.46,748.27c10.06-8-1-22.09-11.79-18.89a13.53,13.53,0,0,0-9.26,10.47c-.9,5.32,2.49,9,7.45,10.1C960.47,751,965.76,751.21,969.46,748.27Z" transform="translate(-59.61 -32.6)"/><path class="r" d="M993,787.5c12.61-10.43-8.72-23.53-17.45-14-6.24,6.83-.33,15,7.21,16.41A12.61,12.61,0,0,0,993,787.5Z" transform="translate(-59.61 -32.6)"/><path class="r" d="M1020,815c-.89-7.23-11.05-13.33-17.83-10.17-16.15,7.54-1.37,30.2,13.53,20A10.52,10.52,0,0,0,1020,815Z" transform="translate(-59.61 -32.6)"/><path class="r" d="M1040,844.75c-1.71-9.53-16-10.28-19.15-1.41a10.63,10.63,0,0,0,2.29,10.67C1030.91,862.12,1041.88,855.23,1040,844.75Z" transform="translate(-59.61 -32.6)"/><path class="t" d="M827.7,666.27c4.88-1.91,8.4-5.94,8-12.79a7.43,7.43,0,0,0-.61-2.68,8.37,8.37,0,0,0-1.95-2.48c-6.53-6.09-21.55-7.94-27.53,0-5.7,7.55,2.51,17.91,10.35,19A23.68,23.68,0,0,0,827.7,666.27Z" transform="translate(-59.61 -32.6)"/><path class="t" d="M811.58,605.16c.47,7.53,11.24,10.2,15,3.72,3.57-6.17-1.31-12.74-8-11.19C813.37,598.87,811.39,602,811.58,605.16Z" transform="translate(-59.61 -32.6)"/><path class="t" d="M811.57,569.62c.91,7.56,14.3,8.5,14.25-.56C825.76,558.06,810.25,558.63,811.57,569.62Z" transform="translate(-59.61 -32.6)"/><path class="t" d="M827.63,535.61c3.79-3.52,1-8.25-1.57-11.41-1.61-2-4.24-3.39-6.73-2.81a6.59,6.59,0,0,0-4.06,3.24c-2.53,4.34-.43,11.3,4.54,12.92A8.39,8.39,0,0,0,827.63,535.61Z" transform="translate(-59.61 -32.6)"/><path class="t" d="M820,707.27c8.2,1.09,19.92-7.42,9.65-14.74-3.71-2.64-8.93-2.34-13-.29a10.55,10.55,0,0,0-5.43,5.51C809,703.74,815.19,706.64,820,707.27Z" transform="translate(-59.61 -32.6)"/><path class="t" d="M812.5,735.38c-9.89,12.21,15,22.25,18.08,9.29.85-3.57,1.34-7.73-1-10.57a9.13,9.13,0,0,0-6.61-2.92A12.52,12.52,0,0,0,812.5,735.38Z" transform="translate(-59.61 -32.6)"/><path class="t" d="M825.17,783.87c12.37-2.69,3.84-16.79-5-16.61a8.16,8.16,0,0,0-7.55,6.16C810.92,780.93,818.88,785.23,825.17,783.87Z" transform="translate(-59.61 -32.6)"/><path class="t" d="M313.58,1035.31c4.61,4.12,11.66,3.86,17.63,2.26,4.24-1.14,8.44-2.89,11.63-5.91,12.41-11.77-4-28.21-17.62-25.87C313.76,1007.76,303.56,1026.37,313.58,1035.31Z" transform="translate(-59.61 -32.6)"/><path class="t" d="M301.34,976a15,15,0,0,0-11.63,7.91c-.94,1.82-1.47,4.07-.51,5.88a6.49,6.49,0,0,0,3.08,2.57,15.55,15.55,0,0,0,18.1-4.08,9.56,9.56,0,0,0,2.14-4.26,7.78,7.78,0,0,0-4.31-8,9.78,9.78,0,0,0-9.31.71" transform="translate(-59.61 -32.6)"/><path class="t" d="M279.81,953.07c-5.13-.88-10,3.4-11.58,8.37a9.31,9.31,0,0,0,.44,7.45c1.77,3,5.76,4.07,9.12,3.27s6.16-3.13,8.45-5.72c2-2.22,3.74-5.12,3-8-1.07-4-6.13-5.13-10.26-5.24a4.29,4.29,0,0,0-2.36.4,1.52,1.52,0,0,0-.64,2.06" transform="translate(-59.61 -32.6)"/><path class="t" d="M350.81,1044.51a11.87,11.87,0,0,0,.19,5c1.23,4.47,5.9,7.53,10.54,7.46a14.23,14.23,0,0,0,11.43-6.85c3.18-5.06,3.16-12.28-.93-16.64C364.37,1025.29,352.14,1036.09,350.81,1044.51Z" transform="translate(-59.61 -32.6)"/><path class="t" d="M395.64,1048a14.76,14.76,0,0,0-12.11,11.52c-.49,2.53-.2,5.38,1.5,7.32a7.75,7.75,0,0,0,3.79,2.27c4.89,1.4,10.21-.87,13.88-4.37a10.83,10.83,0,0,0,3.29-5.13c.9-3.82-1.57-7.7-4.66-10.12a7.51,7.51,0,0,0-4.35-1.87,3.41,3.41,0,0,0-3.51,2.66" transform="translate(-59.61 -32.6)"/><path class="u" d="M1003.44,1113.35c5-11.79,10.13-23.72,18-33.84,14-18,36.92-31,41-53.46,1.28-7-1.93-19.3,1.47-25.48,4-7.17,10.53-.16,15.62,4.27,23.72,20.65,23.09,46.21,19.57,75-3.21,26.3-9.84,54.27-25.55,76-9.13,12.61-20.62,23.24-33,32.55-10.42,7.82-21.37,18.52-33.29,23.67-4,1.72-8.38,3-12.62,2-5.61-1.2-9.91-6-11.84-11.44s-1.87-11.29-1.39-17C983.43,1160.45,993.63,1136.35,1003.44,1113.35Z" transform="translate(-59.61 -32.6)"/><polygon class="v" points="1211.39 1602.4 1211.39 652.85 1407.39 647.4 1719.18 1124.9 1600.39 1241.4 1753.96 1602.4 1582.9 1602.4 1436.39 1189.4 1510.39 1095.4 1367.24 890.22 1366.39 1597.4 1211.39 1602.4"/><polygon class="v" points="1372.34 505.25 1569 503.55 1755.45 788.57 1942.44 505.85 2142.39 505.85 2142.39 1684.29 1951.66 1382.63 1934.84 794.81 1757.36 1080.97 1372.34 505.25"/><path class="v" d="M2267.8,1754.73l.08-21.42c0-2.32.07-4.82,1.42-6.72,2.16-3,7-3.16,10-1s4.68,5.82,5.53,9.46c1.24,5.31,1.08,11.29-2.1,15.71s-10,6.38-14.32,3" transform="translate(-59.61 -32.6)"/><path class="w" d="M891.66,1676.74c6.41,12.5,5,27.46,2.56,41.28-8.8,49.32-29.33,96-38.12,145.28-1.93,10.85-3.27,22.13-.55,32.82s10.32,20.75,21,23.53c9.61-17.56,9.82-38.49,13.07-58.24A185.28,185.28,0,0,1,947,1755.58q-8.57,32.25-15.67,64.87c-2,9.08-3,20.51,4.68,25.74,6.74,4.58,16.5.85,21.38-5.67s6.22-14.93,7.8-22.92A262.82,262.82,0,0,1,1009.86,1715c4.63-6.4,13-13.22,19.39-8.61-11.58,58.78-41.56,113.46-47,173.12-1.24,13.56-.14,29.46,10.92,37.41a11.09,11.09,0,0,0,5.38,2.27c8.34.72,11-10.8,11.3-19.16,1.71-54.83,30.84-105,40-159.12,2.68-15.81,3.3-33.24-5.56-46.59-3.34-5-8.75-9.52-14.75-8.84-5.82.66-9.95,5.81-13.35,10.58a878.68,878.68,0,0,0-50.93,80.33c1.27-7.31,2.54-14.85.88-22.08s-7-14.14-14.37-15.24c-11.16-1.67-19.46,9.7-24.94,19.57l-34,61.37,20.78-93.82c3.53-16,6.82-33.67-1.38-47.8-3.87-6.67-10.61-12.08-18.31-12.6-8.25-.57-15.82,4.36-22.26,9.56a163.33,163.33,0,0,0-32,34.6c-5.82,8.49-11,17.94-11.49,28.21-.52,10.05,7,28.62,19.53,24.29C831.17,1734.18,868.52,1689.09,891.66,1676.74Z" transform="translate(-59.61 -32.6)"/><path class="w" d="M1281,1843c-.56,9.9-.28,20.75,6,28.39s20.79,8.57,24.87-.46c1.42-3.15,1.3-6.75,1.28-10.21a149.82,149.82,0,0,1,22.23-79.23c2.53-4.08,6.43-8.56,11.12-7.6,5.29,12.76,2.49,27.31-1,40.66a418.59,418.59,0,0,1-15.14,46.17c-2.27,5.77-4.8,11.68-9.38,15.87-10.43,9.53-26.92,6.65-40.2,1.8,3.56,1.3,9.74,13.76,15,16.71,7.14,4,16.65,6.16,24.8,4.55,17.7-3.5,31.81-22,38.89-37.39,7.26-15.82,10.08-33.29,11.83-50.61,1-9.69,1.59-19.75-1.73-28.9s-11.57-17.2-21.31-17.28c-8.57-.07-16.06,5.81-21.6,12.35a75.08,75.08,0,0,0-17.14,39.41c-2.36-34,20.37-64.33,28.09-97.54,1.79-7.71,2.44-16.77-2.89-22.63-17-18.63-31.83,43.84-34.81,52.94C1290,1780.09,1282.78,1811.24,1281,1843Z" transform="translate(-59.61 -32.6)"/><path class="w" d="M1079.56,1821.1c-2.19,11.68-4.39,23.65-2.4,35.36s9.07,23.3,20.26,27.27c2.8,1,6,1.46,8.67.19s4.19-3.8,5.67-6.25l15.54-25.75c4.79,6.44,6.31,14.69,9.81,21.91s10.65,14,18.54,12.52c13.41-2.52,13.87-24.24,26.44-29.58,2,20.67,26.11,34.28,46.37,29.72s35.25-22.84,41.37-42.69c1.49-4.82,2.25-10.81-1.45-14.24a122.39,122.39,0,0,1-28.66,35.34c-7.06,6-17.56,11.16-25,5.63-2.78-2.07-4.44-5.29-5.77-8.49-11.42-27.5-2.72-62,20.37-80.82,2-1.66,4.36-3.27,7-3.33,7.68-.19,9.14,11.15,6.46,18.35a61.76,61.76,0,0,1-23.21,29.48c-3.59,2.42-8,6.55-5.6,10.15,2,3,6.64,1.88,9.86.24a98.65,98.65,0,0,0,24.33-17.45c6.21-6.09,11.73-13.23,14.09-21.6s1.1-18.13-4.84-24.47c-9.23-9.85-25.52-8.15-37.74-2.42a78.36,78.36,0,0,0-40.82,46.44c-6.18,19.28-6.48,43.48-23.67,54.16-8.13-13-5.15-30-.11-44.43s12-29,10.9-44.32c-.41-5.89-2.22-12-6.61-16s-11.83-4.83-16.08-.73c-2.86,2.75-3.7,6.92-4.47,10.81a349.94,349.94,0,0,1-34.29,96.42c-7.79-11.5-8.5-26.5-6.13-40.19s7.48-26.75,10.46-40.31c2.56-11.7-6.51-39-20.2-22.54C1081.15,1778.6,1081.72,1809.58,1079.56,1821.1Z" transform="translate(-59.61 -32.6)"/><path class="w" d="M1389.56,1823.48c-2.94,19.69-4,42.88,10.91,56.11a17.93,17.93,0,0,0,9.32,4.75c8.19,1.08,15.12-5.92,19.58-12.88a92.22,92.22,0,0,0,13.92-39.1c-5-2.7-10.14,3.41-12.64,8.56l-8.91,18.42c-1.5,3.1-3.53,6.59-6.94,7-5.71.7-8-7.13-7.9-12.88,1.08-39.36,9.52-79,22.74-116.06,3-8.4,6.33-17.13,5.21-26s-8.08-17.3-17.37-16.53c.81,18.12-9.78,40-14.14,58Q1394.88,1787.89,1389.56,1823.48Z" transform="translate(-59.61 -32.6)"/><path class="w" d="M1556.1,1861.36c9.23-8.83,16.46-19.49,23.63-30.06l-6.39,17.25c-2.5,6.75-5,13.58-9.15,19.49-9.63,13.85-28,21-44.46,17.23s-29.94-18.1-32.64-34.75c-1.91-11.74,1.17-23.75,5.52-34.83a132.39,132.39,0,0,1,24.61-40.51c5.1-5.65,11.06-11,18.41-13,12.59-3.43,26.59,4.58,32,16.46s3.08,26.33-3.88,37.36-18,19-29.85,24.5c-2.65,1.23-5.53,2.39-8.41,1.9s-5.56-3.27-4.85-6.11c.56-2.21,2.79-3.5,4.75-4.68,13.78-8.23,38.71-41.6,23-58-10-10.42-16.88,3.65-21.32,13-7.65,16.15-12.37,36.7-11.42,54.6C1516.93,1866.08,1535.09,1881.47,1556.1,1861.36Z" transform="translate(-59.61 -32.6)"/><path class="w" d="M1583.94,1817.45c-.07,3.28.34,6.69,2,9.49,5.22,8.51,18.12,6.61,27,11.19,12.63,6.51,13.41,26.27,3.64,36.58s-26,12.12-39.69,8.46c5,5.75,12.24,8.87,19.4,11.39,12.06,4.25,26.32,7.09,36.94,0,11.33-7.6,13.64-23.37,12.12-36.92-.59-5.32-1.83-11-5.81-14.57-3.07-2.75-7.26-3.78-11.12-5.22-8.47-3.16-16.39-9.23-19.26-17.8s1-19.57,9.52-22.51a22,22,0,0,0,23.62,28.38c-7.18-9.72-5.61-23.42-1.27-34.7,2.7-7,6.39-14,6.55-21.49s-4.4-15.25-12.07-15.81c-2.43,18.38-17.45,9.81-28.8,18C1594.88,1780.54,1584.25,1803.11,1583.94,1817.45Z" transform="translate(-59.61 -32.6)"/><path class="w" d="M1938.41,1687.36c16.1-3.1,33.48-5.3,48.32,1.69,3.16,1.49,6.26,3.49,8,6.51,3.68,6.29.4,14.25-3.25,20.56a187.16,187.16,0,0,1-111.66,85.8l21.91-78.21c1.42-5,2.55-11.21-1.19-14.87-3.6-3.5-10-2.3-13.56,1.2s-5.16,8.55-6.58,13.38l-23.81,81.06a76.83,76.83,0,0,0-21.76-14.14A93.77,93.77,0,0,1,1855.1,1851c-.35,12.17-3.09,24.32-1.9,36.44s7.67,24.94,19.29,28.59l3.45-85.86c15,20.61,30.24,41.4,49.48,58.16,5.55,4.83,12.49,9.58,19.68,8,6.52-1.41,11-7.83,12.21-14.38s-.16-13.29-1.54-19.81c-4,9.7-17.2,12.86-26.88,8.83s-16.26-13.15-21.09-22.46-8.49-19.34-14.89-27.65a264.54,264.54,0,0,0,96.41-58c10.81-10.21,21-21.8,25.62-35.94s2.34-31.37-8.81-41.21c-5.69-5-13.06-7.69-20.43-9.48-27-6.58-55.55-2.61-82.54,4.18-20.31,5.11-103.86,30.47-87.48,65.79,18.37-11.6,32.64-27.39,53.11-37.08C1890.82,1698.65,1914.53,1692,1938.41,1687.36Z" transform="translate(-59.61 -32.6)"/><path class="w" d="M2002.65,1813.12c8.17-14.89,22.29-27.08,39-30.14-3.24-6.16-10.37-9-17-11.2-4.49-1.47-9.19-2.86-13.87-2.19-6.76,1-12.16,6-16.58,11.23a109.53,109.53,0,0,0-25.31,78.58c.9,11.25,5.68,24.51,16.78,26.54,7.8,1.43,15.42-3.64,20.49-9.74s8.61-13.42,14.1-19.15c2,14.5,14.81,26.79,29.39,28.21a65.22,65.22,0,0,1,4.3-59.35c-2.82-7.81-14.75-7.87-21-2.4s-8.66,14-12.28,21.41a66.44,66.44,0,0,1-10.26,15.32c-2.58,2.89-5.52,5.62-9.17,6.9C1980,1874.61,1997.94,1821.73,2002.65,1813.12Z" transform="translate(-59.61 -32.6)"/><path class="w" d="M2075.7,1849.28c-.21,14,3.74,31,17.18,34.86a139.81,139.81,0,0,1,38.49-74.86q-1.57,14.33-2,28.75c-.17,5.78-.12,11.91,2.89,16.85s10.05,7.86,14.78,4.54c2.89-2,4.09-5.65,5.09-9,5.52-18.81,10.69-39.4,26-51.62a375.24,375.24,0,0,0-7,52.78c-.77,12.38-.85,25.18,3.68,36.73s14.65,21.67,27,22.79c-6.51-39.79-12.51-83,6.64-118.48,3.42-6.33,7.69-12.65,8-19.83s-5.91-15.15-12.9-13.44c-2.63.65-4.78,2.49-6.79,4.32a211.41,211.41,0,0,0-42.3,53.28c-6.26-8.36,1.36-22.9-6.6-29.67-4-3.41-10.33-2.68-14.71.25s-7.26,7.56-10,12l-25.45,41.57c-2.12-18.25,9.49-35,13.72-52.89,5.55-23.42-13.21-22.54-21.13-4.54A169.47,169.47,0,0,0,2075.7,1849.28Z" transform="translate(-59.61 -32.6)"/><path class="w" d="M2257,1796.09c-5.62,24-11.15,49.59-2.54,72.63,2,5.48,5.13,11,10.26,13.75,6.05,3.3,13.84,2.08,19.61-1.68s9.81-9.67,12.92-15.82a82.82,82.82,0,0,0,8.54-29.71,4.71,4.71,0,0,0-.23-2.48c-.84-1.76-3.52-1.81-5-.6s-2.2,3.17-2.87,5a79.74,79.74,0,0,1-22.68,32.75c-4-4.92-3.74-11.9-3.14-18.19a336.13,336.13,0,0,1,7.7-46.22c1.67-7,3.58-14,2.93-21.17-.59-6.6-6.82-20.5-15.82-17.73C2259.76,1768.72,2258.23,1790.68,2257,1796.09Z" transform="translate(-59.61 -32.6)"/><path class="w" d="M2367.64,1776.12c3.64-5.95,11.11-11.94,16.79-7.9,4.67,3.33,3.56,10.45,1.88,15.93-5.61,18.29-12.12,37.12-9.67,56.1a169.93,169.93,0,0,1,43-68.83c3.65-3.55,7.65-7,12.54-8.41s10.91-.09,13.55,4.26,1.27,9.67-.49,14.28c-2.62,6.84-6.47,13.75-13,17.12s-16.1,1.41-18.66-5.45L2374.17,1878a5.79,5.79,0,0,1-2.46,3.11,5.4,5.4,0,0,1-3.73-.15,36.37,36.37,0,0,1-14.31-8.3c5.56-12.74-.48-34.3.47-48.69C2355.24,1807.22,2358.83,1790.6,2367.64,1776.12Z" transform="translate(-59.61 -32.6)"/><path class="w" d="M2467,1795.76c8.53-15.62,23.18-28.35,40.56-32.15a25,25,0,0,1,11.71-.21c8.53,2.29,13.86,11.4,14.3,20.22s-3,17.36-6.91,25.27c-7.53,15.22-19.62,31-36.58,31.82a5.84,5.84,0,0,1-3.55-.68c-1.95-1.33-1.81-4.43-.38-6.31s3.67-2.89,5.76-4c16.64-8.78,26.81-28.44,24.36-47.09-.56-4.31-3.34-9.63-7.6-8.71a8.49,8.49,0,0,0-4,2.77c-11.16,11.55-20.82,25-25.44,40.37s-3.72,32.9,4.92,46.44c2.66,4.16,6.53,8.17,11.46,8.56,3.21.25,6.33-1.09,9.2-2.57a85.47,85.47,0,0,0,38.24-40c2.38,13.81-6.16,27-15.38,37.59-5.91,6.77-12.61,13.36-21.14,16.2-21.12,7-42.52-11-49-30.27C2451.55,1835.53,2458.48,1811.37,2467,1795.76Z" transform="translate(-59.61 -32.6)"/><path class="w" d="M2637.47,1912.33a49,49,0,0,1-22.68,33.82c-10.27,6.11-24.65,5.78-36.08,3.94-2-.32-3.12-.67-4.21-2.34l1.1,1c-7.78-3.8-15-7.5-20.17-14.69a16,16,0,0,1-1.52-15.52c2.11-4.69,6.35-8,10.61-10.9A136.43,136.43,0,0,1,2583,1897.5a133.43,133.43,0,0,1,29.6-9.82,2.17,2.17,0,0,1,1.63.1,2.09,2.09,0,0,1,.66,1,12.65,12.65,0,0,1,.75,6.09c-9.63-.81-19.3,2-27.83,6.54s-16.75,9.37-23.09,16.65c-2.09,2.4-4.32,5.36-3.52,8.43a6.63,6.63,0,0,0,4.82,4.35,18.88,18.88,0,0,0,6.75.24c11.1-1,20.94-3.61,30.42-9.46a28.89,28.89,0,0,0,8.74-40.93c-3.66-5.44-10.12-8.7-15.82-11.66l-16.36-8.5c-2.16-1.13-14-5.55-13.3-8.74,6.68-4.5,12.49-10.17,18.25-15.8,16.25-15.88,32.4-33,42.72-53.49a31.1,31.1,0,0,0,3.09-8.69c-3.42-1.67-7.49-.52-11.1.71q-15,5.13-29.56,11.57a37.1,37.1,0,0,1-6.82,2.55c-3.15.71-3.22.31-4.1,3.59-1.33,4.92-2.93,9.75-4.72,14.52-3.52,9.39-7.75,18.48-12.1,27.51a10.87,10.87,0,0,1-2.32,3.54,3.31,3.31,0,0,1-5.8-2.57,10.63,10.63,0,0,1,1-4c6.37-15.43,14.62-30.44,16.87-47a37,37,0,0,1-10-8c-2.75-3.26-4.48-7.61-3.7-11.79,3.61,4.2,9,6.48,14.36,7.28,2.45.36,4.31-.18,6.67-.35,3.49-.26,7,.32,10.51,0a96.13,96.13,0,0,0,12.68-2.43c6.79-1.61,13.58-3.22,20.31-5.07a120.52,120.52,0,0,1,14.23-3.49,28,28,0,0,1,13.72,1,18,18,0,0,1,7.53,4.36,87.5,87.5,0,0,0-9,2.19c-2.15.68-5.89,1.2-7.55,2.77a2.76,2.76,0,0,0-.89,2.65,4.22,4.22,0,0,0,2.06,2.15l4.6,2.93c3.22,2,3.14,6.5,2.16,10.19-1.56,5.92-5.67,11-8.47,16.36a133.41,133.41,0,0,1-10.21,16.35c-7.59,10.49-16.4,20-25.36,29.33-2.72,2.82-5.54,5.77-6.68,9.51,5.85.9,11.93,4,17.11,6.87a39.58,39.58,0,0,1,5.32,3.34c4.58,3.6,7.3,9,9.63,14.38,2.19-2.18,6.09-1.84,9.18-1.77l10.09.23a67.74,67.74,0,0,1,9.87.69,41.52,41.52,0,0,1,15.43,6.22c2.89,1.85,5.68,4.11,7.16,7.2,1.27,2.68,1.45,5.73,1.6,8.68.1,2,.16,4.12-.92,5.78a43.25,43.25,0,0,0-17.91-15.86c-.31-.15-.75-.27-1,0s.51.55.4.21c-1.09-3.37-7.34-3-10-3.36a69.82,69.82,0,0,0-18.32.12A44.25,44.25,0,0,1,2637.47,1912.33Z" transform="translate(-59.61 -32.6)"/><path class="u" d="M1240.68,1944.64c3.09-1.09,6.58-2,9.56-.6,6.23,2.87,4.93,12.11,1.94,18.28-3.77,7.8-8.65,15.12-11.33,23.35s-2.82,18,2.42,24.86c-9,1.88-15.91-9.29-14.66-18.4s7.26-16.75,10.82-25.22c1.07-2.55,1.86-5.66.27-7.91s-5-2.53-7.43-1.37-4.24,3.42-5.84,5.63a133.23,133.23,0,0,0-24.61,66.92c-.32,3.93.13,8.86,3.77,10.37,3,1.25,6.38-.74,8.83-2.91,3.85-3.41,7.22-7.55,11.86-9.77s11.22-1.68,13.68,2.83c1.55,2.84,2.83,7.61,5.85,6.45a4.27,4.27,0,0,0,2-2.07c3-5.45,3.86-12,7.51-17.06,7.16-9.92,24.86-8.83,30.75,1.89-22.26,10.62-35.18,37.79-29.38,61.75l17.35-29.34c2.44-4.13,6.3-8.88,10.93-7.63,5,1.34,5.54,8.1,5.06,13.24l-3,31.89c-4.09,2.76-9.5-1.48-11.4-6s-2.48-10-6.17-13.24L1260,2087c-1.22,2.12-2.55,4.34-4.7,5.49-3.4,1.81-7.8.24-10.41-2.59s-3.82-6.64-5-10.31c-8.61,8.29-9.5,23-19.37,29.7-6.25,4.26-15,4-21.51.26s-11.06-10.53-13.07-17.81c5,10.31,21.16,9.87,29.43,1.94s10.73-20,12.77-31.27l3.18-17.59c.74-4.11-.14-10.21-4.31-9.89-2.38.19-3.82,2.6-5.24,4.52-8.28,11.12-25.94,9.41-32.6-2.57-4.85-8.72-.46-22.66,1.3-31.91C1195.57,1978.2,1214.7,1953.83,1240.68,1944.64Z" transform="translate(-59.61 -32.6)"/><path class="u" d="M1311.92,2092a125.43,125.43,0,0,1,22.8-62.5c1.85,2.54,4.09,5.33,7.23,5.54,3.38.24,6.13-2.65,7.93-5.53,2.25-3.61,3.92-7.84,3.32-12s-4-8.21-8.3-8.27c-3.11,0-5.9,1.9-8.14,4.06-11.66,11.24-14.27,29-23.9,42l5.62-24.46c1-4.3,2-8.92.35-13-.88-2.25-2.71-4.3-5.1-4.68-4.88-.78-7.85,5.15-9,10a235.62,235.62,0,0,0-6.25,42.09C1297.59,2080.22,1298.87,2084.11,1311.92,2092Z" transform="translate(-59.61 -32.6)"/><path class="u" d="M1358.56,2077.11c-7.54-9.77-6.45-23.68-2.79-35.46,2.67-8.59,6.73-17.11,13.68-22.81s17.33-7.93,25.14-3.47,10.77,16.53,4.46,22.94c-1.29,1.31-3.08,2.38-4.89,2-3.24-.62-4-4.95-3.54-8.22s1.27-7.12-1.06-9.47c-2.08-2.1-5.77-1.68-8.12.13s-3.65,4.61-4.83,7.33c-6.28,14.44-11.47,30.63-6.92,45.71a11.42,11.42,0,0,0,3.22,5.67c2.39,2,5.95,2.05,8.84.92s5.27-3.27,7.5-5.44a144.67,144.67,0,0,0,19.7-23.7c1,10.42-4.57,20.5-11.87,28-4.19,4.3-9.12,8.1-14.88,9.76s-12.47.92-17-3c-2.89-2.51-4.67-6-6.15-9.55a86.08,86.08,0,0,1-5-16.22,1.91,1.91,0,0,1,.19-1.66c.39-.43,1.35-.1,1.15.44" transform="translate(-59.61 -32.6)"/><path class="u" d="M1429.32,1973c1.51-3.67,3.93-7.89,7.91-8,3.39-.07,6.08,3.25,6.56,6.61s-.64,6.72-1.71,9.94a349.69,349.69,0,0,0-15.88,74.33,273.46,273.46,0,0,1,9.12-27.65c2-5.08,4.35-10.38,8.87-13.42s11.81-2.56,14.26,2.31c1.55,3.08.74,6.77,0,10.13a233.67,233.67,0,0,0-5.44,39c-.33,6.21,1.88,14.78,8.07,14.22,9.46-17.76,3.3-39.73,7.57-59.39.91-4.19,2.86-8.85,7-10s8.5,1.92,10.11,5.88,1.09,8.44.25,12.62c-3.09,15.42-10.22,30.77-7.25,46.22.62,3.21,3,7.1,6.11,6.14,1.69-.52,2.62-2.29,3.37-3.89l10.93-23.34c0,6.82-.13,13.77-2.34,20.22s-7,12.4-13.56,14.21-14.68-1.85-16.18-8.49c.27,7.44-7.8,13.94-15,12.07-9.78-2.53-12.25-15.14-12.18-25.23a236.71,236.71,0,0,1,3.08-36.35,145,145,0,0,0-17.82,50.78c-.62,4.09-1.31,8.66-4.58,11.19-9.92,7.71-9-11.72-9.16-15.58a243.89,243.89,0,0,1,18-104.55Z" transform="translate(-59.61 -32.6)"/><path class="u" d="M1483.26,1984.15c-3.45-.7-6.7,2.38-7.73,5.75-1.59,5.14,1.81,11.91,7.19,11.82a8.82,8.82,0,0,0,4.67-1.62c3.89-2.58,6.19-7.88,4.28-12.14s-8.64-5.72-11.45-2" transform="translate(-59.61 -32.6)"/><path class="u" d="M1599.66,1972.08c1.08-2.31,2.55-4.87,5.06-5.31s5.1,1.88,5.78,4.46,0,5.32-.6,7.92l-19.22,78.6,18.1-38.75c2-4.22,5.23-9.18,9.83-8.45,5.08.8,6.27,7.53,5.92,12.65-1.24,18.06-6.24,36-4,54,.22,1.77.7,3.8,2.32,4.54,2.2,1,4.53-1.12,5.83-3.16,6-9.35,7.1-20.87,9-31.82s5.11-22.55,13.76-29.51,24.11-6,28.44,4.2c-8.83.14-15.42,8.08-19.74,15.79a111.34,111.34,0,0,0-12.47,35.09c-.63,3.65.63,9.08,4.26,8.33,1.6-.33,2.6-1.88,3.42-3.28l16.5-28.21c2.42-4.15,7.13-8.93,11.15-6.29l-3.09,39.9c-.13,1.65-.39,3.56-1.8,4.44-2.66,1.68-5.48-1.87-6.64-4.79l-5.35-13.53c-6,6.15-6,17.24-13.37,21.66-6.61,3.95-16.58-1.69-16.59-9.4-3.29,4.24-7.45,8.89-12.81,8.6-7.32-.39-10.58-9.32-11.43-16.61a134.83,134.83,0,0,1,2.6-46,97.08,97.08,0,0,0-16.61,44.53c-.57,5.25-.78,10.81-3.59,15.28-7.79,12.39-15.06,2.5-15.63-6.75a215.89,215.89,0,0,1,1.16-37.62A226.91,226.91,0,0,1,1599.66,1972.08Z" transform="translate(-59.61 -32.6)"/><path class="u" d="M1688.56,2024.39c2.69-4.75,7.23-9.53,12.64-8.78,2.5.35,5.24,1.84,7.35.44,2.73-1.81,1.36-6.45,3.51-8.92s6.54-1.06,8.13,1.77,1.24,6.31.84,9.54l-3.6,28.78c-.28,2.24-1.41,5.17-3.63,4.81a4,4,0,0,1-2.34-1.8,26.43,26.43,0,0,1-5-17.81c-1.29-.19-2.33,1-3.1,2-2.25,3.06-4.56,6.23-5.45,9.93s0,8.09,3.12,10.27c1.85,1.29,4.17,1.63,6.3,2.36,9.21,3.12,14.47,14.17,12.2,23.63s-11,16.64-20.63,18.29a18.13,18.13,0,0,1-11-1.13c-3.36-1.63-6-5-6.1-8.73a19.23,19.23,0,0,0,21,1.51,16.93,16.93,0,0,0,5.76-5.4c9.58-14.79-6-20.63-15.34-26.62C1681.19,2050.83,1682.12,2035.77,1688.56,2024.39Z" transform="translate(-59.61 -32.6)"/><path class="u" d="M1754.6,2000.38c-1-1.21-2.71-1.58-4.27-1.84-3.81-.63-7.76-1-11.17-2.84s-6.19-5.52-5.54-9.33a42.82,42.82,0,0,0,18.76,3.7,6.76,6.76,0,0,0,3.66-.88c2.92-2,1.41-6.54,1.8-10.07.47-4.21,4.74-7.7,8.91-7s7.15,5.68,5.47,9.56c-.69,1.57-1.94,3.5-.76,4.75a3.31,3.31,0,0,0,2.51.7l32.35.06a53.76,53.76,0,0,1-35.34,14.89,283.22,283.22,0,0,0-12.11,68.86c-.22,4.55,1.6,10.93,6.08,10.11,2.63-.48,4-3.37,4.86-5.89,2.1-5.81,4-11.77,6.43-17.44,6.16,18.82-20,45.3-27.56,18.34-2.8-9.89-2.34-21.19-1.38-31.3C1748.08,2036.51,1759.57,2006.19,1754.6,2000.38Z" transform="translate(-59.61 -32.6)"/><path class="u" d="M1804.87,2060.09a54.11,54.11,0,0,0,1.52,26.44,11.4,11.4,0,0,0,3.17,5.59c3,2.48,7.69,1.67,10.72-.76s4.8-6,6.51-9.53,3.57-7.08,6.7-9.37c.16,4.27.78,8.67,3,12.33s6.33,6.42,10.58,6a3.88,3.88,0,0,0,2.16-.8c1.37-1.19,1-3.36.6-5.13a89.88,89.88,0,0,1-.29-39.34c-4.67-1.14-8.31,3.86-10.71,8a143.18,143.18,0,0,1-17.44,24.14,3.34,3.34,0,0,1-1.54,1.15c-1.78.43-2.81-2-3-3.78a58.55,58.55,0,0,1,14.53-44.11c2.13-2.36,4.54-4.61,7.53-5.71a10.09,10.09,0,0,0,2.52-1.08c1.86-1.33,2-4.28.66-6.17a9.07,9.07,0,0,0-5.82-3.33c-9.11-1.86-18.49,3.69-23.77,11.36s-7.26,17.07-8.83,26.24c-1.75,10.27-3.06,21.14.66,30.88" transform="translate(-59.61 -32.6)"/><path class="u" d="M1923.05,2016.71c-4,2.79-6.93,6.89-9.36,11.13-4.72,8.22-7.66,19.18-1.9,26.7,5.38,7,16.28,8.08,21.28,15.36,4.36,6.33,2.2,15.83-3.85,20.57s-14.93,4.89-21.79,1.41c-.75,4.6,3.07,8.86,7.39,10.59,5.83,2.33,12.68,1.3,18.07-1.92s9.4-8.42,12-14.12c3.32-7.25,4.16-16.76-1.48-22.4-4.37-4.37-11.35-5.12-16-9.18-6.86-6-5.48-18.74,2.49-23.1-.07,3.86-.12,7.81,1.11,11.48s4,7.05,7.74,7.94a4.75,4.75,0,0,0,2.82-.07c3.31-1.29,2.44-6.07,1.83-9.57-1.67-9.54,3.43-18.93,4.08-28.6.2-2.88-.42-6.41-3.12-7.45-6.12-2.37-4.86,5.69-7.47,7.57C1933.47,2015.5,1927.24,2013.78,1923.05,2016.71Z" transform="translate(-59.61 -32.6)"/><path class="u" d="M1976.83,2016.8l-2.68,27.8c-1.2,12.39-2.34,25.28,2,37,2.2,5.92,7.55,12.09,13.66,10.51,4.09-1,6.55-5.19,8.07-9.13s2.71-8.27,5.85-11.1c0,3.9.11,7.88,1.44,11.55s4.1,7,7.86,8.06c5.75,1.62,11.58-2.51,15.17-7.28a37.1,37.1,0,0,0,6.88-27.87l-9.51,18.6c-1.64,3.2-4.78,7-8,5.43-2.61-1.25-2.67-4.88-2.34-7.75q2.64-23,5.27-46a18.65,18.65,0,0,0-.15-7.41c-.71-2.38-2.67-4.57-5.15-4.76-4.54-.33-6.74,5.36-7.52,9.84-3.1,17.7-6.65,35.83-16.23,51-1.17,1.85-3.43,3.88-5.23,2.62-2.61-17.62,6.55-35,6.19-52.83-.07-3.22-.48-6.54-2.13-9.31s-4.75-4.86-8-4.47c-3.51.42-6.14,3.69-7,7.12s-.23,7,.37,10.53" transform="translate(-59.61 -32.6)"/><path class="u" d="M2090.13,2084.94c-5.2-4.81-7.53-12.11-7.64-19.19s1.78-14,3.9-20.77c2.25-7.13,4.84-14.29,9.21-20.36s10.74-11,18.12-12.23a16.17,16.17,0,0,1,11.48,2.1c5,3.32,7,9.83,6.6,15.8-.23,3.59-1.38,7.43-4.35,9.45s-8,1-8.79-2.54c-1-4.16,4.12-7.6,4-11.87-.15-4.69-6.85-6.68-10.85-4.23s-5.76,7.28-7.15,11.76c-3.75,12.12-6.92,24.79-5.4,37.39.4,3.32,1.29,6.89,3.93,9s6.54,2.05,9.84,1.13c9.08-2.54,15.66-10.57,19.66-19.12s6-17.89,9.57-26.62,9.2-17.24,17.82-21.09,20.53-1.18,24.34,7.45c-11,1.31-20.13,9.94-24.77,20s-5.5,21.45-5.61,32.55c0,2.47.91,5.85,3.37,5.58,1.67-.18,2.52-2,3.09-3.62a104.63,104.63,0,0,1,10.61-21.31c1.73-2.65,3.65-5.3,6.39-6.88s6.47-1.84,8.89.19c3.14,2.64,2.73,7.51,2,11.55l-4.74,27.94c-.4,2.31-1.48,5.24-3.83,5.17-2.08-.06-3.14-2.49-3.7-4.5l-4.17-15-12,15.48c-2,2.54-4.56,5.36-7.75,5-2.79-.36-4.61-3.06-5.88-5.57a68.48,68.48,0,0,1-7.08-24.1c.82,8-13.19,23.92-20.1,26.91C2110.67,2094,2096.8,2091.11,2090.13,2084.94Z" transform="translate(-59.61 -32.6)"/><path class="u" d="M2195.92,2053.71l8.5,5.92c3,2.12,6.17,4.33,8,7.52,3.8,6.42,1.11,15.3-4.71,20s-13.87,5.73-21.25,4.62c4.2,8.07,14.61,11.93,23.37,9.47s15.42-10.43,17.34-19.32c1.76-8.13-.83-17.8-8.13-21.78-4.08-2.22-9.38-2.63-12.27-6.27-2.67-3.37-2.2-8.16-1.6-12.42.33-2.3.69-4.69,2-6.6s3.91-3.16,6-2.2c-.77,3.22-1.55,6.53-1.12,9.82s2.35,6.59,5.47,7.7,7.25-.89,7.52-4.19a12.31,12.31,0,0,0-.91-4.39c-3.11-10.69,4.53-22,2.62-33a4.58,4.58,0,0,0-1.41-2.95c-3.36-2.6-10.44,7.93-13.7,9.53-4.7,2.32-9.83,1.84-13.76,6C2191,2028.4,2187.16,2047.6,2195.92,2053.71Z" transform="translate(-59.61 -32.6)"/><path class="u" d="M2258.32,2033c1.67-5.16,3.8-10.41,7.8-14.08,7.27-6.69,20.16-5.73,26.36,1.95-1.74,3.33-5.76,4.63-8.76,6.89-4.22,3.17-6.44,8.27-8.49,13.14-4.84,11.51-9.76,23.5-9.15,36a3.84,3.84,0,0,0,1.13,3c1.91,1.41,4.18-1.22,5.17-3.38a105.68,105.68,0,0,1,15.34-24.24,16.62,16.62,0,0,1,5.24-4.58c2.1-1,4.82-1.08,6.62.41,3.08,2.56,1.77,7.43.53,11.24a66.67,66.67,0,0,0-2.56,30c-2.18,2.2-6.23.81-7.9-1.8s-1.74-5.9-2.09-9-1.24-6.45-3.84-8.15a60.65,60.65,0,0,1-10.25,16c-1.53,1.72-3.29,3.44-5.54,4-3.24.74-6.49-1.22-8.83-3.58C2246.12,2073.79,2253.4,2048.2,2258.32,2033Z" transform="translate(-59.61 -32.6)"/><line class="n" x1="414.39" y1="957.4" x2="413.39" y2="8.4"/><line class="n" x1="609.39" y1="8.4" x2="413.39" y2="8.4"/><line class="n" x1="922.39" y1="482.4" x2="609.39" y2="8.4"/><line class="n" x1="566.39" y1="957.4" x2="414.39" y2="957.4"/><line class="n" x1="566.39" y1="245.4" x2="566.39" y2="957.4"/><line class="n" x1="638.39" y1="544.4" x2="710.39" y2="451.4"/><line class="n" x1="802.39" y1="595.4" x2="922.39" y2="482.4"/></svg>