<svg xmlns="http://www.w3.org/2000/svg" viewBox="0 0 9862.17 2373.59"><defs><style>.a{fill:#832b29;}.b{fill:#832b28;}.c{fill:#f37043;}</style></defs><path class="a" d="M7796.1,644.05l.45-113.81c0-12.37.36-25.62,7.52-35.7,11.49-16.2,37.08-16.82,53.42-5.53s24.85,30.93,29.37,50.27c6.59,28.19,5.72,60-11.19,83.46s-53.26,33.86-76.07,16" transform="translate(-146.53 -171)"/><path class="b" d="M484.34,229.67c34,66.4,26.72,145.88,13.61,219.33-46.77,262-155.87,509.83-202.54,771.87-10.28,57.69-17.41,117.61-2.93,174.39s54.81,110.24,111.51,125c51-93.29,52.19-204.49,69.42-309.43,35.21-214.33,144.39-415.8,304.73-562.32Q732.62,819.9,694.89,993.21c-10.49,48.23-15.93,109,24.88,136.76,35.78,24.34,87.66,4.52,113.57-30.14s33.08-79.32,41.48-121.78a1396.41,1396.41,0,0,1,237.52-545.33c24.59-34,69-70.23,103-45.76-61.54,312.34-220.8,602.84-249.87,919.85-6.61,72.06-.76,156.52,58,198.77,8.51,6.12,18.18,11.17,28.62,12.06,44.3,3.8,58.66-57.39,60-101.83,9-291.3,163.84-558.1,212.55-845.43,14.24-84,17.58-176.59-29.53-247.54-17.74-26.71-46.48-50.57-78.34-47-30.94,3.49-52.86,30.86-70.93,56.21A4673.86,4673.86,0,0,0,875.27,758.9c6.77-38.83,13.51-78.91,4.67-117.31s-37.35-75.12-76.33-81c-59.31-8.89-103.43,51.51-132.52,104q-90.44,163-180.86,326.06,55.18-249.24,110.38-498.48c18.76-84.74,36.24-178.87-7.32-253.94-20.57-35.46-56.38-64.21-97.27-67-43.86-3-84,23.18-118.26,50.8a867.27,867.27,0,0,0-170,183.88c-30.91,45.07-58.22,95.31-61,149.89-2.76,53.35,37.45,152,103.77,129.05C162.91,534.85,361.39,295.24,484.34,229.67Z" transform="translate(-146.53 -171)"/><path class="b" d="M2553,1112.9c-2.95,52.57-1.48,110.2,32.06,150.79s110.48,45.56,132.14-2.44c7.56-16.74,6.94-35.85,6.82-54.22A795.76,795.76,0,0,1,2842.1,786c13.4-21.67,34.12-45.49,59.08-40.37,28.09,67.8,13.22,145.08-5.55,216A2222.44,2222.44,0,0,1,2815.21,1207c-12.06,30.66-25.52,62.08-49.84,84.31-55.42,50.65-143.06,35.33-213.6,9.59,18.9,6.89,51.74,73.08,79.57,88.78,37.95,21.42,88.5,32.73,131.79,24.16,94-18.61,169-116.8,206.6-198.64,38.59-84,53.6-176.9,62.87-268.92,5.18-51.48,8.47-104.94-9.16-153.57s-61.51-91.37-113.24-91.79c-45.55-.37-85.32,30.89-114.76,65.64A398.64,398.64,0,0,0,2704.35,976c-12.51-180.73,108.27-341.79,149.25-518.26,9.53-41,13-89.1-15.34-120.23-90.07-99-169.12,233-185,281.26C2600.76,778.77,2562.42,944.3,2553,1112.9Z" transform="translate(-146.53 -171)"/><path class="b" d="M1482.67,996.69c-11.64,62-23.3,125.63-12.73,187.85s48.17,123.79,107.64,144.9c14.85,5.27,31.81,7.75,46.05,1,13.7-6.5,22.28-20.19,30.12-33.17l82.6-136.86c25.43,34.24,33.5,78,52.12,116.41s56.58,74.46,98.48,66.56c71.28-13.42,73.72-128.8,140.48-157.15,10.68,109.79,138.77,182.09,246.4,157.9s187.31-121.4,219.8-226.82c7.9-25.61,12-57.48-7.71-75.68a649.47,649.47,0,0,1-152.27,187.76c-37.48,31.68-93.31,59.3-132.63,29.93-14.74-11-23.58-28.12-30.64-45.11-60.68-146.12-14.45-329.53,108.25-429.42,10.83-8.82,23.14-17.37,37.1-17.71,40.84-1,48.57,59.24,34.33,97.53a328.38,328.38,0,0,1-123.31,156.64c-19.05,12.83-42.49,34.8-29.74,53.9,10.64,16,35.25,10,52.36,1.3a522.67,522.67,0,0,0,129.28-92.73c33-32.34,62.31-70.3,74.89-114.76s5.84-96.32-25.75-130c-49-52.33-135.61-43.31-200.51-12.86-102,47.86-182.52,139.48-216.89,246.76-32.82,102.42-34.42,231-125.77,287.79-43.17-69.09-27.33-159.15-.58-236.1s63.52-154.19,57.9-235.47c-2.16-31.3-11.77-63.84-35.11-84.81s-62.87-25.68-85.45-3.89c-15.17,14.62-19.63,36.79-23.71,57.46a1859.47,1859.47,0,0,1-182.22,512.28c-41.4-61.11-45.14-140.77-32.56-213.49s39.74-142.14,55.56-214.22c13.63-62.16-34.55-207.49-107.29-119.75C1491.14,770.88,1494.15,935.48,1482.67,996.69Z" transform="translate(-146.53 -171)"/><path class="b" d="M3129.78,1009.33c-15.63,104.58-21,227.8,58,298.09,14.05,12.5,30.86,22.82,49.51,25.27,43.53,5.71,80.35-31.49,104-68.44a490,490,0,0,0,74-207.73c-26.79-14.38-53.92,18.1-67.16,45.47q-23.67,48.93-47.36,97.86c-8,16.45-18.75,35-36.88,37.28-30.33,3.75-42.78-37.85-41.95-68.4,5.71-209.16,50.55-419.9,120.79-616.66,15.94-44.64,33.65-91,27.69-138-5.91-46.5-42.9-92-92.26-87.86,4.26,96.3-52,212.73-75.14,308.38Q3158.05,820.17,3129.78,1009.33Z" transform="translate(-146.53 -171)"/><path class="b" d="M4014.67,1210.57c49-46.91,87.47-103.55,125.53-159.72l-33.93,91.65c-13.28,35.87-26.78,72.18-48.62,103.58-51.17,73.56-148.83,111.42-236.21,91.57S3662.34,1241.46,3648,1153c-10.14-62.42,6.22-126.23,29.32-185.09,30.84-78.57,74.2-152.59,130.78-215.23,27.1-30,58.78-58.26,97.8-68.87,66.9-18.21,141.28,24.36,170,87.47s16.37,139.89-20.64,198.52-95.79,100.8-158.61,130.14c-14.06,6.56-29.38,12.69-44.68,10.11s-29.51-17.4-25.74-32.45c3-11.77,14.8-18.62,25.24-24.86,73.21-43.77,205.67-221.08,122-308.11-53.21-55.36-89.69,19.43-113.26,69.19-40.65,85.79-65.76,195-60.69,290.14C3806.56,1235.66,3903,1317.41,4014.67,1210.57Z" transform="translate(-146.53 -171)"/><path class="b" d="M4162.58,977.26c-.37,17.44,1.8,35.56,10.92,50.43,27.71,45.22,96.25,35.13,143.39,59.45,67.08,34.61,71.25,139.58,19.35,194.4s-138,64.37-210.92,44.93c26.34,30.53,65.07,47.12,103.1,60.53,64.08,22.59,139.86,37.63,196.29-.23,60.17-40.37,72.46-124.18,64.4-196.18-3.17-28.26-9.74-58.42-30.91-77.39-16.32-14.63-38.56-20.1-59.08-27.75-45-16.8-87.1-49-102.32-94.59s5.18-104,50.59-119.6c-11.52,37-3,79.67,21.77,109.49s65.19,45.9,103.71,41.3c-38.17-51.64-29.78-124.43-6.75-184.37,14.35-37.37,33.95-74.16,34.83-114.19.88-39.63-23.37-81-64.14-84-12.9,97.63-92.73,52.13-153.06,95.9C4220.69,781.17,4164.21,901.11,4162.58,977.26Z" transform="translate(-146.53 -171)"/><path class="b" d="M6046,286.06c85.55-16.47,177.89-28.12,256.72,9,16.82,7.91,33.26,18.54,42.64,34.59,19.55,33.43,2.12,75.75-17.3,109.27-128.26,221.37-346.32,388.93-593.26,455.84l116.43-415.55c7.5-26.77,13.55-59.56-6.35-79-19.12-18.64-52.9-12.22-72.06,6.38s-27.4,45.43-34.92,71Q5674.59,693,5611.33,908.35a408.2,408.2,0,0,0-115.6-75.14c72.08,90.31,110.92,206.55,107.6,322-1.86,64.71-16.43,129.24-10.08,193.66s40.72,132.47,102.48,151.87L5714,1044.6c79.91,109.48,160.72,220,262.92,309,29.49,25.69,66.36,50.92,104.59,42.67,34.63-7.48,58.42-41.58,64.88-76.42s-.9-70.59-8.23-105.25c-21.12,51.56-91.35,68.35-142.8,47s-86.4-69.89-112-119.36-45.14-102.76-79.16-146.89A1405.83,1405.83,0,0,0,6316.47,687c57.45-54.27,111.73-115.83,136.12-191S6465,329.32,6405.79,277c-30.21-26.66-69.41-40.86-108.57-50.38-143.66-34.92-295.16-13.87-438.53,22.22-107.93,27.17-551.86,161.89-464.8,349.54,97.56-61.61,173.38-145.5,282.18-197C5793.12,346,5919.1,310.49,6046,286.06Z" transform="translate(-146.53 -171)"/><path class="b" d="M6387.32,954.28c43.36-79.14,118.42-143.92,207.19-160.13-17.22-32.76-55.11-48-90.28-59.55-23.84-7.82-48.83-15.18-73.66-11.63-35.93,5.14-64.66,32-88.12,59.66-97,114.46-146.43,268-134.46,417.56,4.79,59.76,30.16,130.22,89.13,141,41.47,7.59,81.93-19.37,108.89-51.79s45.75-71.3,74.92-101.75c10.68,77.07,78.68,142.36,156.12,149.9-43.72-100.51-34.9-222.22,22.87-315.36-15-41.46-78.36-41.82-111.46-12.72s-46.05,74.08-65.25,113.75a353.47,353.47,0,0,1-54.52,81.41c-13.69,15.32-29.35,29.83-48.73,36.65C6267.12,1281,6362.26,1000,6387.32,954.28Z" transform="translate(-146.53 -171)"/><path class="b" d="M6775.43,1146.42c-1.11,74.22,19.89,164.95,91.3,185.22,25.1-149.38,97.62-290.43,204.51-397.76q-8.39,76.13-10.7,152.77c-.92,30.71-.63,63.27,15.35,89.51s53.41,41.77,78.54,24.1c15.32-10.78,21.75-30,27-48,29.34-100,56.8-209.37,138.27-274.28a1993.75,1993.75,0,0,0-37.38,280.42c-4.05,65.79-4.5,133.79,19.56,195.16s77.84,115.14,143.49,121.1c-34.61-211.45-66.47-441,35.25-629.54,18.15-33.64,40.87-67.17,42.23-105.37s-31.4-80.47-68.53-71.37c-14,3.43-25.4,13.23-36.05,22.91a1124.1,1124.1,0,0,0-224.76,283.13c-33.26-44.45,7.21-121.71-35.09-157.65-21.32-18.12-54.9-14.25-78.14,1.32s-38.56,40.18-53.16,64L6892,1103c-11.29-97,50.4-186,72.91-281,29.47-124.42-70.22-119.75-112.32-24.11C6804.21,907.7,6777.23,1026.3,6775.43,1146.42Z" transform="translate(-146.53 -171)"/><path class="b" d="M7738.5,863.8c-29.83,127.26-59.22,263.47-13.47,385.91,10.86,29.09,27.27,58.15,54.51,73,32.13,17.56,73.51,11.07,104.19-8.9s52.14-51.4,68.66-84.07a440,440,0,0,0,45.36-157.88c.41-4.45.71-9.15-1.22-13.18-4.47-9.33-18.71-9.58-26.81-3.16s-11.69,16.81-15.25,26.52a423.35,423.35,0,0,1-120.48,174c-21.09-26.12-19.89-63.22-16.69-96.63a1782,1782,0,0,1,40.94-245.59c8.86-37,19-74.62,15.57-112.5-3.17-35.06-36.24-108.92-84.07-94.19C7753.36,718.35,7745.24,835.05,7738.5,863.8Z" transform="translate(-146.53 -171)"/><path class="b" d="M8326.56,757.67c19.36-31.58,59.05-63.45,89.22-42,24.81,17.67,18.94,55.5,10,84.63-29.81,97.2-64.42,197.27-51.38,298.1a902.56,902.56,0,0,1,228.41-365.74c19.41-18.82,40.64-37.32,66.65-44.69s57.94-.45,72,22.64c13.64,22.43,6.72,51.37-2.65,75.89-13.88,36.36-34.36,73.08-68.95,90.94s-85.53,7.51-99.16-28.94L8361.3,1299c-3,6.51-6.57,13.54-13.12,16.5-6.16,2.79-13.34,1.18-19.81-.8a193.46,193.46,0,0,1-76-44.08c29.57-67.66-2.52-182.26,2.52-258.72C8260.71,922.91,8279.79,834.64,8326.56,757.67Z" transform="translate(-146.53 -171)"/><path class="b" d="M8854.54,862c45.33-83,123.18-150.63,215.54-170.79,20.46-4.47,42-6.58,62.21-1.15,45.32,12.16,73.63,60.6,76,107.46s-15.93,92.21-36.74,134.27c-40,80.85-104.24,164.78-194.35,169-6.51.31-13.47.05-18.86-3.61-10.37-7-9.59-23.51-2-33.51s19.54-15.37,30.62-21.21c88.4-46.61,142.46-151.08,129.45-250.17-3-22.93-17.78-51.19-40.38-46.31-8.61,1.86-15.33,8.39-21.44,14.72-59.28,61.38-110.59,132.8-135.18,214.51s-19.77,174.83,26.17,246.73c14.15,22.14,34.66,43.42,60.86,45.49,17.1,1.36,33.67-5.78,48.93-13.63,88.72-45.63,161.45-121.64,203.13-212.28,12.69,73.35-32.73,143.62-81.68,199.7-31.41,36-67,71-112.32,86.08-112.23,37.35-225.93-58.24-260.57-160.81C8772.39,1073.33,8809.21,945,8854.54,862Z" transform="translate(-146.53 -171)"/><path class="b" d="M9760.27,1481.38c-12,73.22-56.33,141.53-120.54,179.73-54.57,32.46-130.94,30.71-191.69,20.89-10.48-1.69-16.55-3.51-22.37-12.39l5.88,5c-41.39-20.21-79.94-39.84-107.18-78.06-16.78-23.55-20-56.11-8.1-82.47,11.21-24.89,33.75-42.61,56.36-57.9,30.61-20.7,64.67-38,98.14-53.61A708.84,708.84,0,0,1,9628,1350.43c2.93-.6,6.22-1.12,8.69.54,1.76,1.19,2.71,3.23,3.47,5.2a66.8,66.8,0,0,1,4,32.34c-51.16-4.28-102.54,10.64-147.86,34.74s-89,49.8-122.7,88.5c-11.08,12.72-22.94,28.45-18.68,44.78,3,11.65,14,19.9,25.58,23.13s23.9,2.3,35.9,1.25c59-5.13,111.22-19.19,161.64-50.23,39.59-24.38,67-67.56,72.22-113.76,4.08-36.18-5.51-73.59-25.79-103.75-19.45-28.92-53.78-46.21-84.09-62L9453.54,1206c-11.49-6-74.6-29.48-70.7-46.43,35.52-23.91,66.36-54,97-83.94,86.35-84.38,172.17-175.2,227-284.17,7.37-14.66,13.69-30,16.45-46.2-18.2-8.88-39.83-2.76-59,3.79q-79.84,27.27-157.08,61.47c-11.74,5.19-23.63,10.7-36.22,13.53-16.75,3.76-17.11,1.67-21.81,19.08-7,26.12-15.58,51.82-25.07,77.14-18.7,49.87-41.19,98.22-64.28,146.18-3.27,6.8-6.7,13.79-12.32,18.82s-14.07,7.7-20.91,4.48c-6.58-3.1-9.95-10.86-9.94-18.14s2.76-14.24,5.54-21c33.83-82,77.67-161.77,89.64-249.69-19.65-11.19-38.72-25.14-53.3-42.43s-23.77-40.4-19.67-62.64c19.19,22.33,47.66,34.43,76.32,38.69,13,1.93,22.9-.92,35.46-1.86,18.51-1.38,37.13,1.73,55.84-.16,22.76-2.3,45.1-7.6,67.36-12.88,36.08-8.57,72.17-17.13,107.92-27,25-6.88,49.88-14.7,75.59-18.53,26.14-3.89,47-2.78,72.89,5.51,14.83,4.75,29.17,12,40,23.17-16.14,3.29-32.32,6.67-48,11.64-11.42,3.61-31.29,6.39-40.1,14.72-3.79,3.57-6.14,9.08-4.73,14.09,1.47,5.19,6.37,8.53,10.93,11.43l24.47,15.55c17.12,10.87,16.65,34.57,11.47,54.17-8.3,31.43-30.11,58.38-45,86.9A703.55,703.55,0,0,1,9725,998.26c-40.33,55.72-87.12,106.38-134.76,155.85-14.42,15-29.41,30.65-35.49,50.53,31.11,4.77,63.42,21.23,90.94,36.5,9.73,5.4,19.51,10.83,28.25,17.72,24.34,19.16,38.81,48,51.15,76.42,11.68-11.58,32.37-9.77,48.82-9.4l53.59,1.2c17.54.39,35.15.79,52.46,3.7,29.25,4.92,57,17,82,33,15.34,9.85,30.19,21.83,38,38.28,6.77,14.22,7.69,30.41,8.49,46.13.53,10.53.87,21.85-4.89,30.68a229.48,229.48,0,0,0-95.13-84.25c-1.69-.79-4-1.43-5.14.08s2.73,2.92,2.16,1.15c-5.82-17.93-39-16-53.27-17.86a369.72,369.72,0,0,0-97.32.64C9764.46,1412.27,9765.85,1447.36,9760.27,1481.38Z" transform="translate(-146.53 -171)"/><path class="c" d="M2338.74,1653.09c16.42-5.81,35-10.48,50.8-3.2,33.11,15.22,26.19,64.34,10.31,97.14-20,41.42-45.95,80.29-60.2,124s-15,95.43,12.86,132.09c-47.82,10-84.55-49.36-77.88-97.75s38.58-89,57.49-134c5.68-13.52,9.9-30.05,1.44-42s-26.32-13.43-39.48-7.25-22.55,18.14-31,29.93a707.59,707.59,0,0,0-130.76,355.52c-1.68,20.91.68,47.1,20.06,55.11,16.07,6.64,33.88-3.95,46.91-15.47,20.47-18.09,38.35-40.09,63-51.91s59.62-8.94,72.7,15c8.23,15.09,15,40.45,31.09,34.28,4.82-1.86,7.93-6.49,10.44-11,16.08-28.93,20.54-63.78,39.92-90.63,38.05-52.71,132.09-46.93,163.39,10-118.25,56.42-186.93,200.74-156.11,328.09l92.22-155.93c13-21.91,33.45-47.16,58-40.53,26.47,7.14,29.47,43,26.91,70.34L2585,2424.47c-21.74,14.62-50.48-7.87-60.58-32s-13.16-53-32.76-70.39l-50.4,87.49c-6.47,11.24-13.52,23-25,29.15-18,9.64-41.45,1.3-55.29-13.76s-20.33-35.27-26.45-54.79c-45.72,44-50.46,122.06-102.91,157.83-33.17,22.62-79.39,21.25-114.27,1.38s-58.76-55.94-69.42-94.65c26.59,54.77,112.39,52.45,156.35,10.33s57-106.26,67.83-166.17q8.44-46.72,16.9-93.43c4-21.87-.74-54.25-22.9-52.55-12.65,1-20.28,13.82-27.85,24-44,59.08-137.83,50-173.21-13.64-25.77-46.35-2.44-120.4,6.92-169.56C2099.08,1831.38,2200.69,1701.91,2338.74,1653.09Z" transform="translate(-146.53 -171)"/><path class="c" d="M2717.25,2436.15A666.41,666.41,0,0,1,2838.44,2104c9.78,13.53,21.73,28.32,38.38,29.47,18,1.25,32.58-14.11,42.13-29.38,12-19.17,20.83-41.66,17.65-64s-21.51-43.64-44.12-44c-16.52-.23-31.3,10.12-43.2,21.59-62,59.72-75.87,154-127,223.21q14.94-65,29.87-129.94c5.26-22.89,10.42-47.44,1.85-69.31-4.69-11.94-14.42-22.85-27.09-24.86-26-4.13-41.74,27.38-47.94,52.94a1253.61,1253.61,0,0,0-33.22,223.62C2641.15,2373.46,2648,2394.08,2717.25,2436.15Z" transform="translate(-146.53 -171)"/><path class="c" d="M2965.07,2356.93c-40-51.9-34.26-125.85-14.8-188.44,14.18-45.64,35.75-90.87,72.7-121.17s92-42.15,133.53-18.45,57.25,87.83,23.72,121.88c-6.85,7-16.37,12.64-26,10.8-17.25-3.31-21.32-26.28-18.82-43.67s6.71-37.82-5.64-50.31c-11.06-11.18-30.69-9-43.13.66s-19.39,24.53-25.66,38.95c-33.39,76.71-61,162.78-36.8,242.88,3.39,11.22,8.11,22.64,17.12,30.13,12.71,10.56,31.6,10.91,47,4.89s28-17.39,39.85-28.9a769.67,769.67,0,0,0,104.65-125.95c5.59,55.38-24.27,109-63.09,148.86-22.23,22.85-48.44,43-79.06,51.86s-66.22,4.85-90.31-16c-15.34-13.29-24.82-32-32.66-50.74a455.32,455.32,0,0,1-26.37-86.17c-.6-3-1-6.54,1-8.83s7.19-.52,6.12,2.37" transform="translate(-146.53 -171)"/><path class="c" d="M3341,1803.94c8.05-19.54,20.92-42,42.05-42.39,18-.35,32.3,17.26,34.87,35.12s-3.42,35.7-9.09,52.83a1855.9,1855.9,0,0,0-84.36,394.93,1445.61,1445.61,0,0,1,48.46-146.9c10.53-27,23.08-55.16,47.1-71.33s62.76-13.59,75.76,12.28c8.22,16.39,4,36-.1,53.85a1242.91,1242.91,0,0,0-28.89,207.41c-1.79,33,10,78.53,42.89,75.53,50.25-94.35,17.53-211.05,40.19-315.52,4.83-22.27,15.19-47,37.06-53.41s45.13,10.21,53.68,31.24,5.8,44.83,1.34,67.08c-16.42,81.93-54.31,163.49-38.51,245.54,3.29,17.08,15.85,37.75,32.48,32.64,9-2.77,13.93-12.15,17.91-20.67l58-124c-.27,36.21-.66,73.16-12.42,107.4s-37.12,65.92-72,75.55-78-9.84-86-45.15c1.46,39.56-41.44,74.06-79.76,64.14-51.94-13.43-65.09-80.42-64.7-134.07a1255.84,1255.84,0,0,1,16.39-193.12,770.29,770.29,0,0,0-94.71,269.81c-3.29,21.74-6.94,46-24.3,59.48-52.72,41-47.67-62.29-48.69-82.81A1294.89,1294.89,0,0,1,3341,1803.94Z" transform="translate(-146.53 -171)"/><path class="c" d="M3627.66,1863c-18.36-3.75-35.6,12.62-41.11,30.52-8.42,27.31,9.66,63.27,38.23,62.8,8.87-.15,17.42-3.66,24.81-8.57,20.66-13.72,32.91-41.88,22.76-64.51s-45.9-30.41-60.85-10.61" transform="translate(-146.53 -171)"/><path class="c" d="M4246.09,1798.88c5.74-12.26,13.55-25.9,26.89-28.22,14-2.43,27.12,10,30.72,23.71s.21,28.26-3.16,42.07q-51.09,208.82-102.17,417.63l96.21-205.93c10.47-22.42,27.8-48.75,52.24-44.9,27,4.25,33.26,40,31.4,67.26-6.56,95.93-33.13,191.5-21.38,286.94,1.16,9.39,3.73,20.19,12.32,24.15,11.69,5.38,24.05-6,31-16.79,31.77-49.72,37.76-110.92,47.67-169.08s27.16-119.8,73.11-156.8,128.09-32,151.12,22.3c-47,.77-81.93,43-104.88,83.93a589.82,589.82,0,0,0-66.25,186.41c-3.38,19.38,3.33,48.28,22.6,44.28,8.49-1.77,13.82-10,18.2-17.46q43.81-74.94,87.64-149.89c12.89-22,37.91-47.42,59.23-33.38l-16.38,212c-.68,8.81-2.11,18.92-9.59,23.63-14.1,8.89-29.12-9.95-35.25-25.45l-28.42-71.91c-32.05,32.67-31.76,91.61-71.05,115.09-35.14,21-88.09-9-88.13-49.94-17.48,22.49-39.62,47.24-68.07,45.7-38.92-2.1-56.26-49.56-60.76-88.27a717,717,0,0,1,13.82-244.66,515.65,515.65,0,0,0-88.23,236.61c-3,27.89-4.19,57.39-19.12,81.16-41.35,65.81-80,13.27-83-35.88-4.09-66.49-1.37-133.75,6.17-199.89A1206.91,1206.91,0,0,1,4246.09,1798.88Z" transform="translate(-146.53 -171)"/><path class="c" d="M4718.47,2076.78c14.28-25.22,38.42-50.6,67.13-46.61,13.3,1.85,27.86,9.74,39.06,2.32,14.53-9.62,7.24-34.26,18.66-47.41s34.73-5.64,43.21,9.41,6.59,33.55,4.44,50.69q-9.57,76.47-19.13,152.94c-1.49,11.89-7.46,27.43-19.3,25.53-5.29-.84-9.2-5.26-12.39-9.57a140,140,0,0,1-26.57-94.6c-6.85-1-12.4,5.2-16.51,10.78-12,16.27-24.2,33.11-28.91,52.75s0,43,16.55,54.56c9.81,6.85,22.14,8.68,33.48,12.52,49,16.61,76.9,75.31,64.81,125.57s-58.64,88.42-109.59,97.17c-19.57,3.35-40.44,2.72-58.29-6s-32-26.57-32.41-46.41c31.09,24.58,77.37,27.92,111.67,8.05a90.2,90.2,0,0,0,30.62-28.7c50.88-78.58-31.86-109.63-81.54-141.45C4679.31,2217.27,4684.21,2137.28,4718.47,2076.78Z" transform="translate(-146.53 -171)"/><path class="c" d="M5069.36,1949.2c-5.46-6.39-14.39-8.36-22.69-9.73-20.25-3.35-41.26-5.48-59.38-15.13s-32.85-29.32-29.4-49.56a227.43,227.43,0,0,0,99.66,19.69c6.76-.21,13.87-.85,19.42-4.71,15.52-10.81,7.5-34.71,9.6-53.5,2.49-22.34,25.16-40.91,47.35-37.35s38,30.17,29,50.8c-3.62,8.36-10.29,18.62-4,25.26,3.28,3.47,8.62,3.71,13.39,3.72l171.83.3c-50,48.23-118.29,77-187.73,79.13A1501,1501,0,0,0,5092,2324c-1.2,24.16,8.51,58.06,32.3,53.69,14-2.56,21-17.91,25.82-31.27,11.14-30.9,21.35-62.54,34.16-92.67,32.74,100-106,240.67-146.46,97.42-14.85-52.56-12.41-112.55-7.3-166.3C5034.72,2141.21,5095.74,1980.11,5069.36,1949.2Z" transform="translate(-146.53 -171)"/><path class="c" d="M5336.46,2266.48a287.37,287.37,0,0,0,8,140.5c3.47,11,8,22.33,16.87,29.7,15.87,13.16,40.86,8.84,57-4s25.48-32.14,34.56-50.65,19-37.63,35.61-49.78c.86,22.69,4.14,46.05,15.89,65.49s33.6,34.14,56.18,31.72c4.12-.44,8.36-1.51,11.49-4.24,7.27-6.34,5.42-17.87,3.23-27.27a477.21,477.21,0,0,1-1.55-209c-24.83-6.06-44.16,20.48-56.9,42.63a763.55,763.55,0,0,1-92.68,128.23c-2.31,2.58-4.85,5.28-8.21,6.1-9.44,2.31-14.9-10.37-15.82-20-8.05-84.27,20.66-171.4,77.23-234.37,11.3-12.58,24.12-24.53,40-30.35,4.58-1.69,9.45-2.88,13.41-5.73,9.88-7.11,10.35-22.74,3.47-32.78s-19-15.26-30.89-17.7c-48.44-9.9-98.25,19.62-126.3,60.33s-38.6,90.69-46.91,139.43c-9.31,54.6-16.29,112.32,3.46,164.06" transform="translate(-146.53 -171)"/><path class="c" d="M5964.35,2036c-21.3,14.87-36.81,36.61-49.73,59.14-25.05,43.68-40.71,101.95-10.06,141.9,28.58,37.24,86.45,42.92,113,81.61,23.13,33.64,11.7,84.11-20.46,109.26s-79.35,26-115.76,7.53c-4,24.4,16.27,47.08,39.23,56.26,31,12.38,67.39,6.9,96-10.2s49.93-44.75,63.85-75c17.68-38.49,22.12-89-7.82-119-23.26-23.27-60.34-27.2-85.17-48.78-36.43-31.68-29.11-99.58,13.24-122.76-.34,20.53-.61,41.52,5.9,61s21.17,37.48,41.15,42.22c4.94,1.17,10.26,1.48,15-.37,17.57-6.87,12.92-32.27,9.68-50.85-8.83-50.73,18.23-100.6,21.72-152,1-15.32-2.25-34.05-16.57-39.6-32.53-12.6-25.83,30.25-39.69,40.2C6019.74,2029.57,5986.61,2020.43,5964.35,2036Z" transform="translate(-146.53 -171)"/><path class="c" d="M6250.12,2036.45l-14.28,147.73c-6.35,65.83-12.4,134.32,10.63,196.32,11.69,31.45,40.13,64.26,72.62,55.87,21.74-5.62,34.78-27.6,42.88-48.54s14.38-43.95,31.06-59c0,20.71.58,41.87,7.66,61.35s21.81,37.26,41.75,42.86c30.53,8.57,61.54-13.35,80.6-38.7,31.4-41.75,44.91-96.51,36.55-148.09l-50.54,98.83c-8.69,17-25.37,37-42.62,28.84-13.87-6.6-14.2-25.9-12.46-41.16l28-244.35c1.51-13.13,3-26.68-.79-39.35s-14.17-24.33-27.35-25.3c-24.11-1.77-35.8,28.46-40,52.27-16.47,94.06-35.32,190.4-86.24,271.17-6.21,9.85-18.22,20.62-27.75,13.93-13.89-93.62,34.79-186.07,32.85-280.69-.35-17.1-2.55-34.74-11.28-49.45s-25.27-25.83-42.25-23.78c-18.65,2.24-32.61,19.59-37,37.86s-1.2,37.4,2,55.92" transform="translate(-146.53 -171)"/><path class="c" d="M6852.08,2398.5c-27.6-25.53-40-64.35-40.57-101.94s9.43-74.49,20.73-110.35c11.95-37.91,25.72-75.91,48.9-108.21s57.06-58.67,96.32-65c20.88-3.35,43.38-.6,61,11.14,26.42,17.64,37,52.27,35,84-1.18,19-7.3,39.46-23.08,50.19s-42.42,5.08-46.74-13.5c-5.13-22.08,21.91-40.39,21.21-63-.77-24.93-36.37-35.51-57.64-22.49s-30.59,38.67-38,62.49c-19.94,64.4-36.77,131.72-28.73,198.65,2.13,17.68,6.87,36.65,20.9,47.61,14.35,11.21,34.74,10.93,52.27,6,48.27-13.5,83.22-56.19,104.45-101.59s31.89-95,50.87-141.42,48.89-91.63,94.67-112.05,109.07-6.29,129.34,39.55c-58.53,7-106.95,52.83-131.61,106.37s-29.22,114-29.83,172.95c-.13,13.14,4.85,31.1,17.92,29.67,8.88-1,13.41-10.87,16.45-19.27a553.72,553.72,0,0,1,56.37-113.21c9.16-14.07,19.4-28.14,33.92-36.56s34.39-9.76,47.25,1c16.7,14,14.52,39.88,10.87,61.38q-12.59,74.21-25.18,148.4c-2.09,12.32-7.83,27.85-20.32,27.48-11.08-.33-16.68-13.21-19.65-23.89L7287.06,2333l-63.64,82.26c-10.46,13.52-24.22,28.5-41.17,26.31-14.82-1.92-24.45-16.25-31.23-29.58a364.7,364.7,0,0,1-37.62-128c4.34,42.73-70.06,127.05-106.78,143C6961.24,2446.6,6887.56,2431.32,6852.08,2398.5Z" transform="translate(-146.53 -171)"/><path class="c" d="M7414.21,2232.59l45.14,31.46c16.14,11.24,32.77,23,42.78,39.94,20.17,34.13,5.87,81.31-25,106.17s-73.71,30.42-112.92,24.56c22.29,42.88,77.64,63.36,124.17,50.32s81.94-55.45,92.14-102.68c9.32-43.17-4.43-94.58-43.21-115.71-21.69-11.81-49.84-14-65.19-33.34-14.19-17.88-11.71-43.35-8.51-66,1.73-12.22,3.65-24.94,10.67-35.1s20.8-16.78,32-11.66c-4.1,17.12-8.22,34.71-5.92,52.16s12.48,35,29.07,40.91,38.49-4.71,39.95-22.25c.66-8-2.62-15.64-4.85-23.31-16.55-56.84,24-117,13.91-175.31-1-5.84-2.81-12-7.49-15.66-17.84-13.84-55.46,42.11-72.77,50.64-25,12.31-52.27,9.75-73.15,31.65C7388.18,2098.09,7367.62,2200.13,7414.21,2232.59Z" transform="translate(-146.53 -171)"/><path class="c" d="M7745.74,2122.34c8.86-27.44,20.19-55.29,41.41-74.81,38.63-35.53,107.12-30.47,140.11,10.35-9.28,17.71-30.61,24.61-46.59,36.62-22.41,16.86-34.22,43.94-45.08,69.79-25.7,61.15-51.88,124.9-48.61,191.15.29,5.9,1.22,12.55,6,16,10.18,7.49,22.22-6.48,27.46-18a563.14,563.14,0,0,1,81.52-128.81c8-9.5,16.63-19,27.83-24.33s25.63-5.73,35.18,2.2c16.35,13.59,9.39,39.48,2.83,59.69A354.23,354.23,0,0,0,7954.19,2422c-11.62,11.7-33.11,4.31-42-9.59s-9.27-31.32-11.13-47.71-6.57-34.26-20.38-43.27a322.56,322.56,0,0,1-54.47,85.26c-8.14,9.16-17.49,18.26-29.44,21-17.2,3.92-34.48-6.5-46.92-19C7680.92,2339.29,7719.6,2203.32,7745.74,2122.34Z" transform="translate(-146.53 -171)"/></svg>